<mxfile host="65bd71144e">
    <diagram id="HIP3nbAZw_EuaXWnEj3U" name="Page-1">
        <mxGraphModel dx="471" dy="695" grid="1" gridSize="10" guides="1" tooltips="1" connect="1" arrows="1" fold="1" page="1" pageScale="1" pageWidth="850" pageHeight="1100" math="0" shadow="0">
            <root>
                <mxCell id="0"/>
                <mxCell id="1" parent="0"/>
                <mxCell id="7" value="http://ics2o.mths.ca" style="swimlane;whiteSpace=wrap;html=1;" parent="1" vertex="1">
                    <mxGeometry x="40" y="40" width="760" height="480" as="geometry"/>
                </mxCell>
                <mxCell id="8" value="&lt;font style=&quot;font-size: 18px;&quot;&gt;Positive or Negative number, in JavaScript&lt;/font&gt;" style="text;html=1;align=center;verticalAlign=middle;resizable=0;points=[];autosize=1;strokeColor=none;fillColor=none;" vertex="1" parent="7">
                    <mxGeometry x="40" y="45" width="360" height="40" as="geometry"/>
                </mxCell>
                <mxCell id="9" value="" style="ellipse;whiteSpace=wrap;html=1;fontSize=18;" vertex="1" parent="7">
                    <mxGeometry x="50" y="100" width="10" height="10" as="geometry"/>
                </mxCell>
                <mxCell id="10" value="&lt;font style=&quot;font-size: 12px;&quot;&gt;Positive&lt;/font&gt;" style="text;html=1;align=center;verticalAlign=middle;resizable=0;points=[];autosize=1;strokeColor=none;fillColor=none;fontSize=18;" vertex="1" parent="7">
                    <mxGeometry x="58" y="83" width="70" height="40" as="geometry"/>
                </mxCell>
                <mxCell id="11" value="" style="ellipse;whiteSpace=wrap;html=1;fontSize=18;" vertex="1" parent="7">
                    <mxGeometry x="150" y="100" width="10" height="10" as="geometry"/>
                </mxCell>
                <mxCell id="13" value="Negative" style="text;html=1;align=center;verticalAlign=middle;resizable=0;points=[];autosize=1;strokeColor=none;fillColor=none;fontSize=12;" vertex="1" parent="7">
                    <mxGeometry x="160" y="93" width="70" height="30" as="geometry"/>
                </mxCell>
                <mxCell id="14" value="GENERATE" style="rounded=1;whiteSpace=wrap;html=1;fontSize=12;" vertex="1" parent="7">
                    <mxGeometry x="50" y="140" width="100" height="30" as="geometry"/>
                </mxCell>
                <mxCell id="15" value="The random number is:&amp;nbsp;" style="text;html=1;align=center;verticalAlign=middle;resizable=0;points=[];autosize=1;strokeColor=none;fillColor=none;fontSize=12;" vertex="1" parent="7">
                    <mxGeometry x="40" y="200" width="150" height="30" as="geometry"/>
                </mxCell>
                <mxCell id="16" value="" style="shape=image;verticalLabelPosition=bottom;labelBackgroundColor=default;verticalAlign=top;aspect=fixed;imageAspect=0;image=data:image/png,iVBORw0KGgoAAAANSUhEUgAAAggAAAElCAYAAACBJhoWAAAAAXNSR0IArs4c6QAAIABJREFUeF7snQe8XVWV/7+n3N5eL0neS/JCKgkJCSE0BxAUUBFkVGasCMKIyiCCAyJVdCzoiGIZy39sMzp2pChKDaGEFkoa6e31ens77c/a5z1hHDSDOpj/P+dSPsm9556792/vs9dvr/Vba2ue53kErwCBAIEAgQCBAIEAgQCBFyGgBQQhmA8BAgECAQIBAgECAQK/j0BAEII5ESAQIBAgECAQIBAg8N8QCAhCMCkCBAIEAgQCBAIEAgQCghDMgQCBAIEAgQCBAIEAgf0jEHgQ9o9RcEWAQIBAgECAQIDAQYdAQBAOuiEPOhwgECAQIBAgECCwfwQCgrB/jIIrAgQCBAIEAgQCBA46BAKCcNANedDhAIEAgQCBAIEAgf0jEBCE/WMUXBEgECAQIBAgECBw0CEQEISDbsiDDgcIBAgECAQIBAjsH4GAIOwfo+CKAIEAgQCBAIEAgYMOgYAgHHRDHnQ4QCBAIEAgQCBAYP8IBARh/xgFVwQIBAgECAQIBAgcdAgEBOGgG/KgwwECAQIBAgECAQL7RyAgCPvHKLgiQCBAIEAgQCBA4KBDICAIB92QBx0OEAgQCBAIEAgQ2D8CAUHYP0bBFQECAQIBAgECAQIHHQIBQTjohjzocIBAgECAQIBAgMD+EQgIwv4xCq4IEAgQCBAIEAgQOOgQCAjCQTfkQYcDBAIEAgQCBAIE9o9AQBD2j1FwRYBAgECAQIBAgMBBh0BAEA66IQ86HCAQIBAgECAQILB/BAKCsH+MgisCBAIEAgQCBAIEDjoEAoJw0A150OEAgQCBAIEAgQCB/SMQEIT9YxRcESAQIBAgECAQIHDQIRAQhINuyIMOBwgECAQIBAgECOwfgYAg7B+j4IoAgQCBAIEAgQCBgw6BgCAcdEMedDhAIEAgQCBAIEBg/wgEBGH/GAVXBAgECAQIBAgECBx0CAQE4aAb8qDDAQIBAgECAQIBAvtHICAI+8couCJAIEAgQCBAIEDgoEMgIAgH3ZAHHQ4QCBAIEAgQCBDYPwIBQdg/RsEVAQIBAgECAQIBAgcdAgFBOOiGPOhwgECAQIBAgECAwP4RCAjC/jEKrggQCBAIEAgQCBA46BAICMJBN+RBhwMEAgQCBAIEAgT2j0BAEPaPUXBFgECAQIBAgECAwEGHQEAQDtAh9wAN///B6/9VBGT85PVSY/iHxvZ/+v7BNDcO9L7+sXE+0OfugY7tgY7f/9/tCwjCgTC+nounabho6J6HA3gamNjghZR98cmCg4eOh4YmF0yRCMfFNTQcTcf0QPsTOIUL6s6otvi/oUs71D/y+xqaNEzz8PTJ3/bUG35jp4ygfAkXPGmIMYmufw8HDfNAwPuVaIMnKNhomofmmnia4Oqie+YkVDYuuo+rwlihjybfwVT4u+p9DUNmhufgaKYad13GQOaGGiEdz5Oxh5AjYwOuJvPIQfsd/q9Eh//4b0yZUDUvpJ+aP6M9NevlJT2V+SfzScfWBRcHw9VAd8AzQFOT63/9JbhLO9Q0V8/DVCs1DDXX5T0HFwPdlWfR9ofCk3GTIXGRT3VkvPwxVP+ovkt/5Bdk7F+hl+tjLs+4pslTaKi5KE+kPxlDaHKNp03OH5h6cn+/hd7k+L1Uy2VMg9f/XwgEBOGAGE9ZMGRh9A2EWvQ13V94FDswJo2wv6TKciVvyxIky6uQAmEFchdDWfqX/6C66m4+M1FtUbdQv6Ta4H82uZhPLgTymW/6/T/5NEGWFn8h9z97Yf8sVxmv3LL4Vx1ZWUddbbL/yqh4/uKsDJ2PivpUEboXdnFCDxWGaiEWw6grUmZrgtzkiMt7ck8xsmqhn6RwjqfGXgiCslMHENYv7qE/OcQg+fP2xS9/bvszSXFM6bWQK2VuX5mXMoLqEZBncora+CTBp/EOriLRPsLyjm9QJ8cZ2yc+Qgan3hdyM0UQFNOWZ+TlP6cvHwFpSR1XyIpqb13NQX99mZqHMo/kz/788t/9w2j/IZIQEISXPzoH+jcCgnBAjJC/T5fnVZ9k9d7kkvPCTtHfhUwZXp8OiAkxlNF9YRfmm+GX+5LfUXtV2TmphdvfOU2ZfVkyfBIhn8vq6ZMV9e/kguqTlknvhvpcDOIUaZBFaKqdL7d1/+9d70Moxm4KQ7Hpk54Cz/fXGIpwCRn0cVGb5ymz43pqlypGSK71jaT/N0MRhCn78gJBkDnjvz1JGF4J+/OyhuZ3foRJL9jUlye9VOpjHzM1zxXpFUPmzzNdf2U8CMhu2p+4v9v9K0+CatNkHzx5EoT0uXie4Xv0ZHwnibWmrpdxk+fFJ9ZilH1SIORB/vjK9Ef8GYrMKCeBPJPSBt/zJH0QquMosulhqK4L2C9/DXlZUyG4+P8JBAKCcAAMk6xH6j8NtfcQd/HkUjm5N/cNhxCBkOcRFiPh+sZaPeSycCpPvyxKvmvz919ixP8Qw1efTX7T1jxMVzwXLnVdflGXtRFDGTFLzJpy98pOV+yUkAVNGSxZWVxczcFWGy/dJxpqK6arRUgZRPGGTO4a/6fuyhdfN9WHl3rvxX3+Y/f+Sw/57+Mqvy0LrrhtZUfm6S62p1PUdGpoFD0P14JO3SFlCEGQRdmnXzISMnqW5lGcpATOpFs7Ic5gz1UOoinvgIxUTdOV32nKWR/3fHope0afSfzx10u1/499Q4UH/oir+aW/O0mBJ5vkuZ4/byepravmpz/P/VCD4GZiyQx0PUKag64JMn9Z1jPVjxdjIPt737w7CmcZOxk3C4+6mtsaaQ8i6nnznwHVH8OjomnUFPnzCYb4g+KuQ5TJEJEiBRJqenEIbpJk72+gfu/z/8m4+Wj5c0vWllE0qjK/XI2a5dIagjbNQ58kCLonxOHPh/l/0ja1OrzIg/TH1qiXCU1w+V8IgYAg/IWA/HNuIw9kyYP7d/bx2FiJihlCdzx0V6dS17BkIQ25pMMwvyXD0vYGOkLQ6EBEuZVdCPmRbD9mPenifxEpeKmFUO3SJhf6qRCHpbuYnk0Og92WTr7qEjegO27Q5lWUvanpUbXYRMTrMOkGViTBf+LJabCnBjlbI6ZBd0SjyRCjZWNMkpffNzK/vzj8/sIxhe+LCcLUd16K+Lx8A6bQ+AMG9UUai98b6Jdqg7yngkbuJDlAY/NYnZ9s7KevarInm6VFhwtXdXNMdzNhZTAsZUzE6SCEalfV5dbt/QxXYKKkQTXLB45ZwKK0hq7Lch9RpHLMtrlzWz9bSxZ518SsuxzTFuHkOe1kTNnZ7n9mvhTWf4nF+sVjoJqhg6MMo4buyLwWIqXL1FZhMmVuRUPheeQ0jX1VjYLlkQnDzIhHg3zvTyQIf6g/L0k0JyM7vubHZdjV+eVze9ldhdEilIeHOO/4Qzm8LU7EdYio8IFGyXNZ0zfB2qECZVc6qzErFebMOS3MiIHjmhi6HxbyCcILRP5Pma9/6Bn5/REXj0DN0xh1Pb6wZgMb8x5FR8ct53n30bN4y5xpJFwH07CVRka8Hr97nv/AfN/frPpDbdvfcx6EKfaH7Cv7eUAQXlm8X/LXHNdhTNO48cGt/GgAsuEmwmL8RaNoaNi6mFYX062RtktMD9u8YXEbp89qZI4hJreOa3hoXmhKLeArAJRbdjL48Ed2fL7kTSPkaji6yKvg0ZzNJ+55jj2VCHHN4fyV03nb3JSscjwzXqOgmWSiOo0GdIQ1Mqa/SFY8nYcGS3xl7W42lzxaQjbvWdrOmfPaadRkJ+gTiZcmCC/A818XmP/+viw0k7bmJT0jf8qC6ynX/6Ru4L/Exv8rQfj9e0tb/9tOSAScno2rO9Q0k/sGbT7z5BjbSwlszWV+HK48IsWJ7VHC6ncdPE1CPB6W63H/uMXVq/fSTyO2HifmFPnbLo8LD29lVtiPyIunZnfF5vp7t/NQMUU5EiFWq3D2DJsPreyiMywiuZc/wV+KTO7PY/OSv6IEev5LvBsibhWCUHU91vWXqEUNEjGDaTp0h0OYmvhBxCMS4vb+Ip9bvZ2CZdCZcLnouB5e15Ei9PK7o77x3wjCpMbghX7JGE4Ov4R3RCSpvDou2zydC295is1eMzZJEm6dFekyHzq2m+VJiLkWjhZhwtX46uN9/GCvw4QRI+w5HNUAV65qZWlKmI8vInbEj688FK+MG19+re569LsaF96+mWfdNipeiKbaBJce08TbZ6VJuS6aUVNriOgrVBjxJV5/LnHc3/cDgvAnTvD/pa8FBOF/CdiXc1vZp4yj8S9rd/O93hCFULP6uulUX1C4q12KkAR536IjNMY5ixp4+9w2knpNuQhNIQjiIpyUCLygIJhUxKtFUdz8EoeU+4lLW3ZxHq6nExJXqeZQxeAbT+3kKztcxow2Im6NE2PjfOG0BUzUbD79wHaezodIJiMsDNd5z2GtLGtNKLdq0dP49vphvvmcxaDZRMoocEpzkcuPnMkc00A3pqLsUwvQpKFXrEFtnydj6NI2PxtC7Wh+5/UU0Zofg5edkeqZrL3KpT6VCeCL4KYCJ77sUlc77kn12e9cw35cVuLe8lsqIDClOZ+MhLjKaIvxFvxVcGVKZCgEQBNlu68DUTFl1V65l68vsBTh0lg9WufadRNsLqTFTrA8VuUTRzZwVFOIkHgaRPr2O2W/x30TdS5bPcw+GnG0sBrz6UaR9y9K8Hc9CZKGOLxN9tbgYw/0c38hQyWkEbPK/N00i48e0UG7KXFnfzJIPyWE5U+OSXGkD6KKPWuixp/KKVBCVV8fOUnnfAP7O3WD6FN8LMXWOeL+n8xkUUhPft8POclvC66+/E3aMOB6fODH6xiOJEjHwhxq2lx24jzaDRfDsyhrIa6+Zyu/yGYoG0mS9hhnd9tcd+QcYpN+MuUpU33yxb3yUr87qdVQ4y2/OqkzFBwE9ykPhI+FfMf/rmAv7Z1SBSip6CRf3OF5vOf23WzwWlQmiWQyNDk5zpyp8b4lzcyMyFd1cmh8+akhvrvHY1xPEHUdVjXaXLOygWVx37MnP+voL8wxFb+bxFKhrf7uf+6rSQS/yUCBYntyD2mdTzGm/IZT+UZCOmT6uZO/IXNPaRA8CS/oXHBnLw9VG3CJ0loZ5dpXZThreoKEoKXmqpBKCQlOThM1fr5vckq+6E+jKVG1p7whKrNpMgnFHwu/fepZkHuJZkPpanxPklI0TY2dhClV2MzPqlABsimd9MtZSINr/+IIBAThLw7py7+hRAnyGnz1mT6+uhXKRiOuZpAiz5xYHVMMr6YzXHYouU1YroFm5Fli5vncCTM5LO0bR/VQqofVV8HLIqhCAJN/lqdQDJwsohLX9sWIUJYlx9VUTFUStSwM7h/Ic8PD/Qw6GTS3zhkzTT52dBdjlss1D/Vzbzam2nionuPqIxo4rjOp7ieeiNv3THDzugl2eS0kKfC33TYXH95Fi+zKzMm0SFksZAGfyrhQbRSqZILnSy99oyQdcKirVcU39Z5mKuFXSK6T7xniupY9taizZXGSjol4TMdRNttBlx3SpAbdV//77nc/9cy3FL5RkeCJXGkqa+anHcruPqSSCjRdtBm+sMvwHEUeNC0yuVSrldC/h+ug6SElTHNdnYdzZa55YoJnShl1zbHRHDesamNpQ5iQSmc1lUN7UjvPmlyNf7xnhD1GM46rExHtgeuwNFbgimMaWdloYD6/sx2ydT7x0CB3jCUpmxB1yrxrlsY/LW2l0RBXtp8lIXFz+0XKedm7Gq6ljI+rvD/+oi0uf12aI18Ud7iSluiq3yqbQkzI71JhpQ1K068Q89svIspJMaZKtBBrNUlO1I/o7MXkvT99jk1Gsxrvw7Tn58sbe5it+y2sYfD9zcN8dUORcTI0eDnef1iS8xa0EpmMqMsYhdV8m1IliObDj++L5kPG3tMsNFHrKxeCmJ+pHCHdzxzxwHBcpccT7Y1cJ3NIjJVP2WTsYI/n8Q+/7efJcgpH91NQTddlpjbO+w9LcVZPmqQGReBf14/zrW0Wo0aaiOtyfEuN647IsDAypb/xvQY+iVL0fIqtqWwlT5FFP1Dog+8/A/J/SxMCJcbbUbNS6GpI5q0rf5PumErj49iuil74ckj5LX9DMP78GvL++4e4Oyd+mCRt9TGuPTbDG6aHiU4SElkzwopJT2UiyeMnc8FRehCPkEqzlXkiz6d6DmUUZK4r8aV8ZuFrGcL+PFLpqgaaPbl5URmr8pTIJzr1yYSWmGZjKuRDfgJwkDb58o3JX/gbAUH4CwP6p9xOjExBCML6Qb74HNTNDJpjs6jR4qqjMzRrMO7BQ/vyfH9dhWy4BVu3SNULXLIgwgeWNEgms9qtVUXPoOlMeGB5IJ7NpNILQBiPsDB5TURwLhXPY9DWeKx3gj15j2XNOsdNayCBR84zuGu0xKaBPPGYyau7G1kYthn2wnzs4UHuGYlSNw0WxvJcu6KJVY0xxPZH8BhwNR4erfLUYJlmE06dnWZh1BcnWpMLtiw1piICyvmsFoqqEvHJHsgj7kqbhTQYSHR+zNXZV7QYKVuYhk5XIsy0uEESRwn3pHcqFd23EX5OyORCVhdDLuJJT+4lYjPpv07M9Ygrg+6TpJQGMU/JRHG1MBW1eMmy6xJV5AsqhkFVFkYg7kHMdsAwFQHxTJeqGFFXp4hOSQiF3NPQ2DRR4lNPjPN4rQHDdnlVPMsnju5gcVoIgngDQpPZIL7gbW3e4oP3DLFba0aWYGV0NYeYm+e4VInrTprDNNMj63jc+PAwPx+MUjEhaZc5Z47JxUtbyCgMXDUfip7O7vEyZcslZBi0ZaI0haHN9Xf8rim7TJ2KIog+RtJfU9MUTvIqKtvmkfA8tTsWUyUEQ4xAeVKc5wtUxdCijI6QNXlPdpIxz1Ihpn7CvP0n21kfblaC15X6OF964yzacQirnbs/h+4dKrNttMT0VITTZqSZEdaoC86K4GlKrCu4h0QMKLirOgS+yRXzGHVqGHoIR7cpeyY5dHZkq9QrFobu0dGYYEZIJ+1Z/rxR9EBXXgef+PkEaa/r8b67+niylMSWp0gzVZ2GuF3jMHOE60+czvKMCCpd/nV9ka9sdRkKRUk4NU5prnH1EY0cEhfiY+KKt0nz84xEo2KoLAgXSzI2xLgrgiViVJ9oyd8tHTUPxXOWdCVsZVKUhEUx5kq46hGd9KAVRG+gQl7+vJZuNYkRdz3GdJ0P3LeX+4pRanaSDq/AVcdlOKk9imVp6hkwDI9mXdaJOkJ7xTsmrhfXcCgBWdtgb65MtmYTCZl0JiO0R+W5sYjpOoYTomq41OVZd+SZF1+Fja7pVDyDqDwPrq08NkXdYEfR5tG+HFXL4bSeJnpimnruFa17kUbjT1lXg+/8+QgEBOHPx/DPvoPsy0rofGdHgU+sq1AxkkTcKstTFf7PKV20u7KAOOzzTD74m36eKCeV2zniWrwmk+Omk7uIATtqDrdsGWfN9ixDbh1LM4hbLosyJmctbuOY6RmaDAg7rvJIrB4r883H+ngua1DSwyxP1rn82Okc1hhh7a5+Hi7UMKNpqpUKM8IWpy3o4tmixmcfz/JMLq48DZ3REqfN0JiuVUhbZV6/YBabRiZ4OlfFi8UxahUVMz96ZidP7h7k6VxZqdHjOLy6p4OFDUm11Xmyf5w1/WMUtAgJ3ea13U0sbUlT8nQeGa/x46f6eWrYoqbHlIchrVc5ckaMty3tZEUqohZKcWEqN7la2MVlL8p3jzoG22sOd2zN8vCOLKMVD123OWx6gqMOaWbH7mHG6yYLm0Mc193EjKTJlqEcDw0V2FZwKIxnedPy2cxoTnHrhj4e31ehbNnMiJmcuaSVE7oaacNBBJ7bbZ27t4zxq+15hqsGum7RldaZP6uFR/bW2FiMKdJwQjrPDUe1Mz8ZUuJN5TmZcs16Lo8WbD54zzA7acTTxCjpOGJQvBppp8BbZsGHjuhQ3/nsowP8sDdMPZKgoV7gwgVh/mFRmgbNYcTRuGugyo/X7WNbNYTlmkQci8aww6q5jZy3sIU5Eb9wjpCIx8Zq/HLTABuGa9SsOjMaDU5c1MXQQJ4tIwXam1N0mRavm9XCgpaoCln02xq/2TvBb7aN01cwcN0ah3aEOWHRdHbsGWaw4LC4PcFJ0xtoS5g8XfP46G9H2aUn1Pdn6gXecmiUULlMdwSOmdXO/dv3ssPSCcWiOJUqRzbGWT6tmbu297KzYGEbBimrxunzu5jTEKfkedy3c4QtowVqGiQ0j7cumc2MkMYEcO9Qlf94qpct+RCGHsUyiiT1HK/tbubcRTOZGRNCIIJJ8ZZMehAmCcK+5wnLP9y1hydKDUqgKzqCuvKuaKStLCc317nh+Gm0mB7fWp/l89s0hkMxmuslTm+1uHxlK20xg3t2jrBhKIdrGiRci7MWdNOZiiiy8dttAzw7VsAzQ6R1l1d1t3BIS4b1Y1U2TNTZM1xkeHCE9544nzHb4/Zn+tg0VqduGyxpiXD28k5mNoa5f9c4t2+aYKhgkDAdlk+L8o6V05gbFYKi8U+PDPPLAQ9Lb6DZq/DWpVEmdg3xTH+VQihMzKhxRHuMdy2bzmEJk4ToRnQRHMOagTw/WN/H+kIIycvQvBrtIZuTezKcvaiF7rDHeN3g3v4JNo1WGBiWLJ0cbzx2EXv7x9k+nmV+s8kb5nZRc01+tmWE7zw9StZIqXu9Y16Si5Z10KQ8dC+kdf/ZC2xwgz8ZgYAg/MnQ/eW+KARBdqs/3FvhY2vzVEIptftZmSzzrVO6aJMKedgMGiYX3zfEfRMxarpJhDonJArc9Jpuhos1vvzEEHeNmlRIgCFuP4m7C5GoMt0Z5t1LWnjz3GaaDXhorMZnHh3k2aqI5mLI/qerPs55C+KcvriDn2/Yy5c2VagZTehOnaOba1x4zAw+t3ovj1QyWEZS7YZ0CUs4FUy7ykJtjJvOWsKvN4/y3S1Vsp5BxC1z2jSd9x7ZzTcf6ec3I5IGGSVez/PxEzp5/fQ0NRe+++wI395SIqunSJHjggUh/m5JF+tGilz78Di99TCeYagdqeUZShQWdQoc11LlymO6mB/VCE0We5qSgMmuUkIpG3Mun31wL2uLISrhjEpbC0vVSadMxJQURLDdEMl6kb/rqnPe0T184d6N3DaepBRKqgSx+e1xxsfzDNcMLCOufinsunR6e7jm2NmcOC3GeA0+/3gfd+x1yUfblKtbqmF6jkNYFlotSt2VUJDNCZksNxzdwfyEuFPFOS8hlRdi4I8VPT68ZoLN1RiOIg9ikOpouh8marWGuGxFEyfMbuCbTwzx/d1hCuE0mXqODx0W5rx5STVBb92V4+vPZNnrpqhoJlGVtiquDY+wVeG0DosPHTODxrDB3f1Fbno4y4AbwjKFcon7ukpDVIhOTHlvJAgz0yvz4WVpTp2XYaDmceNjo9zbW6QQaRLHv3J5Sx9TIbA9m6pjkrAszphW5fi5zVz9wD72GdNwwhFViRDPIunkCdccXjfD5PxVbXxz7W5uGzap62Gibo139+i8/bDpfPKBraweS1MxInTWx/j4cR2cPDNN4XmR7SdX93JHn44l5KE6wL+88VAOz4S5qzfP19aNst1KYRsRdNtRYlzNMAlbNV7X5nDpqla6YxpRV+a0uMIn428e9HoeH1qzjwdGE5RDccK2BFUcZdgl/Cdem3N7TN51WDP37Clz4/oqI0aKZC3Pm6ZZXLaijUTU5IrfbmfNmEHFiNJUy/L1U7pZ2hqnhMbFt21iTTmBY4RorI1y8ZEdnDq3jU/ev4U7hyJYRgrcOifOTfPMvlFGrRB1LYqrhUjZFRY36WSiGo8P5MiaTeq5F/Fy3MpxfHOdq0/oodHQ+OgjY9wyJN6xGBEsYl4Jw65SMTLURV8h3rJ6jdnk+OjxbRzfEVVO/1v7qty4dohBL46nJQi5daoyL02NdG2CN8yK8cGVHQxni3x27V6eqTZSdyKk4xUaoxqjYzaa43BWj8a7j5zJrRtG+P6WMkNmBtPRlJdhrjvEJ0+ZrcYspMIlf9mU1r/cin3w3CkgCAfAWIvxr6Lzkz0Vrng0SzGcUcbnUCPLt8/oplPFhz2223DxXXt4upKhpovxrXJmi8Ulx3bwi82j/MdWnSEtgeHWSXqSguhRMkwVCgjZFRZFK3z4iFaOa0/wzafH+epWm2w4RcgtsSxtcWZXmCNSBoe0p/jFrnGue7JGxWwhTI3XtJb4wBGtfPahEVbn4zh6ZFLoKO5DP1ww3xvmK2fN5dfP5fjG5jrjekip78/u0jh3xTQ+//AIvxmS9LYYUSvHTSe1cHprhLwH392U45ub6oxqGZKMcd4hdU5ZMJ2bH9nG3aNNate2uAnmNJoM1D0eHKhT01M01CZ4z1yTf1zeQVpcmUJaVDRUlnCNfsfki2v7+FlfiFykAc2pE3UrxDWLuuNRNePU1A5do5kaFxzi8vYlLXzzyQG+vUPc6mlczSTkVYhQQHdlv5+kZkQQxWjGyvLe2S7vWz6N27cW+PQT4wyHW6gbYWJ6ngbXwXUM8hjUDCEDBiHX4oTMBDcc3cm8RFjVh/AFW1OVDMAnCONsqooszyRJmdZ4jcGyTpWocj8fGitxzhFNPLG7wi17TApGjAYnyz+tiPH3s5PsLdlcv6aPtaWkEqYe0SYZASG2j1d4rhDBcuN0IHH0KCump/jn+3ayttCJHRKvRoXGUJ2YkFdPY8IJq3ETN/50r8hHloY5YXaKH64f4dvbHbLKJyTu45r6k6VqB+hUQhFVzyBtF3jbHI+/mZnh6nv3sUfrxFZaEimrLOm6BeKWx5ldOhesbOAb63r5UW8Y20gQtUt8aFmY02emuObB3Tww1qKMbJs1whdOaOakdjF1Olc/1M8PByJYZoSG8hCfe+1MZsd1bniwjyeyYoJgZafJ9LjOtgmL5yYiVMwErQxx0aIob5/XSEZmze9KVPt6mb7n0y4vWbOP1aM5zn6aAAAgAElEQVQJKkaMmFOlK+0xViyRc5O4eoSZWpZzliQoOSH+fUOZUVKEnSJvnulxyeFN6CGD9/1yC+vsFgmK0eVM8K+vm8ZhSamboHH+Hbu5p9KMa0Rptca5YmWGN85K8Mkn9vHvvVEqWlSFUmKWKDQkAGRQ1aKUdT+0Fvds9YyLHsDRNap6RG0iJFzSUx/k5lO6OSQV5ppHRrhlMEJRj/hhIKdCs5vHNSJMYFI2ouhuhKZ6lZPbx7jkqGmUbJ1/umcXm6wmIrrD8laDOQmX58bh8ZyERUK01XJcclSClZ0pPvv4EHdOJPFc0TqIn1GeRYNwvcoF8wxeNSfGl9cO8Fi+hWooTBMFTp0e4ui0x1EdMXpSUZ8SBwThr26dAoLwVx8Cv4yJLBI/213io49NqDRHMSWyo//U66fTLp+7Hr/Zm+W7zxXJay1KtJRwi1yy0OSI7gSfenCApwpN1MLQoY3ylkNaaYsYPDJY4t5+j0ooSdop8a45cP6yFr7+6DDf3RsiF4qRdIq8b1GI8xZmaJ5ULP9yqMqla8apGA3E3CJvnm5z/uEdfOPJEW4fk5QuiXpCUisyIwIpz2E6ea48ZT537cjx5Q0VBs0GElaBd3XVec/KGXzuoT5uHYhj6VGido6bTmzkja0RJM3/37bl+PKmGlk3TdrLcU5PnZmNDXz+qQkGSTNby3P+0gzHTU+xs+5y44OjbCnGVLx6obOPr79lMbM1m5Br4hgiWJM4qMt9YzU+8fAIW60WFQvvMPKc1hNjXtqkr2hx244au5y0WsBatQk+sijKWfMb+MHmAp9fX6IYSWHaHm1Gllf3RGgIh1i712VDIUbB1Em5Nd4zo8I5S9u5Yc0Qv841YBmWyiY4YYbOaV1pahb8am+RR0YtbC2J7jic0DDBJ46exry4EAS/qI7oJFRMH3i86HLJpAdBjEGXN8yZS5t4eFeB9TnRf6QJeTWWtlWpuTrrRyNKc9LsTnDF8hRvmZ3h57sm+OSTefKhJmYaI3zh1d00hTQeGa5x8zMW/dUoYT3Hqe0Wi1rEsJXoc5tVCmVXKMd7Dk+xOGWyJW/z3Q159pSjWFqMDqPEhw+PML81wUfv2sdGt0HpERqcHK+dG2dBY5iRks09u0psqUawQhEyboVze3RO6o7y1ccGeLiYYUKRTIM4VeamKsSqVY7viHHGYZ1869nd/HhfjBoZotVxrnhVI69pi3Dlg3tZPd6sDGOrM8FNf9OoUkWFWn3ikX18f0CITJxMZZxPvnY6+XyBzzxRpKBnmBUqcOOJHXRGNR4YrvD1p3LstBsx3RJntNW4emUH3WHRZk7tXP3UXSEIH17Ty32jSSw9Qbo2zNuPaGD3UI41AyFyegMhr8yiVJFMKsXGIYecFyViV3lrN1x0eAP1kM4Ft2xli9uuQhNzzSxff10XC0IeNeDcX+/m7mojlhGjo57jypVpzpwV41/WDfDNHRplI0bU9ZgbKXLawgZqtsYvnyvQ62aUviMqv5+xOHV2A8Wayy1b8vTaKTwjTI87yr+c1MLchgjXP9zHrUMmRV08IS5zIzXeszhBygyxbqjMnXvqDDhpJV6YFx/iw8sb2Dps86/PWVhGgkWJMh9ckeHQTJiHJ+rc+HiBvnqYhGdzbHSYK1+7gK88NspPh8JqPocdg6icFUOFlFfn3d0mRx7SyI2Pj7K21oymGywM57jiiAzHtUTJqHRrS3k/D6SzRA4AM/FXaUJAEP4qsP/XHxUxkVQ3+/GeAh97bIK82aaEY2G3SrOdJ6pZSnw4EU+RdyTeHkJK8fXoI3zl5JkMlS2ueXCUAa8dgwnO7nG55PBOMhrsrLq897ZedmoNxNA4pnGCz5/YxepdeT71eI7BUALD8VgRLnLNSV0sT/jM/Y6hKpfdO0Ih1ojhVjivR+eyw1tVPPfaB/v41XAC3QyzMDbOpcubWNEcJzpZCvin2/LcvKFKHzFSTpn3dNU4d9VMvvTgLn7al6AQShJyinxiVYq3d8couPD1rVm+trWqNAgNtsW7eyT1UuOHOzzyRoSF8SpvFQKjuey2PH65vcyenEPYi9Bu9/K5Nyzg2ESYmMrikM24RV4P8+/bJvjiZo0RLUaoPsFb5xp8YHELXYZGznH5yqYc393sUjLjNOkjXH14ktNnNnHbzgIfezxPIdJC0q5x9kybS1Y0KkP0g615vvaczbiRpKle510zCrx+UTMfuW+YZ9wmtcObFxrjuqM6OLExpkR8vxqpqDoIewpxdN3kpHSO64/pYHYiTNjx00td3S93LZ6fJ4vw4QfGVIhB10LMtoa57uQO+vNVbl6XZ6/WgqUqXVYmVZlTxnaca5YnOGNWhhseHORnA2EqoTDLWspctKiZerXE+nGHO3fY9NZSWOE6q1J5Zqcd7ui3yemNmPU6f9tjcNmSZrpMh8G6xo3PDHPLbh3LTNJl5LlsZZyIHeb6tcMMGM1EPIuTO6tcsqKdWREpGiQ4TfD1jWWG3SYyRpUPzPM4/9BmRp4Xhf7TnaM8UA6pUNhyM8vnXj+HRvFATCr2v7BuN9/bGaJuxkhXSlz36jZOaDS44ZF93DGeoaTFyNSGuP6oRv52Zlx5K65+YJifjZhYWoiGWo7PnDKNe7bt5dbeODWjgUWZKpcuTlKvVnmq4PDLXRYDToKIbXNsqsQNqxpZEtfRdVHfT5bBxlX1Ay5e08fq4ZjyiKSr43zmuGZaYxqfXzvEk/VpSkgoxE93a2iGiHEjJJwqZ8/w+MDhDRRCOu/7xXPsctvwtCjzzFG+dXo3c3ApaB7n3bWN+6udKs1wpp3lqiObeM2MGN/YOMqXNzhUIili1RyXrkxy9pyU8iH8w23bedzpVAGqFr3AFSsaOGN6jL5yjWseHWLNRANeKEyXM8zNJ7SzUAjCQwP8cihMlRBRu8BFy1NcMCelhMlbyi6ffrSf+7MJ6nqUtDfOhctibNhX47Z8DNcyOLpJ500L4iSsIuuKGr/Y4TJuS5aNQY/VyxffNJ+vPzHGT3tjuCGdRqvKknSFJZ0mKddiZUOC6a0xldJ9x3gjdTNMs2tx9lyTCxem6dDqmJJWIgeT/YlFsQ6AJf3/myYEBOEAGErZMcoy/6NJglAw29WjITnhNjYxyfBzoDyZNhd3amq3+44Fcc5Z2Mb9e4tc/2ieYbOVsD3B9csN3jGnRVV5G9R13vvbfawrxjDtEIuT43z91FnYlsuX1w1x64BDSW8ibNc5qbXMxSvbmZMwuWewwkX3j1OOZAjbZUUQrljRSuH5eP1Vq/dy+0SDEiodGhvnupUNHNcommco6Rr/uTXLTZuq9HoJGpwK58ysc8HKGdy+ZYzPPFsjG05jOBXe0mFx1appjFRtPrdujN8My8IaZZZW5rxFIXYXbX64TyNvJEjV6yQk3coRQV9V5Xl7ZpiIKe7afj7z+iUcFnYIabJ0+snWRUy+tTHLzVs9xjWDRs/mg4sjnHtIipSHyjj4/p4iNz9Tp18KxzDBVcsSvHFWC7fvzHHV4znykwThgnkeFy1pVDv8H2zP8/mNEg5JknKrvLO7wsmHNHHVmgm22gmVWriiscLHj8iwMh5G0z0eyta45vEJni2mVdqZEITrjhGsfYKgagZIfuEkQXis4HHJ6lG2WHGVJjnLGOXTr2pnXlOUf31mjB9vr5I14thmBNMWXYOklekqPHPlijinz87wsbu38tvxDFVD3NMW6bpFjYpyQRtaGMNIEdFyHN1UoyGe4uf7ImS1OBFnjLfMM/jwohZmeDUGnAifXp/jlj0eFTNCl57loytSVKseNz6Vpz/UTqKa5dzFBhcuaqbVE12Hxi8H63z2qQL7qmkSRpEPzHW5cHGzqhdwwa/6eLSaUMWIVul5vvamWXRIiWhJ6dXhs0/s4zs7YlTCMRLVPP98Yisnt4b43sYxvrbJphBpIEqOd3bBB5a10Vu1ueyefWz0WlQdgFluls+cNo3vPL2H1UNJalpMiXoba2XlsZJMDfQIoYhBzCtwXIPNJSu7mK9CPpIN4xME13UZQOMDqwd4ZCxB3dSI2eNcu7KR13dnuGPnODdvKNJnNWGL5scUkieVIk0SboW/m+GoEEPWMLjgF7vYSYsKZ80Jj/CN02Yzz/AoAO+9cxdrqq2qzkKXl+OaVRlOmBbjW5vG+PJ6h3IkRaKW5dqVSd7S4xOEc2/bwSNWhyII00NCcDKc2halr1rnqseHuWs4iWMYdHuj3HzCNBY2Rrj2oX5+MRym7sp8L3LdcQ2c0R5TGSeDzxdn+9ST4/x8n0ldi5HURvmHQ8M8savO6lJEPZsJEbg6ZbR6haIZpWaGMUMeMdfhMGOUa163hG88PsTP9pmUI0m6tBwXL4tx+swkaVdCkbLgetw/XOHTTwyxyW5UG4E2t8Q/LknzjrmiQfI9aq/UWRUHgAk4YJsQEIQDYGhEgigpRv+5r8DVj2QphNrUQxT2RAZUxHTFVScqdlV6h564y2t6kpw1r4npYY3b+y2uWTvOGI2EnDLnzbN432GdJHHZXve48Dd9bHXSxB04JpPnxpO6aNUtnsm7fPrxMR7OpdXi1u3luGhpjLN6GnlgqMLF949SimaIWBXe26Px0RVtZC24as0+bptIq0yKhdECV69M8jfNEnKQ2KfGT7dO8IVNVfaSpsmu8q5ZNT54RAf9JZfL7t7LJitNXdeZ6eX4h+VNZC2NH2woMeSJmtni6ESBy47t4Lc7s3xnl8a4HiPjVOlJanTGHRoNjybTJRGLEDU1ekybk3paSKsStpJCpRLwKGke33muwE2bLcbcECnP46zZGu9f0kBnWGPc8fjG5hz/sdUjKwTByPHRw2K8qaeZ23bmufpx0YM0kXAqnD/P45LFrSrt70c7C3zm6SqDWpwEVd420+IN85q58r4RtlgplXHQFSpz+Yokr+kUpT/8VioDPlVmtyPkqM7xmTwfP7qdeYnQJEHwJgmCXwv/kbzNRfdKFkODMvzdxig3HtvCcS0RdtV1bnpoN78d0clGmzHtsCrLLQV4muwxLj8iwRtmp7l+9R5uHU1SNcPE3BLLG00a9TopqXwZ8kgn4yS0OvMbQoxXDT77WJV9pNH1OgviBd42N86ipghbsjb/vtXiuWKUashghp7l8iUJVfTqU4/n6aWRqFvnddPrfGR5C7PDMOrq/Pv2At/eZDHhNSjh6YVzPd6/pEkRhHf/fBsb3EaVB7rYKHHzGd10qzMkPCq6xr88uYdvb/dFgbF6jk+d0MIZ7WHWDpX45KMTbLYaVA2N+cYYZy/NsHmwxO37dHJmA3G3yunTLT6wopmvPLaPWwcSlGVHr9VZ3uiSMVySIWgIuSSSYZK6rUIpK1rTNOimOndEsjqkdoAY3z4PLrh7kCcLCV8vUR/lYysaeeecDOMu/J9n+/nPLRpZM0PNkBCFXzUx4RV5W5fLpctaKBg6775lJ9u9FtXnZm+Ur57azYqEzpjj8sHf7OPRml8XYgZZrlrVwInTY3xz4yhf2eBSjqRJ1Ca4fkWCsw9Jq7DE++/q5+58SmVfTDfyfGJVA6e1R+mt21z1xCh3DsZwDZNuVzwI0xS5vObhAX4xJKoiU4krP7g0oYyyBGm2F10+80SWB8cSSoDcYo5z/mERntpT5d6sRkVL0aTBIfEi06Ie8bBOKuypNOgGXWNuzGPR9CY+99gwP+uDqpmmyyjysaUR3tiVJu7aqk6JaFUk5fSX+4pcu7ZEMZRUtRdWRHJ8+dTpzDL9o7Ynz5A9AFbog7cJAUE4AMZeCo5IXvOPeotc89A4pUibchkk6hO8b2WGpGyJpJqIqxE2XBY2hlmYidAshQeAh3M2H10zwM56kxJizYzkeNOcJK0pjSf25LlrnyjcE2TsImf36Fy0oo205tDr6PzzYyPcMSCxVY/GWoELDzU4d1EbDwyXueS+IQqJZqK2zd9Nq3L9UdPIPv8D1z3Yz+3jCSxdo9mt8MZuWN4RpZorsLKrmUcHK3xxU429XoZGRwxojUuPaCWMwc92F/jikzn6tIwiOx0hB8cMMVoTsZNJS7WXy45q4w2zMvx2Z47PPlmmz2giquV49SydMw9JMzMmaVYaWwazZEeznLV0Jm26FE5y1UIjym4xyhXD5c6+Ctc/kWefl1Eu4E69zknTobvJor+sc+8eh912WvWlyS1w2aExzp7XwB27i3zs0XEqkSaidoXz508SBOAnOwt8+ukaI0aCmF3mHTNd3rWslRtWD3BvLqEyAERYtyxd5VUzI1iOy8O9FuvzccqGKMArHJUqqDTHxUlTFfxRCZpSjEgKDnkyppYiCHt08VrodHmjfOZVrZzYGlG72g0ll+se6GVtLUldl4wFKZHr0FHLKoLwxtkpvrcly1eeLZM3k8StPOccnuH4zijNURPLhcf2jOGWK7x5WRf5qsM19/TxSClNMSypfFU6tTrC+3J2naF6hLorhYKgw8xy+eIUs5pCfOz+vWxzm32hmlHk+A6NxU0ug1WD+/bV2FpLYpGmxSvw3kNcLlzSpIqCvecn29isNVIzdFrcEm9bHKUnHiJm1Vk4rYH/2NTLd3dGqRspYvUCVx6T5p3TE+Qdl69vnuB7213GvQwxrUBLtEKlZlLwhEzB/GiOy1akObo9yk+25/jCEwWy4QbCns3bDzV59Yw4jRG/Wt+6XcN45RpvXDKDdt0jIvWgdEn79I/mluep1/U47+5BnlZlsjXitRxXLotxzoIm5TXrFU3M2mF+O2Ao0a/cV8ScSW+Ct81wuHRZG07I4N23bGOj14ylSWZGmbO6NV49O8XWwTw/3FZlt96kKlpKBsFVqxp59bQYX984ylc3epRCCZL1HNcvT/DWuWkVkrzw7l7uy6fVXJcqmzcc1cipHTH21WyuXjfGr4Ug6Caz3WFu+psO5jYLQRhUBEFExqZj0yOVTufESIdsNo1prB7WyTkxTFdnTjzLh45IsX6gyL9tr1A1pLaGzenzNU6dlaTdNKjaLk/1jirdwBkLpuM6jvKU/XxAKkbGmK5XuPawKGd2pYh6tiJYVU9XdRK22Bpv/8UgY2ZSHSzWWevju2fM4rCYn0lysBwNfwCYoD/YhIAgHACjM0UQvrNtlM89JfnITXhajYbKMD/++/lMlzJAk0feurpGAlsV+FFF6uRQG0vjS08O8dM+j4lQk/I4ZOwyulGn5oapahklg5yjj3DFqjaWt8R5ZM84q4fKPDzm0We3UddNuq0hPiQehHktrB4scdH9wxQTrYSsOm9sKXDj8TPJ2R43PLCPX43HKes6ppZQIsaobtFmj3D5UZ3KONy8oUa/J27FMn/bZXHFynYVY95jw81Pj3PLbpe8kaSmS2jCIexK4pVkPHhcumKGOtxpd8njI3fv5jGaVapgyq7SE/HoiOnkbJc9UrrOKfGR42dw+rSYUs+HpBCUFERSVSQddlsaV9y3hwdLcRVX1bwIMbeMZ5RwjRSWI8lgIVWGV9Tc/zgvxLsObeTW3UWueyJLxUwTtqpcMB8uWdKq9Bk/2eV7EEb0OGmnzju7LC5e2cZPtoxz01PjjJkNyosg2QkJvU7d0Ck7CTTJhnAl+FFlRabM9ataWZbU1VkMUqnRL9EsBXM0HszWufjeYfZpQhCgyx3nulXNvG5GXOFVft41/+s+m88/McxW4kpAJq+2WoHLl0s55hSb8hYfva+PjY4o56FZzzE9XKQ5kWJswmbMidFMhY8cm2FFZ5L1oxafFPGnFcYyJZMhjG5LMZ+qqjtQd8QRrdEeKnL5YTFO6E7yqdXbuG20iZKeUBUtE6ZLzM6rHa5oAWSnarlh2rwS7+7R+ODSZko6nPvTLWzUO1Q2gmk5NLhjRA2D+YkS7z9qGvfsHuB7OyU7IUHcKnHJyhTn96RVpc/nynD9Q3tYXcpgKaGjPAsehqvT7BZ59wKD9y5socG0WF+EK+7u5RnRbLgmbc4YXWGbpliY8VKZYStJo1Hj0qNaeM20BEmVAjpFEExVVnuf4/GuX/eysSaCQJ24U+DiBToXHtquimVJZc0nizbXPjTEunoMS/bjTpiENsbfz7C5dGknkZDBh+7cxQP5KOVwCstzaBQvmFXAdQ1yWpKcoWGKZ83Jcu2qZkUQvrF+mK9t8iiGEqSsHNevSPHmQ9KUgfN+tZ219TbV906zyMePauKUthh7K3WufGyYe0ZFpCgEYYybjm9nTnOEj9y7m7vyEh4MKde+VONMeGWieo28G6GkRzEcyLhVXt1R5J+OnsFAweHDd26jP9KiCkVlvAJzYjXao2EmCh59NTlLrsAXXz+PmYkQn3hsnJ/2aYooz9ALXLsswRldSaJyDoen83S2zOr+PI8M2aydiFIyY6oq6XJviG+cPpdZIk0RPdMrdBz2AWACDtgmBAThQBgaV0opa/zrhgG+ssGmGBIDU6GpMsQP37yYBVGIeLZfN9WQkr/+mQBSO1323XVMHhu1+NLTA6zNmirzQA6A8muex1SFvnZ9nLfNiahdjzx3H/v1eh6qtpKTwkN6iKRV5zXNBd6/vJ2exhh3DRT40H1DlGIthG2L09tKfPb4WVRduPHBvfy8D/IRcUXG8aSkr1tnnjfE9X8zg+1Zi6+trzHiRlSe9ZtmelxxxHRa5AhpdB7J1vjS4+M8kY9SNA1lIJN2hcMzVa4+YRaHhnVMwUSHX/aW+NITg4zZkscvQROJDVexvbAiAo0UOau1yFUn9KhiUSLyU1UTEW+CiOV0ld//+cd6VdGhipxEqUuGohzZWyNs2Ex4URwnTEarcP5sOP/wNv5z4xg3rs9TlZoUtsUFCwz+8bBWtdP/0Y4sn3+2rAhC3K5zbpfNZUd2Mvr8wvqFh3dz74jJuBZTQjU5qljIXhwpC6zj2LI7slmSqXLtkS0cmTEQf4irKvT551IIuXhgvM6l9w7RR1qNdYfoI1a28obu5GSpY5shx+T7G0b53jZJq0vgmmEa6mU+siLFO+YkVdXB723L8W/PlRn2EtT9EyiUkTPkgNBamTanzHvnGbzr8C4VlnkwZ/PzZ0fZOm6p7IjGkEvXtBQ7qhpPDUrjwswIlblqeZRTulJsyFn88+o+NlYTFIwIjmaoSnhhLU9S1yhaYnRCJN0Cb5tlcsmyNlVm8SO/2sLdpYwiiWEi6rwPKf28siHLh45q564dvXxvp2QxpIhYeS5fmeI9s1NE0NTx1veOlrhu9U72MQNLDxPSHaLVHCe3OXz4mG7mRKSmgXgZ4Ec783xzU54huwFHl4OVoqqEsnhsxJU+3R7ivB6P85bPUip6cdn7HgQ52RD2OC5vv3UnO+wWhKCH3SwX9phcfPg0EjJ2ukbB1fmZ1Ft4apB+uxnLiRMxxjm7Gz68tJOGkM6/bR7jW89kGTKasUMxXM8h4ZWYEa4zVjUZDcXQnveQdDoFPrqqmVNmJvjiY3v43s4wpVCcVD3HNSszvPmQjCII77xlA09501Q1yWlGiY8f3cop7TH2lOpc+XA/a7INuLrBdG+Um149jZ7GKJffs4O7c+LlUKXFCEsQxZWU4ZBKO5Uqj9F6naWRPBcf1c5RLVKHFX6wdYx/2zTCCE2UvTBOyFXEBCeK4dq0eFk+ONfhtCWz+cwjQ9w2AJVQjBlaicuXxjmzJ03M1ag/H+b87b5RPr9ukK2uCG1jKqTToeU5ryfMOcvaSMrSJWXZgzIIf3XrFBCEv/oQiOLeVaVqf7ZthB89V1DuRNetkqiM888nzWdBQ0wdB2yo2Lqp3JBSvMTWHf8EPE8nj8kzOYs7t46wblRjwpbysVLq1qQjpXPStAindWfUsbl1rc5v+h2+unaUUaI0xjSOaTZ507w0h6ZMVYxnzWiRzz24R9VkiNgWr+nw+MdVPaoE7b39VX6ycZytsk10xBjUaI2HOKJZ582LOlk3WOSHG7NkHYOIVuE13THOWzIdKRrseC45zeRXe8r8bPMIY65ft70ravL2Ja0c3R4nJWVjXTlW2j/E6uHhMndszbE+FyJrGZi6p9yj7ZE6ixo03ryghaMbQ6rkrOw96spVL8WLfXd9QdP5VW+JW7Zn2ZX3i1JlXItXTYuTaYqxeucERStE1HN466wwf7u4kzu3jfCdzWNU9bgiCGfPT/H3C1oV7rfvHOXfn8sxRgzZL57VFeKcwzpV0Zztls7Pt+R5aqjIeE3IQYjmSI1lM1LsydXZNiK18ev0RKuqdsLypog6Nltaq1IdPSmhq/N0rs6XH+5jSGiPptOiZTlv6TSObU/6ZFFzVUndbQWN7z4zxJacS0ULk6LOOxc3clpXQp3f0O/Anb1l7t+VZXvOouBF0aVGg1ZVO+cjWpOcPbeBeQ1SFwHu7p2gYpqEI2GiytUOu6p1fvxcTtUNkEK488w8nzy2kaOaJeve4JHRMv+5cZSNRY1c3aPJ0FjeZtLZ0MCju7JMuJ6qtfG67gTnLJpG0oRf9xb5zsZR+mzx6oSJWCW6UjrHd4U5saeJ32zZy607XepSB8Epce6yFt7U7Z9vIG0a13XlsbltS4VxNeoOPWGX81d2sqI5rI4sF/Gna+gMOhr39Ja5a1uencWqIsVywmZUQjK6zXHNOmfObWBBY5zwlP5AnSugY2s6vc+f1/Dxe7fTZ4vuxiPs5DlrZoq3LO4U340SNYooc6+t8fPNIzzSL1Upw5h6mddOC/HO+e1kQhqbqx4/3TTGY/0WBaIkDZdD23SOmp3g7mcH2VQKYbguzV6Vc1d0sqoryQ+e3sMv9jhKHJq2Cly0rI1Xz2pUIYbr7nmODXaDIqGdhsynDo5uitJfs/nSk/08Nm4qQWQrea74m9lMS0f53P2bebYmpBN1QNO8aSn2jeXoLfmHaUnocU4mypsWNrKiKURaZdhoDGvwqz157ttVYltRV2Oq6wbR5zOQOkNVlrbpvOfQVuIhk2+t62XNYE2lZrY8n3V0zqFpTp2VVhlGounYW9P4xngNPfMAACAASURBVLoB7uqvY0ZidMVNXtMd5Q2z4rSbUlhcAjf+mRjB66+LQEAQ/rr4q1+XlLw6ErfV2Fesq/gccj67bXFoS5JEWEydCLhUEpxyOcvhMrK7UeXxXTkgxS+4UrBddmWrTNTFs4AqrtKVjtIdN4lpsnmzVXbEoBvhib4yRcejPR1mfiZMU0g8FX5RkyHLZdNYQZVrjjoOM2IGsxoTqh1Skndvvq4K8cjfIzi0JiJ0pcXND6OVOjsKFSWbULvfWEgVP4lLVobot7QQOUdj+3iRrDpESac1GmJmKqJ2nXJuhGQCqEqIGlQ8l4EqbM/WGZPYgRAIz6Y1pjM7HaU9YviFoUR/oItYTw4RknuIOZcSyBpZDPbkLfblKhRcj4zpcnhLhrrnsidfwbH9swrnpkO0x00Gqw5bsxW1A5OdaE86yvSohCI8eqt19uXr1OUAGmxmpKJ0J0JEkJLYBnlHo79YY7RqYYlCO27SmTAZLVQZqPmHG0nlhTmNCVrCcly3tFNCI9Izf4cssfZ92bIiM2KkJBAyKxmnLSRhHTk8yj/AR9rQX6oxUhPvjEHEc+hOmLRFwJAzA6Tm/fMiu/5Snd25KhOWnGqoE9U92uKGwq9VaVk0+upw8Z3bKZsGrQ1xGkxd1XDYUXLZXQ5RdiNEtRInNxT4+Ktm06377ngR2O6pOOzIVylZLikDDmmMY+iaSsu0RHzo2kyLR5iZjqrzLrKershab9lWRY4kPNSVCjM9oasDiPrLjmqv4B92HboaksqQyBHK4koTnEdsnW1jZUr/l733ALOrOs+F37XLOWd6k0aFUQcJUWQwGNPcscG4IMC0GBuDSWJyHccptpOb5I9v2v0TO752nJjYj+3EdnxdwTbVgA0YML1IAgQSaqPp7dQ5de+91n2+b+195qjBjBhJU9bmAaSZc/Ze+11r7+9dX3u5BXWAroYEVjbFoftcRkLTWm4rpwR6Cx52k45AQNkvAg0WsDRh4/iWBBa4lMWhBYJ0X0siCFpMKKsEdqXyKLBaJD0jARbWxbCogchdoD06inQ4XAyVJQbz9DyTr0ZhUdzCsnrycCjWUxirKOzJlJENgEbHxuoWF02uxI5kCUMVrV1Be3ba7bckFL8Pdo5rcSR6fta11qMzQcSNmj2VWKOExlknJJY3xdDpKOQVsC3rYaRETzKFJAOsW9DACb3UJGtU2ayb0iQk2poSyHrAaLbIjboabQtLWuvR4Wr9Fmo9TQSV2ldnlEJv3sOebAUZvkELjbbixlN07cW2REHZ2JktYKjoM3ZUgbW6pY5bTbP+CkmZKcHj2zRcQEO9i1WNCaxp1C2m2TPKei2R7uYMeEHP4yEYgjADJp/7/lE3vUiCOWTOmkGTCtyE3DErEGqRY95xslgau7Gpla/uIW8T3WDJV0rW0z3NmUhQZjZbIVJmIyEiOg91S6XyI3L+aw8FCegErLZIcUDBam6WTTKwWoGR/iFfJAnMsChSqCRJBpn7GFIyEl9LKyJyX3UyEhMKz/wtIgsBK9TR+OlF5OgOalRPHsYfddYzud5JpY+EkHwIS5f00adZZpiqF6hMMDS0REtc3vlQh8JwvKzdZCOgVs0kKmMJuNTCmhLKWMWSRIaoXJB68lMZnMWki1WAiTIFPmLKZuNaIo0HfnlSD0wBi5q6sIATfZcQ0j0cCP9AglUyLUlSPlQ+RvdJ5Xz0MwmbvstNokPxPrbVIc6h9K/WpoyxgiB9jyaTOy+GaoNaUFfrUGisKW9AiwJr1UK96yaiQW2mqVST7pNyGaiNNBkAKqHdPJbH79/Tg5Tbwm54yg6Rvs9NfmhVUTfJFXIAf/eO43FuB4VXiKjYUDaLiDNehC+FtFwq+WPPCO0IXS7T1aPUypmsKsr0Ss8BrTPWS6LngLFwuKEQHdSpk6/AfR/0WciTpWWMQ0kiFp/UJE/LKuv7pFbPeilR221NpCv8PBAxY5FtnTHP19cS6PQccQyc4z2Kk0LJQNNaYmlwXsvUpVArgnJjpSDQapH0TOiHkr0apDBJK5X7elJIQwtps/Q4deikMdBzQ0bRY/lVfY+O8KBUOTSpcR4Xj0mLiPMzDEXrhq7n8/noOhZ9j58EOg89f1qlkq6hxcsEVxDRmWiGeB2Grbz120YTMLoOeUa08DONjdpTU/MiOk+gseR7pxCZvg4935EQpPbhEXGKGoXbUBY9X0S8KNglOB+BppgEusj7pltcs4zVhAL2DHg/z+chGIIwA2Y/fA/xi51eWPTGogeZH1PaYfOLLyQJod+NXsJ6vxnK57FGe/hvKCSrd1HabNDH9WuBRVl1nTEbfP1ypxcSvYTIiNKLmd95FL5gwRq9S+H3Hsstc+I07/C1H1DvtuhFTi9Vrc9I56QPafNFSnWhiG1kJjgjnl9lPDYaE+kETBCicPj84g31iPWFw/tmekMvPsIrFGnmcdCLliR/GRpNYvjlo/Sn6DocP+UOhhaHYvSukcI1Lp+SyYzw4VNNv2Wzql0stOIkcEc7eLpX8gbQS1LrSmsBOto7McAhjqTOyOizIdK7U/os1yxQ2IhtRsQKw6+yrdQkkIdCbRLDSZC2nlP6h8bK59V3FpILbYgJN00Ewt8LR8fe+b4FG04qC6W/U+vuwbLEfz7fhyf7xjHqJ+CpWGgkK6hzKtiwyMXvnXE81se0MDbtnEnPgPQfOeFF0hzr8nVJCol8f7ZOIOSx0VrSZFarbep1qadUzzv9hX5Pv9DGXveB0tII9Ae9e+aVy3kChLVe2XRFnhf2MOnnhQwvk6dwqfJ6p99xsihx4QmZ6ggrfQZ9Lh4XD0p77HgtcjkmCaxrjwNzFG2hw2dQ02YmNyyoqRNPiXgQwSAjSfjRmiTzGa4OCMob4snUUstEOXRYMXyS6fokHGJr8k7SzzSzPvVskHROm3tckJHX4tZ6DdJIafOhMSOc6amzWCI9FDbXm4xQDZUJEuEfkh+WXec502uR1y5XezB7g8/YUO8HTRIIR5bcZvpJa5C8LPRtar2sMaAcjwhffc/6/aD/odFpYmKOY4uAIQjHFn/9wIRjoJ03m2t+CqP9wsEDcVWCUBOo40ecjT5nJ4YvN3rBsUUL9y76dRpdl3a+2rLx/ld7Cbjtb2jAeC9Sc9DLlT0d2hiFb+7wevpzTDD4D/QSoH/1ble/APR/q1+ILs+7Zm1Eak/GpoSMAL+g9MjDDWHoZtevLX5VhuNibGwiLfSC1IaZ0QiNh3blawJR+xkpSL+CBKE0OVDcdIm8MBzY0djSOEOCxDtxbZXDGw8nM5oTskKhT4dEo/Qrj4wAjUl7b6I3bvQqjMhZ9CKOFgebhPDG9QyHc8WAhMyw6tHRBoTuRUOqjW34U23wwhNH80+5BORhIONCIaSUZyGTL8PzfDi2QEtjHAtiFlp5qYQGiueGdpXhvj5cS/olz92G9A3yOgk9OXpEGvdwTUQwaG9HODIyIoxdtN5Cb0hIliOSoydWG3G97kNGVfNcaYIwcc/haghHEhmiie+ReBQTCcYj9GJExr72UYj+HHqNqvdRXd+aPGv9cb0z5kct9BDpdUhJtRE/DD1E/Lmap46NrbbeRIomtgYhoWKjS0RpYs65j0NIEGqfJ1q/eksQsoF93gbRE6o9KhOIabKgvVT6Ca4SIP4TjS/0AoZeGT3H+h3GPiEm1NWVUUVRPwXhWmBySGRDN5siEmaOY4uAIQjHFv/QsOgXbvj+CF8v0Uv3EKIloSHnvWG0kdfWOQxAhA9xFJ7QbRS0gdVbu4mHlF+e2lU/sffRL3H9UX5yw8/Ti1Nn2/MpwqZnVVsXSuRGuza9S4h2yKGxqL5qJuyqNmJ6fBGF0N8jT0X4CtFbtXCsIc0JT8+2M3qp6c1c+PVwZx2dLHRt6/HWkq9wDnhXRe9iqoCnnVksBC2aqtCDEt6Xvo5+Seo/RgZH79aiEIykUAvfh9696SvXzAH/VZtEfUz8Ts+ODivxKzYMZ0TnDt1B1fnUhEzv5KJzaVwj0xJeK5r2yPHNniK9G6zqStJOm29Se3o0ZhTBJ5Ap1kHEhVzoEeXQY6Q1pk8/MZv6+iEBZAOm12vVTcJb8Gi9aCLGZ2CyOoEY+yk4bKK37NoTE/KQaNarJE6vPZ7TkHXxbDHWnAqnDVfN0LRB1+swOrRh1HcZjatK4sI1W5216tdCT0kVN31v+jkkD4C+rjau2ohWfYXV561mHUdjrBKryITrm2ck6OThBqE62zUQh36CqidAc+oajwfPia7kiFZ2FYTqJyMsQuzCF1f0DquSz1rizAS3Zv2FhEN7g8LJIggIn5DnmSyECeSP1Z8MQThWyNdcV5uFyAxEj4WO5UaG4gBlsxpWwB7syOYzcdAZ2PoJ167k6OWmTRTtZvd9/U0YJH0y3iVU7Uv0YOvvRMZAnykMfmg/d7i70MYyGoM2/OE98guhaib4Bal30hN90zhcqk+gCUPUeZVtS2RAQuMRvoSqO6Yqy4penuSGps9qN3R0cX7/hgOh/+n9GrnbaZemXcx61OR9iYx36DIODa1OfwjdzDUzOGFVwhev3kBXrRiFZphGVKc3zCkJDeuEKY/CEKGnI7Ry+lz0ItXzEe7XJwhAqP7JRC4cDJG90DSHnhDtkdEo6rh6GKuoYqxzALSzVy+l0O0eRmfohU/GlVZsZHyZoFY9RhOkr8p+q+uOJrm6l50gxaGXZl/yFOE4EXIJV3xIQaIBhnvbyAvFBFeHeyZ8V5EnhZDRz1pEdPWMhziFBkwTgpAUsMMs8s7p7+m1OYGzXlfR1cI1yj+jD+qxhNkq4TMSPQtESHXGBnP1aI0xIdT3x9SSPQhuOE56znUOhvaeMPWpEiJ9Ae1J08EanSPD98S7+8gnF5n0EHVelzXu/ZDwRPkTVWLEm4SQSPCmQYd7NImlWIN+k0Rezeq6j9YvjY3CUmHOhh5aGGKpcehUnyfzh6OOgCEIRx3yuXTBqvmZwTc1fWOcoGsz+HYnNbSJO5nIZQmNUJikyWbS1JlNCs3Jf2g61uJUV+HBPj/Vc0z2Do/UeSd7ffO56UbAEITpRtSczyAwixCICEI05CghjTefhiDMopk0QzUITD8ChiBMP6bmjAaBWYNALSFgh3A1RDBrbsEM1CBgEDhCCBiCcISANac1CBgEDAIGAYPAbEbAEITZPHtm7AYBg4BBwCBgEDhCCBiCcISANac1CBgEDAKTRWDfXBAjVDRZ3MznjiwChiAcWXzN2Q0CBgGDACMQFd5ONMWKSiyp9TJ1WKQeI2HJr0kQNatmBiBgCMIMmAQzBIOAQWCOIsCdTXX/oonmUbqxgAqoQ6FkiediOoO6thYEju6ySVoapopkjq6JWXRbhiDMoskyQzUIGARmPgK14YLaXmNRQyvuPkqNk6SEzOTR++AT2Pzze/DWz30CjetXshhZpGwWNcKa+XdtRjgXETAEYS7Oqrkng4BB4JghUEsQqE04d5sMG1WSABeJGsGX8Lr78cq3f47UA0/DLfuw3ng8zvjSZ4HWOlY+jDoVh71Kj9n9mAvPXwQMQZi/c2/u3CBgEDgCCJA8dHSwB4HbBlNvbAlUfFR6x5B6eBMGf3AXrO5htHpavnuoxcWqv7gene8/H4i7HJYQVrWZ+REYqTmlQeDVETAEwawQg4BBwCAwjQiwpHVVyITkELRylUznMPboZiTveBSlJ15C03iRFRLcgBIULaTiFoJzTsIJn/sYEmu7AFvnI2iCYQ6DwNFHwBCEo4+5uaJBwCAwhxGokgNWNlMQRQ/FbT3o/uk9KD+2FbG+JBoq5GXwWfwz7hOhEChbFtILGrHg9z6IpddcCKuhLtQuMvRgDi+XGX1rhiDM6OkxgzMIGARmDAKUOhCqcFZliSOZaxXwbp+VLQOpcwgCCaRy6Lv9fgx892609eWQ8LUCI0lnR+GHqLqB/l5xLVQ2rMLyv7oR8Q2roWwLDqkxknIkqzpHapkzBhUzkDmMgCEIc3hyza0ZBAwC04iAAijpkCsLZFi6qFWrWcxcyxnrBETkCsg+swO9P7obpae2oiMboE4qeKFktq1VmVmhOfIPcJ8EW2CszkHrRy/Gipsuh6qvg7QE7CCAtAUsU/44jRNqTvVaCBiC8FoImd8bBAwCBgFCIKxZpOAACxuTcZcKyhIIIGFThUKxjPEdezH4y0eRvu0RNA+Po46yDcmbYOvP0UEeBDpqCYL+gUDJAlLHtWL9P3wK9WedCC/uwqE8BqG9B6Y/glmORwsBQxCOFtLmOgYBg8DsRiBqhQggsLTyJf0okBJuoCAHxjB03+NI3vso/C070VYC4uwpEOxdIOPPIYKQHJAH4WAkgX497loon3cSNnzhT+AtaGRSQAmNutGiyUmY3Qtp9ozeEITZM1dmpAYBg8AxRIAKE8i4R4Y94EoFAbvgobDpJez83u2oPLUNdeMl1HkB4gGFHDSZ0KEJAVvqngjELAKy+JEnoea+qLTRg8JYYxydn70WS6+4ADLm8EcdOo8hCMdwFcyvSxuCML/m29ytQcAg8DoQiDoccGIhWeyCh6HbHsYr//pfaB0rooHFFCRiAWBLyeRAUsICGXUlIKTFBIGSGdmrEB61PgElJDwlEdhxjJ7chdP++U8QW7ME0g29CIYgvI4ZNF+dCgKGIEwFLfNZg4BBYF4jwARBkoEHZBCg+FI3Rr/xC7iPPw9/LAOHPyC0MBNbfc0k2GtAPxehIBP5E2p6Jejf6oMJBX1WWsi016P+oxdh1ccvBZoSUJyHoL0RzC9MtGFer8cjffOGIBxphM35DQIGgTmBQBDae5v+YCl4mSwGf3wvmn77EhIjGYzs6YNVqMBWFirsOdDJiDWOgknhQJkNdhjHKMQEsicvx+q/uAEtZ5wISTEG6HJKZiHEVCivwXRTmhS25kNTQ8AQhKnhZT5tEDAIzCMEDtBVCMg4A0r6GH/yRZR+9Cu0DGVhBxKpoREU+kcRo9bJoYIjmfOJQMLkgNOpj1TSqOALgXSdi6arL8CKP7gSdltD2Ls58kQQVwlrJU3oYXIAm09NGgFDECYNlfmgQcAgMN8QqCUIOoeAxZsRpFIY+/49qH9yOxLkNXBd5MtljHb3ws6UdRljGAKYUGaYGnqUi2BTroKyMbq0Geu+8GnUn70esCi7USc/6oRHTmrQXgRzGASmEQFDEKYRTHMqg4BBYG4hsC9BCL0BfgnF325B/of3oXk0Dzmchpuoh91Uj/RYErnBEaAS6GRE6oI4RUg4iMDVEpLzGGxlI+sIeO8+DSf97SehqOyRggxh0ybyOOgujuYwCEwvAoYgTC+e5mwGAYPAHEKgliBw6qAMoIbGMPKNW9D8cj8wloUolFFob0Zjayt3UBzZvReVQgG2r7is8XAyCYlU2JDwLcpHsBAICwONNlZ+7uPovPTtUAknVHok0hL2WJhDuJtbmRkIGIIwM+bBjMIgYBCYgQhwM6SwJTK78ksexm69D+q+J9GSKXHlQoHKD99/HmKwUXnuFViDKQ41uBUJR1mcrFg9JuFOYN0FphWcyQBOQRQ2SraF1IkrcOo/fhJ165frhEUR5SCY8MIMXD6zfkiGIMz6KTQ3YBAwCEwnApwzEOb9EUHwBeBSKwNfobK9G0P/9n10JHOwU1mUygGyaxaj61PXwsvnkbvrt2jcNYaxbbtQSY2z0BJpKURHFD7QyYuHYAtRZmP4f/ZihKQhWx9D7NoLsOZ/XA3VUs/ZkA7FFvgShiRM5zow52JxsP2KcQ0qBgGDgEFgPiOgdBVCZKfpFUk6CzJbwND370LD41tRn83BS+eQbqxDy8fej/o3ngIEHjKPbgIe2oK6dAn9L26HxeqNNQShpnPiIQnCIbCnr/oxB8m1i7D6sx9D2zkbEDg6F4HzD0wVw3xetUfk3g1BOCKwmpMaBAwCsxYBUmqkqgA25uTgB1D2MP7kCyj9+Ndo60/BH00hTwqO521AxzUXAc3N1DkJajSJsdseRNOOAVT6R5HuH4blh02NDgBkEvGG/b4jhYV03ELdJedj1Z98GNaiFqYyRqNh1q62GT1wQxBm9PSYwRkEDAJHGwHyqXLeAfMDBal8yIEkUj+4Gw2bdqJ+MIt8oYhc1wK0/s7FiJ9yApQTo4JEWNLD+OZtKP38QTSmCxjr7oefKcEKFGwRdlgMuyxOtYFShIMvLKSWNGPl33wcbe86E4FDOg2KSyKNTsPRXi1z+3qGIMzt+TV3ZxAwCEwRgTAtUH+L2EK5hMxvnkXxJ79CezIPayCDbMKBfOcbseCSd8FrboANi8MQsCRksYDRn96H+hf3ojKcQq5/BKLsw+EWCiQPHYUwSBJyCoMLIxWWBDIJC95567HhC38G2VYPSWqPRgp6CmCaj04GAUMQJoOS+YxBwCAwbxCQkNy/QHJmoASGMxj80nfR2j0CdywNr1DB6IoOLP74ZbBXdyFwXNiUp0CSzzZ5CXxYvaOcr9A6lENyTw+8bAG2p3sjkHdC5zhMkSDQDFC+gQQ8Gxipt7DsM9eh84p3QyYcWJbxIMybRXqUbtQQhKMEtLmMQcAgMDsQUCpg1UXalatKBWM/+zWcOx5HUzILlc0jG48htvFtaLzwbPh1LlcqRGUG9KfAAUSpgtKvn4V4aDPkaBL9u7oRDwRcXycTUmUEJxZOxYPA0guKpaNJFGrctTG6eiFO/9JnEVvfBWFZumFSWPHApZKk02CSF2fHwpuBozQEYQZOihmSQcAgcPQRiAq6PARwpA0EEuWXdmPoP36ERclxOCMZlEoeSqccjwU3fghY2AJlKVgIoKDzAMggU3Mjtsm7h1G48yHEugeQ6h5AfiiJusDmqgbfErDIOzGFg05J3/FsAVtS8yQbqbhAHZc9XgHR0jRRySDActIU9rC45aIpgZwC1OajIQKGIJilYBAwCBgEON1Ab+c9Ci4oC/boOIZ/cAfqnnoJiXwewUgW+ZYGtHz8Mjgb1kHYDvkL2OcvlNZHoKZIRBAs24KdK6H41AvwHnwGiZFxDL60A8LT544qJKYKPAcwLDBBoGQGzxLIntCJFZ/7KFreehqE60BScyeLPkkVGCQ1bUIPU8XZfF4jYAiCWQkGAYOAQaCGIFCSgPIlio9uRumH96B5JI3SaBIVJWC9/Qy0fPgiyLp6OFKAwhHSJkNscW4AEQTauVPVgiAjnUwj+YsH0fJSP8r9IxgaGOD2yzGfwgFTjC+E1Q8sI03XpiZJwkY6DsQ2no8Vf/xhiCWtHO6gqIdWeSSvhiEIZoEfHgKGIBwebuZbBgGDwBxDQHsQyAUgEQyMYezHd6Phme2IJXPwc0UUli1C0/UfROykVZAcHaB4v9ZLoD87QdhdSSoIX0LZFhOI4ubtKN3+W9Qncxjq6UGQKSDh24fupHgoXCm5MWz7HIlAkfEvO0BmcTNW/OlH0fr+c+HHbA4rUOJk5EcweQhzbLEepdsxBOEoAW0uYxAwCMxsBKpNZcfLyD74NCp3PITm4TTkSAbFeALWe85B8/vOh9VYD0WdFUluGRLS0s58u9p+UUAE5Obn38LK5ZH85cOwn98JOTiK1N5BxMpRI6apYUJJiKHrl//PFRFCoeQ4CM47BSf+3R9AHdcOylTUbZ3DRk8mB2FqQJtPmxCDWQMGAYOAQaCKAHdIAoLdQxj55s/QvLMX1lgKfgCkVy7Fwus2Ita1BHBtDg8oJZkgcEtmodkB/Y3j/+xUsCCkgu0HCHr7kb7lPjT2jCHV3c86DTarMk0+eVAbfNJ2CMMYLNGgYElFLZow2BLHgk9+CCuv+wBU3AmbPVGIgXIUJ38dsyIMAhECxoNg1oJBwCAw7xCgaACRAXLDky1nH4BPcs4KIz+8C3jgabSNZuBncxiuj6PxkgvQfsH5gOuGLRa10qLONiQ/Adl6ShzU8f8wC5GvQbkAVPaYe+IF+Pc9hcRgEqN790KWqbsiJTqGDZlCsSXa9R/qqOpDRAqTXPqoiULWEdi7uAHnff3zSKxdDjg2KBYibJODMO8W+DTdsCEI0wSkOY1BwCAwexDgTH+K01NnQ0o7oJ14RcLf1oe+f/8uFiULiI+kUBQKoysXYdUnPwrV1gpYFhtjfUQEAVDEOPh3YW8D7kWgvQzs5rcs+MMpZG79NZp2DWFk9y54Y3kIqXUawm/WSERNEUuhuG/DSMKC84FzcOqf/y5EawMTHtimzHGKaJqPhwgYgmCWgkHAIDDvECCCQL0BrAAIqOWBCmAlxzH0rdvR+OxLaEjl4ecKGGtLYOGNH4L7hhMhHUf3LgiloHWXI00XyMjTeZgMKIXAsrhroiUll0+Si1/5HvJPb0Vw/zNwh5JI7tiLoOjB5mIDHQKYel1DSFWE4oZNHoCx5e1Y+Vc3ovUdb2QvAqtNmxDDvFvj03HDhiBMB4rmHAYBg8CsQYAMtjbqevdOZYnKqyD/4DOo3PIbtIymgZEMCmTULzgDrVdeCJVo4NCCoC6L4Z3qGgGt6kTnoqZJQpIrQVFqIoSgpkgSAf2cHQ4SKplB7u5HUbdlDyqDoxjt7Ycb6LJF+oeqFA6HJLC4lAKThEy9DfGeN2HFn10L0bUQrtFomDVrc6YN1BCEmTYjZjwGAYPAEUWACAKnFBJBoCsFCn7fINLfvxONL3RDpdPw8h4qy5eg9YYPwl51HDdCEpxvwPGAMG+BCAadg8oZfQgRQJFLgqSiA1Jkop8LBK7FPRGErwDpo/L8LhRvfwQNYxkM7+rmskciCcwhiJSQQT8MlkDkQlKypLBQ6GxF559cg/YPvgUi5ug2zKbt8hFdV3Px5IYgzMVZNfdkEDAIHBKByIPAHgAK0RcqyN73GOSdD6NpOIXxsTQqjY2IX3w+mi88F6hPMImQCNjQci8CogVEDsjoewGkrLDqI4SnPQkVAcTrIWwXwrXhxxzYwoYMPFj5IobvfgT1m7dDjqSR2t0Pp6w9EwGHAujcU5tAuTpvogAAIABJREFU6s5InMS3fcQ8haJtwT//FBz/v26Cs6ITgnsyHHhSU90wNZzn26cNQZhvM27u1yAwzxFgQ0mhBcKBNvXdg0j+521o2tELe3AEvgdUTl6F5msuhr18ia5KsBQkJRwKkkuiUIIA8nmUu3uR3boVmWeehNM/hKAwzkTCVS6sxYvgnrwezW84DY2nrIdobtWhDRlADqeQ/L+3o34gjfHuPnhjGR6QEtSymTwIU2MIliLiQiOTcJSCZ9sYaHSw4lNXY9GH3wtR54aVFmERRpQYaaof5/nT8Oq3bwiCWR4GAYPAvEGAgwSUgxCSBLtYRurnD8C77wk0jY1DpHMYb6xH/IoL0PSWMwE3gYB6KAuy3vRtS3dJHBnG2P0PIPfIgwj2bscCJRCvSPYeUM5BwrdYkCnn2hhvXYjYeW9D1+WXAws7tMxzoJB/9BmUH3ga8YFRZLp7ERQ8WIiFuY9TIwjk0Yi+Qd6HwBbIxBRKXe04+UufQeKklZC2BWnp+Ag5KjQVMYdB4NAIGIJgVodBwCAwdxEIExJrs/gllx/qCoPgxd1I/sctaBhNwxnLIKh4yG5Yi0XXb4Ra0AoLDjybuiUGcKk7onJgJdPY861voO7Rx9FYSMNBUVcs+Now0/m5coCFkmyUZQzjda0ovPstWHH9R2A1doByGa1MBtm7HkJs6x72IuT7R2ErV3dAnOKM6PwDnVNBUtB0lG0g6yrYG9+CU//sevjtDaQYofMnKE+CScJUrzTFgZmPz2oEDEGY1dNnBm8QMAi8KgIHIQjkiA+khJ0rYvhrP0HrMzvg5PLwxscxWm9j8advhFi/DIHjICYFAiIIIoDrKYiyRM9//wjq5z9BZ3kcUpI0tAc4MUhSVySFRxJ1UhXYts/mmMgIdTocal+M+PUfwZIL3w/lORAoobjlFRTveQyNI1n0bdkG19dlDFM127rlsq5kIM8AazUIoGIBqc5mrPzL69F84ZthCQc+N06ibswkVT3VK5n1Np8QMARhPs22uVeDwDxDoJqYR9UBYQ8DgkCUfeQeegal/3sP2rNFqOE0MiTb/O43oeOqDyBIuGxg7YDIARUtKohAIv/Ec+j54pewtDiCuF/hkEPFFkglmlDsWol450o2upWeXWge2I36yjhcatEoJfJOM5JnnYOum25CbMlyiKCCIJtB5pePoX7LHgSDoxjb1cMmm3IKpnJEXoewzkK3fw61Giq2hdI734A1f30jnMUdsGJOFQu+lqlwmArU8+qzhiDMq+k2N2sQmH8IVKP53MSISgUkKnuHkPru7Wjd3osglUYlV8L4yiVY8ruXQ6xayl6AsMsBfKFgU3ghk0LPv38dTY/8Bgk1Dod6IigHA7EEvLe/F11XXw53wRKAuhcO92Hn/7kZrVtfRJMoczOkkpVA39LjsPBTn0DLGWdBUBtkoVB+YRcKdz2CpuEMxrbvQiWbh63IDzD5gwlM6C0hrYbaDAbSh0h3NKHjD6/E0ivfDZFw2NXAn6nRaTAVDZPHe7580hCE+TLT5j4NAvMQAcoHiA5qO0wEQRbKGL33UVh3P4a2ZA7jY2Mo1tej7gPvQPM7z4aqI30Eyh/QwkseqTZS6eCzTyP5ta+hs3s3bDKwIkAFMQyuOxWr/uLPgSWLICyHKwmULCJz14Po/dZ/obWcg0O5DMJGb1M9lt1wHY674N0AhSNkADtXQPpXj8F5+mWI0RRSu/sgKiGZqW2+HLkFDjKPJB5FY64NGERtnz0hUHFsVM5Yh+P/9ia4a5dyAyciBFJKVMplJOrqjKDTPHw+XuuWDUF4LYTM7w0CBoFZhwCHFgTF/nWcPSovpF17eXsv0t+9Hc17+qEGRhAoF8VT1qLtmosQW7ZQlwtSMiJ9yfbh2QJOSWL057ei8v3vYXE2y6WM0raRdpqAj30EnZddCs+x4SiLQxHClij09KLvsWfhygANjfVoaGmDtWARnKWLIZobOQ+AxklhDApx9P/gDrQPZZHt7kNhNMVJkdQZkUsqw3wCDjwcrMBhor3jvnNFGFCohDssOmi9aSOW/u5GyJir74/aOFTKiCUSrBLJ/Rx1B2lzGATIKzXFglsDmkHAIGAQmOEIRK81MvbUxph22OyCL5Ywesv9UPc9geZUDn46i2JLK+ouuxAN520A6thZDyidbCisMjzLgpspov+b30LszjuwQJa49DEQLvbGW7DiC/8bsRNOgaJYPlldynWg61EIgZIOKx4QB6QrICqSPQfS0o2WWMuBkgX9AONPvgDvnscRG05jrLsPKFUgAgWbRaXBjZAoVDGlXsxh62Yy+gVXYHhFK8766l/CXrsMlrA4ydK2bS0sRd0eDUGY4Sv76A7PEISji7e5mkHAIHAUEKgSBGiCoDsj+ai83I3Rb/wMrYMpWGNplCs+Kueeio6rL4Zoa4J0IsMdBfI9BJaNoH8II//2NbQ+/hjqUULZDhCoOAaWrsKKv/1fcFrbURoagZdJA57HO3CrvgGJRZ1w2ttZJppCD4I6LSoqm7Rh09aeWjE7ertuZ/JI/+RXqHu5B+M9/ciPpiAqAbdO5oTJqZKDEGc6O0FQsYECeUMuOQ9rP3cD0NZApQxMFBSRmf3UKI/CNJlLzHAEDEGY4RNkhmcQMAhMHYGIIARKsiudTXA6h6Fv/QKNz+6Cm8ogGC9ivLUJrb9/KdxT1mgPALUxCt3rpKNAXQ0gbIxv24bhf/0KOl/ZhjpZRtkJ4KsEUmtORseHrkJ6yzMIdu6GGEvCqlRY+tlrboS9vAuJU9+AhW95K0RrG6RNuQu6U5HNzZoEKz+Sp8Op+PC27ET5nsfg9o1g9JU9QNlnPQctxKTDBVM9uHGSpWWtiSz1ddRh1d/ciAUXngMVJ+KiNSmpS+RhnH6qwzGfn0UIGIIwiybLDNUgYBCYHAJakEnBB+BWAjb62QeeRuUHv0ZrroDy8CgKlo3Yheej5ZK3Aw1uaCZJs1lyAiJ1E+KWx8pG4YUtGPnKF9HRuxcJnzwAHpSIY7CxA+XGVjQnexD3y3DZWUFlkYCnAnjCwXjzAqRPPQ0n3/BxOIsWI6Bdu+NAwgu9GxYXPlg0yLEMMg88BuuZl+H2ZzC8ey9s+kdyt2cOM0ytx6ImR4pKNTn6oVCIx1B4y0k4+X/eCGfVEq0gaXN/Rw4xGFGnya2x+fApQxDmwyybezQIzDMEIoJAeguxskTQP4qBb96KRTuHoZJJFAvjGF+9FEv/6Aaotiby4uswhHKgLGqZTKEAC5a0ublQ/tknkPw//z/aRgbhBg4cWYEvgQJc2PEYYBX152mbHpCok4QNn42ytOsw5jSg74R1OPOzn4G1cBE8xwIcar5kQUgLAYkpkfu/7KGyZw/SdzyItr0ZDO/cCy9TQCLQ3oOpkgO+Kw5PSCY7dN1AAem2Biy46XIsu/I9QGOcO0ByT4SwC2PVjTLP1o253X0RMATBrAiDgEFgTiEQheoprs5O81wR6TsfgfWrZ1E/koKXSsJrjCN26QWIvetcnQ/glQHqaxCQB4GqGIoIfAWrrhHCiaH03DNI/cs/oi05yNLPsSCA5DIACwEcFOw4iu2t8OJ1XDEgxjNoziRRH1TYoyCFg+HmdgQXvhdLr7kadks7AtuHTS2XAwsVyn2AgC0lUMoh+5sn4Ty8FWpsHCO7euCWA5aBpqMaBpgkW5ggCLr9srAdFJRC8ey1WPsXN6Jh7TJIkqQO6z34/OG15tTCMDczZQQMQZgyZOYLBgGDwExCIGz5w3F6lnAOB+eTsqEfwHt5D7Lf/yVadgwiGBpByQogT1uP1isuhupaBH9kDAO//g1iuRwE7f4V4JeySJUlVmzciOYTVqH43Gak/+Wf0Jbci5j0uUGStCR8CIzEWhG86Vw0v/UcOJ0LuRFTYcdO5G67DYt6e1CPCoTyULTiGFi+Fgv+8H+g5dTTIKjdQjhaLSKlcwEUFWcOjiL9o/vQ1DOGbN8gxkdScHzuzhDGDPT/OJ0hvN9J8gX2KNBnxxoctN/4QSy/8VLI+ng1SZFCDlNr0zSTVoMZy3QiYAjCdKJpzmUQMAgcdQS4RC/cWXPPAP6LzkFQ+RKyt/4a4v6nUTeYRJAvId/RiMTVF6HpzA1QrsDog4+g+6vfwKL8ODVJhmN5KAcCQ/WLsO6v/woNp5+I0qYtSH3xn7BwdC9igYcAMU42zDsxDK85Eav+9LNwl3QBLv2cnAYVJG+7DaXvfg+d+SQ1ZGZPw0CiHfY1V6LriisgYpT3sO9RbUHgeSg9sxXlXz4Gl8oed/dAlDz2Nmga8fqPkiWQ6mrF+q98BvENq2HbuveDbymQUoQ5DAKGIJg1YBAwCMxqBDipjkr5QpEi2opz0x8ZoPxiN5I3/wSdA2NQyTSKwkb+zHVYdN2lUPUJ2AjQ963vw7/1diwMCqybEAgPORFHsutErPjMHyO2fhVKm19E8ktfRMfADsSJIIg4AmVhOF6HxMdvwMIPXoLAjusWyZJ6CgDlV7Zi9KtfRfv2rYirEqQSyDkNSJ9zDpb/0afgtLVXcaeuhhMtabTiolUsYuxHv0Td1m6UegdRGB6FU6YsRaETCw8zJyG6KJ2jEHeQfct6nPXlPwfqtdQ0RVmMyuOsfiSmbfCGIEwblOZEBgGDwDFBgEoAqC2yHQoUKfYdwMoUsPcbt6DtmVfQMJZBqVhAprUJC/7gGrjrV0HYLocUnvrCV4HntsAKiqy5kLcVivEE6k/egNM//lEkFrchv2UbRr78JSzq2Y5YUOIKhgAudsXqsOaf/hHOqSdxvwSX2hZQcaRP2g0j6P+Pm1F3//1oY8VHG0XLxeAJa7Hirz8Pd/Giqidgn351rMVMFRQB/O17kf3pvWgYTiO1YxdUTsISNiT7RyYEmQ5fAdLGQJ3Air+/CZ3vPQeI20xUHGoDbY55j4AhCPN+CRgADAKzGwH2IEjBXgPqJ0DKiVbZQ+7B55D78S/RmSwhSGWRiQvE3vVmtG18F1Q8zoaciEVq507IfBatCzpg2wmIRBzKsSHjCai4DVsEKG7vxdC/fRULXn4GdbIAoVz4iGF7vAFr//XLsNeshBRUxUDJhGTcHdj5HPq+fjMSd92JDulzeWPJAnqXrsTqv/tnxJZNEASagYgk6GRBCyoIoIpFZH/9BOxnXoLoHUZy9wAEaztT34Iw1BD2gZpqUICrFiCQh0D23LU46fOfgLNmEecn2vaB4Y/ZvUrM6A8HAUMQDgc18x2DgEHgiCCwf+f3ySgMst5CqFdAngPh+fC7hzD87dvQsWsvRHIc5aKPwrrj0PmJKyAWtAEWtRcGBO30rUC3SBYOhB/2M+aERxtCSEBWIEdzGLr5ZtT/9ldolHlYyoYnXOyIN+P4//3PiK0/AYFDrZYDPqfl1EHkxzH4tZsRu/tOtCoiCIBvW+hfuhIr/v5f4B7X8Sp9k21QPSIlLFZ296J492/R1DOK5PYejKfTulIizBOIRJmmShDonrnRvrIx3lKP2DXvwPIbPwirvTH0INSe0Qg0HJEFP8NPagjCDJ8gMzyDwFxEgPIFtPnRGgl8cBxe76S18dM/ryYhWgfm1ke/syjvgMsTJZzxIsZufwjxe59FYnQUpWQexeZmNH34vYi99Q2wSWeBzsr6DPr8ejDUsZC0EcI8R/o7ndP3mHQMfPf7sG/9CTpKGQjHRcUSGIy1IHH972HR+y9EJZ6AhTKcwIfv1APDSYzc/DXUPXwvmqVu2uRZAum1b8Ciz/8NnIU1OQg1WYdEJMgb4dAfiCR4ReQeeQrWw1sQS41jaMceoOiF46Vx6+5JUyUIkWKlbwlUbAVv/VIs++vfRfyM9XBt8k5Qh0eaiYA7SlJnB75KqBOtKyi0ngS3kKAmCpHSE/WE4AHRXZtwxWx9hg1BmK0zZ8ZtEJjFCHBJH3nKq/UHUf4AySyzRAArJnrKQ0FWkCuPwxaHIghEDnSnQVJATOwcRvnHv0HrrlFUevuhrBhw1ilovPI9sBa2au8BNQ46JH6anBBRIFlkYi3K9zFy//2o/Od/YslQP4s1ESHJuU0YXL8BJ//N/we/pYPHraQHGYtBbn4JI//2FTTt2owmj/wcCum6OuTe9HZ0ffpTcFubqyNgu1o9dJKlFZBgVGh4B0cwfOs9aN0ziiwlLA6OchdGIjREJrg0MWpyNMl1Qd0VSd8hEDZIU2q8MYaWaz+AjmsuRrEpBguEExl6CmcQDrYmT5HLghJDKf8jJAgxN0B9g8PzalHwokoQTLhiklMy4z5mCMKMmxIzIIPAPECADIsIs/FDXwGbZe3zBnUYyHnjGCqMoDc3CD+mIJyDWUCdoEhGKubbaEsptN6/DR1P9sAZzQBjBVSOW4i6qy5AYsM6LkOUjs2GfzI7bg5ZUFlh4KO4dw/6vvxlHLf1BTiCOiAQhbExFG9C7AMfQscll8Dt6IBPu+ZCAemf3AbvFz9BSzmFGOVFSIm9jS2wr/4Yll52OewEGU7NDPYlCLQTJyyoIkJwRYSolFHcvA2Vu38LZySL7J4eyPEiLOrCSFoOJPY0RYIAQaSFiJWDQAlULBvppQvR+tGNGDvxeOQFlWw6HObQ3gZdQaE9LDqDgSo5yiUfY2OjWLzAw7vfcwoXYbKqRRVg01Vhtj7RhiDM1pkz4zYIzGIEDlCZ59gC7WYlSvDQl+nHcCWJrBiHHw+gHB2Pj+Lu0a1rA05JigoJ30XX5jRabtmCBf0lBKNZ+HARvPVUtHzoXbCam6hXIbc0pu6G+xrlVwGTXR0SqphH93//NxK/uAPtlQKgyrBEAN92MVi/GNabzkTj6lWwXAvZ3XuAJ55EW3oUcUW6DjR6C33L1qD9U3+E1tPeCGFpw7s/QaCdPXVpJIJgs/iCJk2iUEL69gdgPbcDlYFh5AeHYVcoh0KXb0z6fsJb1U2ZiIvoygXq1DjuOpBvPg11N3wMrxDidoI9MywWIWwE5E0gaqRceL6F4ZFxDA1lkE6ncO5pjfjAxhPgWBycqJkrQxBm66NqCMJsnTkzboPALEaATCPlHtBOU6mAI9xSSGS8HLYP7kKhTiFrF6DiZJj0bv1Qe35yfyd8hc60g6YfbsJxm1KwRwsI8hVklyzEgo+9H/b6lRC2za5vMsAcP59Ut6EJPwO1bvb27MbL//BPWDYwgIQ/DiFKPG6f+iVSKMNxYbkOKqVxNHglaB8B/dfGSLwepQsuwurrr4Pd0MQekdoukNF0kvIi/UuuA5cEGFjJScf5gz29yN3yAGL9oxjZsQsYL8KWVDUR5gJMYU0w9ows9V8m+iJRcWyMJuJIXH0d8meeinS8jksuyYnA6hKs2WAhlwuw/ZVBZLIBKh7pVSicf7qLjZd1wRFKS1OzC2Hq45rCLZiPHmEEDEE4wgCb0xsEDAIagVqvAbuoOREhgA8PeVHCwPgoelI9QKOFkhOgbOvqAhIacmSYhHgQMC0h0F600PnbATT94iUsGJYojeXguTbExrdjwfvOR+C6odIA2V2qeniVpD7OXIyIAas46e6FFO/3ygi2b8fz//IFHDcyiAZZgoAHx/PhKApd6LwBuAq+ItlnF0W7DkOkonjaWTjlDz8Np7Ndl0Q6E4mYtWRFWuwTCd362rPCGlA0jHwBpQefRfDoFgT9w0h296LO18RnqhEGizUiBALhsPQ0hV3KroOxeAK7u47H8k9ch2xrG4rkYyAvhbRRCiz07E1i9+5hAHUIAgdKUFslD+efYWPjZYsRYylrSuAwBGG2P/uGIMz2GTTjNwjMAgS01kCklKCgJCW8SZRRQrKSxCupbqRUDnaTA2UH8GQAkOKhUhxb506J+yUNcGxeUmKiwOK+Cur/62ms3uvDGsqjWKqgtLITS/74WsiOJoDaCJMiohWGJNiDcZAsBN6oh27/asa+7jfA/g4SdqoUkdv0FEZ+8GPEd+9CXX4cDUGZGzWRGqTlUbYkULGBEuIYb2mHOuNkLP/wdbAWr+RkAUoKZKNcpR81k0g3FhIEwoivzUmbum+B3NOP0u0PIbZnEMndPQhGchCKPCP7nSz0kOhky9oGzfqD3DKCSi+F4PwCz3Iw3tSM4gmrgQsuQGH1cpStBCRiCKSFsXQBO/eOIZ0iYSsHwnLDAA9dqIxz3xjH5ZctgasoaEH3QGOqwXIWrFMzxH0RMATBrAiDgEHgdSFwQD5Bra2Ldt/ah8ANkTmkoCykK1kMlIYw6A2j6JSgXAXFvml9HFB5H5byRQZPkQKiJ9GeA5rv242lvx5A61gZXjKLfGsDGq59H+rPPgnKsiBoV85x9Kg0T3sFDn7UxB6iMkgyzOTmFzZsX0BVyijv3YnkQw8j2PI83OFByGIeltSJf34sDqulHVh+AuredCbazjsdaGnhBkvksqfSQkdRqeLBDt3jICIqVTwoxAABp1LG+CPPInh4E+pH8xh+eRdkxYcQukVzdER3RzSEvAXkY4iIDptwqQ14wVUYr4ujsmIVxOlnwtnwBoy1NzNhqAQO0hkfQ8MFDA6Po+zRWaOyxahRE1EnD+ec4eLKjV0g2sDNovgedEHr/rkjr2vBmS8fNQQMQThqUJsLGQTmJgIHM+R0pxSb55bHYXycSuJoB++rAL3ZXvQXR5F1i6jEfdpOw6ZkvrA/wf5IacMGOLTrrelTUFdWWPxyBq0/ewldu8soD6XgUcLduaeh5cqLIdrrOX6vKyQ0J9AdFCd275OdFc4LoH1xoLs2UmcDkc3BGxiCNzyGIJeFCDwdHqirg9vRiUTnQtgL2hCwMJMFm3IKLEvrHXCJ4GtzlCqPoUpD8iFQC+aRUYz+4lfo2DGC8f5hZAdHKVpTVXispT9hHQaTAbq8/rsmEyXHxkhjI5re8Xb4J5+K0pJlKLgJVJwAhaJAf984BoZKKJSifIVqnWMNE6FR+TjnDAdXXtIFl3pHRASBykS5l8JkakYmOxPmc0cLAUMQjhbS5joGgTmKQGTmqiag6trW8XO9j1SoCB/D+SR2Dfcg31yC7/rwqNTO1u2OqM8BGT/tTN/3YN+DoF23zkXwLQtxaWPRaIDmu17Gwkf70DhaRCWTh7+4E42/8wEkNpwM6U6ci0McYe1dFDQ4+JQcypgJDmmAvAQ2jYHIj60VFikkwmmUepdOugwgrYewvFERSaFrc3WnLvGcEkUh0kNGltUc6Vo+SptfRuHWB9CYKWFsTy/88TInB0YJmFG/AmkFnMhIYQFq91yxAM8GMok6+OvWoeOidyPZuQTjiRZ4dh1gW+gbTGH3rhHk8w6kqmdSJizt/ZmIZYToiUMQBCqJpLk0BGHWPvmGIMzaqTMDNwjMDARqCUJkhCWVBfKOl5ICfeRkDj25AfQWBoFGB0W3wgaVC+DY+OnCOLJuB0u3iyrtdOmBhG/baCk5WPb0GJp+sRWL+wrwhsZQqHNhvfVNWHDphUB9o+6edDB7T5b+UGUMnANw4CHJtU4tjoUPydt16m1g8b8Ux6fmzUQImBLZ9DOdFxBFTbS7nRIkJSzqkGjzNw640ET/gANJEllqDj5Q1UG+iOGf3ovGrT0oD4wi3TcEm1I3QpJAqOoO1LqEkaoiAmUjW1eH9JIOuGe/GXVnnoVMUxPyVgK+iiGf9/HKrn6MJCWkikMp6oOgKz/YRUGztD8+hyIInNhpCMLMeEoPbxSGIBwebuZbBgGDwCEQIJIgFZX+SeRlAclyknMN0iqLIE5ZhQJ+mLBIdkvb6dB1XdOlb9/T69/7tBvmqgYbS4aBtltewoJnhhEbysCrlJFd14WFl1+E+NqVbNSi8MYBHon9q++ids/8wf0IQuQR0R0Xqi2FmdKEsQ8Fh3+ryY72ErDxp91zeI86PZJokP4c5TMc/IgCKgf5LZ2PmzvqswXdQ8j+/AHEekeR3tOHciaHGHU/pFAMEwQy0jY8m3ocWCgv7IRctx71Z5+NypIu5GIJFG0H2YLCyNA4BgZyyOYlhGjQ9xoSsoiY8Yj2T+40BGHOvgsMQZizU2tuzCBw9BGQoaH1lI+R0jD6iv0YqaQQ1AO+Q0qHupuB4l7CZDnZZ1+tlz9ktJrb91EMXcKVCi0lG22PDmDRXbvRMFRBpVJGbF0X7DNORsOa1VD1DqTwILi0IMza3weOWhKwf3lETW7APr/SY9V5APSv1nPYp3pAR1UiKqGvyN0HdVtknQTxKgQg5EpRA6UDiY2uedRVCwKiWEbpyRcRPP4i1FAKw7v3wvUpXGPpQIQAPGEj29CM8rq1EG8+E96aE1BONMG34igqG4PJHAaJGKQ8KFUHKR3AIg2FKLukmvQRJk7ulzthCMLRf9CO0hUNQThKQJvLGATmKgITsX2dayACgeHyMH7b/ShG5Qh8FwhsD1J5ev8snHD3HPYB2MfVX2NIa/P4uVeQgvADNCoXxw1KdN3Xi2W7yoDbgMQJq2F1dUC1NXG1gTbFkpPlqj1/yaCHBIb6BrDhjnby+3guDh5i0LF/bvGkM/PDWACbS+I7Pik/0jUEVIwIREVfW+nwCVcThOSBecNhJO6xNkR4LhoFVXGosRzKm15CfCiJ5I4eyGQeQjgo2DZycQeD7S2Q696E3AnrMdbejkqMSj4tSKseY9kSslkPHiUmhOWV7DWoCmZVGYvmOjX/ra5nQxDm6qNNJHgf39qcvVFzYwYBg8CRQYDjzGT6wpp9yxfoLfXi7t2/wogcRTGowKWSRIrPC9rZ26AOCAfPATh0gqAvXBYoWpSxsGpTGqc8X0BHnorqHI73V2IWSkwKdJCAPqvHpg+L5QX1+QNqEhSmFHJ8nlUlteklkaKDpi3weSdMJJdNhmqT0lEsFMWdGpXDss5OEHDpoaCqBcrJoPbOYcIenT9QtEuf2lENG4T3aHkB6pSNmGfBlhIiqKDnhW2QQQJ9Dc3IrF0D7/RzkKvrQtapR8UlsuJBUNtkFUcynUOpSH0pXOomHbZ/9jmhcdKHIQiThmq2fdBysrI9AAAgAElEQVQQhNk2Y2a8BoEZhsCBBAHoLfXhjj33YSAYQGY8B8cDVi1cjvpYE6sCaglhfXDUvibTsdY4RyEL+hz9mVznbX0ldDw7hK4xGzGf1AYjo69VEHV8nzwRYcVAhFfNXqjslVCRZe4iXPJLurKAvBRhEOGgEHMyQc3owj9ywIAqG1GHhng7hHShRBzFEepzQEJICq4j0dhISY6RlDWdy59Ev2fySEyMhu6PyzyjaoxAwuEuSgI+kRtHITk8hlTgILHhDORWLEOqvg2+onJPm5UmA8vDQMpDoViHTKocEgQnJAhEqKhSYQr6CYYgzLAncvqGYwjC9GFpzmQQmJcIaOlknelOtow6FvaU+nDn7nvRV9qLnp5udDUtwcVnX4wF9Z0cPycvwr7lBZEVPFT8nz7tcdKhmy7BGszD8S2dwhCV5kvyAnCGQCTwqLPva45oz7+j/xX0ZnpR9PMYSQ3CIo0Biu2zsT9402KdQ6DDDwd6GBysbFmD8065AAmrGVK6uP2W5yH9eoznSujscPDWt62DzdUAuprhUHkGr7aIoi7QRBC4YVToxbDC8lAKb5DCpGhqgdu5AAVbwGPhJ53yQS2mpWXh+e1pvPByCWNJD6UiVZw4IRGJSiCm0LfAEIQ5+9wbgjBnp9bcmEHg6CCgXefkfCe3PbgZEHsQdt+L3ePbMTY8iKV1S/G+N2/EooZFbFz9V8vgP1j5oSK5I1014AS6NTDrE/DmOcwJICNYU9WoyQArGGijHu66icY83/s8to68iFw5jf7hHmpZwORDJ/9NfGdfBHU+wf6HLtK0sKH1Dbj67GvR7Lai6Fn4ys2b4HsdyCVL6FqqcNmlJ8LlVs9+WB1AbvyDGOL9cgBrr1clCDXFBDpAEpZQhgmR1CtCexoiwWoqt5Q8N9Kysb27jCc35zCULKFUDHTr6+p1o+TESa4fQxAmCdTs+5ghCLNvzsyIDQIzCoGIIBA9INNSSxB2EUEY7cfixHF4/5svx6KGxRxeoDj9wRsUHNo6himNOtGPpaHpD0QawpTE0Nby3/g0kfbDvnDROJ/vexFbR7YiWxxF/1g3bJfKB3WHQe5FdJCDzhk2U9znt+w1AXB68xvx4bOuQ0usEQXPwRdv3oaK145cqoTlS31cfukauJSqoYMBEWuZ9FxGPoeJ0MzEV7VJF6xbQaSACAL9hEhP9DMur5SCNJewfW8ZTz6Xw3AqIgiUO1F7ZuNBmPTEzOEPGoIwhyfX3JpB4GggQAZXqwnuSxAoxLA7tx2jY5ogvO/Nl6OzYRGZ4DCDf/JGiJ370kJASQPh7jmwtMqjww2ZdP5BtWAy6uAYJiBqHDT5oFFu6XkRLw1vRd5PoW+0eyLEwN3/uLvQgUeYo7D/L5ggKAtvaHkjrn3zR9ESb0ChYuGLX9uBst+CTKaI5Ut8XHHpCYhFYlB0HfL3H/I4cAA1aRoH5HdarMaocxMiWhSlZFLYJbBJUlt7SCjfYkd3CU89N47hJOUgUIiBCMJhrhbjQThM4Gb+1wxBmPlzZEZoEJjRCEQEgdzc5Jyn6oG+Yh/u2nUvdua2IZkcxsL4Ynzw7Eu1B0HpXgKHFks6+O2GtQbVX9JOWVceHDqaH5US6uoDkjfWUYJNe7dgW0gQeoeJIFCjI/I8RG2QDz2GgxEEW9nY0HI6rj3rWrTE2lD0gX/5922o+E1IZyroWhzg6ktOgEuqyTzuME/i9czs/u0IwnPV/liTBOrVQCyKSi/pfwKv7B3HU+RBoByEgvYe6GTTKYYX6JqGILyeWZzR3zUEYUZPjxmcQWDmI3B4BGEKWfKvAwKdshgZftpFg13smw+TIBxqKDZsbGg+NEFYtjjAVfsRhAmfxuu4wdf4atUPIYKwuZNgkvRKT0QQfJQKRA6IJFD7aN2IaUqHIQhTgms2fdgQhNk0W2asBoEZiMCrEoTsNiRTB/MgGIJgCMIMXMxmSPsgYAiCWRAGAYPA60JgtnkQqMR/U/cWvDz8os5BoBCD404qxGA8CAdBwHgQXtfzM5O/bAjCTJ4dMzaDwCxAwBAEKsE0IYZzznBw5SVdcFmfgkI7Rs1xFjy+rzpEQxBm+wya8RsEjjECszLEMK88CBPNj6JKh4kchChJ0eQgHOPHaEZe3hCEGTktZlAGgdmDwGwjCFGIYduQDjFwFYMbY8C5V8BhHDPbg0DdG+mmuISByyB3UJLipgyGxyhJkcgB/UufM0mKhzH9c/YrhiDM2ak1N2YQODoIzM4Qw2ZsH9J9ECKCoFUSXq03waHxnNkEgWS2wyLRKkHI46lNKQyPBYYgHJ3HZFZexRCEWTltZtAGgZmDwGzzIHCZY7chCIYgzJxnaKaOxBCEmTozZlwGgVmCgCEI052kWCMo8TrXAIdMFCUNGg/C64RyXn7dEIR5Oe3mpg0C04eACTFMN0GYvrnRORXSEITpg3RenckQhHk13eZmDQLTj8BsIwgmxEBJiiYHYfqfhLl3RkMQ5t6cmjsyCBxVBKY9xECiSCJKF9RVBTqB8LUqDCIdgQlVwkO2Wp7BOQjV0Yf6CVXhqFeJPDAy4Rf3R0kjqRHUhQwWdnSbKoaj+pDM0osZgjBLJ84M2yAwUxCYTg8C1xBIH65loUCqj5bPxEAipu2f1nGukWfSgk0k/WRJ+rYLBZfVJUlfMjSLoQiT1mLQZY4zN0mRxZUQoOx7SKaKLI2gJa0PfbCCY81HQrVrxskSQEPCRktDE4QlEVgCO/cU8DSLNVVMFcNMeZBm4DgMQZiBk2KGZBCYTQhMJ0HwRYC8l8F/3/o9yBYXvijDIhEhFQPn2bEXYV+SQBLGNv0rBTqbluKd516IRqcBpPYwGz0IxHgCS2H7rj787OdPQYk4lHKYJATCRgjEvktEkX9gX11LRRLQTJdKOHn9Arz3PWfBEYrFqgxBmE1P2LEbqyEIxw57c2WDwJxAYDpDDL7wsbn7Odx829fgtVoI7AoTBAs2/NBVfgBBIG+BdJCQCSyNd+GmS2/CgtgCOMpCILTZ1DLONWqOM9iDAEvBB/DU5m58/RtPQFotUCrOa0USWTrgoDukBkjkR4kIlKoSKjco4c1nNePj150HUpxQtgoJQrZG7tk0SpoTD+M034QhCNMMqDmdQWC+ITCdHoRABPjFYz/D3bt+iXy8jMDymSCQhyBQ1kRHwBovQljBh5gfx/LYKtz0vpvQmeiEoK0yBJvNWoIw00MMUAECATy9qQdf//ZmeIoIQowDDxBEHQ52EDZk5En/IIAgUCiHAQKuAs46w8XvXX8WXPq9pbCju4CnN2UxPFbbatl0Upxvz+5r3a8hCK+FkPm9QcAg8KoITCdBoBDDt+75Jh5PP4qCXYSwLHat07+K8w9CN3o1FyH8iRRwZByr3BX45HtvwuL4IihpQVoHehBmOkGwFOVcAE9s2oOvf2sTAtHEBIGSDckjUk1arJkVCifQz4kO0R/5YIwkXFXGuWfV44YPn4+YpSCFDa3FkMWIIQjm6X4VBAxBMMvDIGAQeF0ITEeIIapSKIkyvnjrF/GyfB6+5cFSLmcV2sqeyE9kwzeRq0/eBaVsWNLFSncZPvm+T6AzthASghPyZkaIQeKqS46HawNSUGKlzig8WF0GBQukAJ7YvAvf+PbjkKJB52AQB6BChIPkK0pYCKQDRV4TYVdJgoCP9qY8rrzsRJx/xho4CBBYLrYbgvC61vx8+bIhCPNlps19GgSOEAJTJwh6F2uTOBAUfHKNU5aBkhjI9OHf7vt39Ni7IRVlHSjIsoUuuwtdrcfV3IHeSdPvHTKKEvCFxLKW5XjvGReh2WmCpJwD9kCAwvp8LTLOFIPf3L0F246GFkPQiHTKw7IlwFUbV8OxqKvhRFXCIQs3BZDOFrG7N0l3CAVbOw5k+I2IJVh065LFlh57ogdPPT0E5SZABR2OkLBVGtdfezredMZy1DkWh2ukZXMfhCefy4UeBApL6FoRzVooKHMo+nKQRSRo9nwYuecj9IAdw9MagnAMwTeXNgjMBQSmHmJQCIQDh2LlUPAEJRPaiCHAi92b8Z0nv4de0aM9BkKhkvTxxxd/Gqd3ncHFi9rCksNdG0stQBiggjJiKo64auDf+1YAS5FRpBLICYIAW2HTni3YNnwUxJqYIPhYvkTgio0r4U6CIBARkNQemTwGlkAQCSwKwNGlGdp8KyBQPpSwsWt3Ev/1nScxMEKVH0QmBBCkccn7TsBl7zsZFsEWEGFQUJbAjr0FPLVpPMxBoHPRTIQJkMrZr1rkNVapIQhz4TE+6D0YgjBnp9bcmEHg6CBwOB4EIgg2Z+TTjtpBYNEu38NDL9yPHz9/C0ZjSTbu5B1wsw7+4vLPYk3rumo3IEtw5wPy14eeAUkWkEMRlrLhWRIVy4NLPRH2IwjKlti85/kZSxDInxLlWpCGQjWnQDdNhsWJirr5g48AqbTAj2/ZjCefGYW0mrnSwRUVnHZqC677yOloSbjMoggHIWsIwnPjYRWDIQhH50mZfVcxBGH2zZkZsUFgRiFwOARBssucsgTIFtrs+q+oPO569nbcse0O5OrKVJWIuEygQ7bh0x/4Q7THO+EHAbvCyZNQ59ZrQiAcXasgyRlv652wRV4KNqd8jVoPAocYZoAHQSddHnhQYyMdSgiTDXQDCD4odEANoKhCgUIoHmw89Mhe/PjnW5EvN0BRQylZxtJFAT5yzWk4aW0LLGlzgicRBFsJTtx8hTwIhiDMqOdoJg7GEISZOCtmTAaBWYTA4YQYKKZORovKD2nHLy2JtDeGnz7+Qzzc91tUEj5UoOAEMbSKNpx3/NnIJHPIl/K8Q7YtB+2N7VizdA1OWXESmt1mODLBsXhlk2ci4ERAGfZBmIkhBoqUVAsOahMPI5cBJyVSBcfEYlBCMmZErqjH5EhG4kv/+iv0DluQoo4rG+vjRbznncfh/ReeiDpbcJgi6qw4QRDyhiDMomfsWA3VEIRjhby5rkFgjiAwdYLAqYXVbH4XNiqyhMFiP/77ke/h+cyLUG4AKX2uYBBBHPVWPXyU4aOiyx0DxT+LeXEsb+rCpeddghUtxyNmJSBtCjcITTzIoB7gQZgZIYZaglBbz8A1GhGxoTVCRCHMx5DUF0Jq70tF2vjWd5/AI0+Nwhf1oBaJMdvH0kUFfPoPL8DCZheuIiJG55McjqFvUmXHKz05TRC4zDFKUjQ5CHPkkZy22zAEYdqgNCeafgSicrYoq3r/K7yWeM/0j+jwzhi1wH31fvqHd+5j/62phxgoY9DmvAMyfJRn4KOEHekd+M5D38HeUi/gBghUCZIqHESM0gtYR4Dc6mTsHMuC7TlwPReOH8MCewE+8q7rsHbRGthkBrns0YZv63bDB4QYjloVQxPSqQqWLwGu2Lh6nyRFIjoVXyI3XuKIQtRJ2pMKuWIRSzpbUB9zWbhKrxzSplAQgcPA7dybxd/+wy8h3cXkL4GlBFyRwjVXrcU737oOriQ/DeUthD0klOAQA+F+cIJgqhiO/dM0s0ZgCMLMmo95PJqqsxW66Ytu8kKHbv6ijSz9Y1FsWVVAKVqCAtVH/KglIlE726iOnQxQtP/TZXvanSsgJFm1OKRFsXLaxoWJdRxknjvHVD0I1AgIMgbfqWiCELjwbR9PDzyJbz/wnxh385CWByV8TtCz4VaTEVnIiPQELAlBIQqfshEcWJ6NRWIJPvKuj+LERWvhShdURUnKhaxSUNNq+eg2SmpBOlPAssUKV208ATYRFg4dSPhKYfMLA/jxz59CNk/jpHLNAJ5fQaE4gL/83O9g7cqFuvKAyjOpL4R0iSegJD38+7efwHMvBlCB4FCEJcpoaxnD33/+KtTZ1JyaMNJrkWIPpFmhwy5EEKhREok1+RMeBAJMl4RMbXGaKoap4TWLPm0IwiyarPkxVCrvmiALuj0c7YHILe1DqAoUUihV+iD9JISgSOyRPmrHE16L3qO0p6NGPBRHD3UCKAOdRXKkB7+QQamyGO1L3wlLxAFB2eS6b/5cOqZKEDiGrlxuo0wo2oELT1TwwPb78cOnfoTxhiKTP9r1O74Nx3NQ7zSgvakDygfS+TToH1UfwJMBu82p4iFWjOGU1g247oLr0B5vDyWjDyQI1DZh81HTYogIgsRVG9fuQxBKFYW77n0Rt929HRXVCjhEhEtwhURTooC//p+XobONdCaIIFCOgSYX9Ew8/1Ifvvnd5zCSbQJVdFhEIGQSN95wJs49cxkoykJEmj7LTZlekyDQtYnQGoIwl57N13svhiC8XgTN96cRATa5eg9eVaejHQ/t0j0IZFGu7IHn74DjjgDIs2GuEoSabO9pHBS7qKOMcu0dmPAokGtXv4Tp5U115gGUX0JpdBfyyR74zvk47sQ/A+x2rlen1sFz7Zh6iIFm2OFQAZMraaOCCu584k7c+cIdKDaVIWzyGzhoqCTw1hPPwRtXvwEN8SZiZMh6efzqpV/j4Z0PQTYQ/JLDD5a00FHsxJVnXI2zTzwbNpUIkneBWzUfK7GmgxMEMsS5ko/vfO9hPPnMCHzRCEUhFBTgBGWs7mrC5z5zCRoS1MuBSKfLtRtEiCuBwg9/ugkPPDICTzaxp81CGUuXKPzZn74TbQ02rIDEmmidUriFCAIlbb6aB8EQhLn2XE7H/RiCMB0omnNMAwL7kgPqo8+7Ig4j+PDlIMqVlwFnN2w7yZ3bwuhq9dosUHMUjgkPBxXckVuWmvFIOLIElRvGeM82yPF+JjVB46VoP/HvAXsBlE3daujFPbdIwtQ9CJRLQNFxKj/UMsWe8NGT3Is9YzvQPbIb/cND8MsSb3vj23DW8W9CvUzAoi5BgcWfHcUI/vVnX0ZvuQd+rALPrrDrvDHfjPOXvA1Xve1q1NmkgHggQTg2IYZ9PQhEasalxH33PoexMR8LFnYikbDQVG8h5gq0tiSweuUCXkMWYSWpeZH2BOwZSOOb//Uc9vbYkMqFcDxAZrDxA+tw0UWrUcfrMQrJkUw0fdUQhKPwaphzlzAEYc5N6Wy9IXKH6t54rMKn6M95SKThBbsRyD4IZxCOnaM8bDYqnLDGf46OI0cQJs6sO9zpQ0GSi1uWIYopeKPd8IZ3Ie5luEughwaUWjei9aTPQ9qdvGPWZjE2UeM+W6erZtyHQxAoNEM7fgoNEA0MLBIi0j0OaH5ZjyCQsESM8zjIEyCkz2EDChqQTsOWwedw811fQaW+As8J4NsB3GIdTmnegI++/SNY0rBEV0EcUzXHQ3kQJDzu/xzu8IlgUpdFSs8IhZc4OBKuNa3doLsqPvLMHnznB1tRLjezV0BZJbQ2F/D7N5yD9evaYPs6iKWrJEINC0MQ5sCTdvRvwRCEo4+5ueJBEdAVC/SPoB78iojBXnjYCxu9sO0SgAIsi5ISdcKffnfWEoTDhzYM7dZUmxEFCRMOJzQEeYxhVTlf2yqOofz/2HsTKLmu8lz0O2MNPavV6tbQkmzZkiwPkmfZlmUgzAaMGcy9l8mE5AbIzbjuXTchAXPffXnrvfXCEMYLuVlJIAkQ4kBCjMFggyHGxgPYGq25pZ6n6q75jHu/9//7nKrqVrXULbWkllQHtCx1V53aZ+9de3/7+7//+yf7ITLHoRdHYQkHGlkISw2BbEFp2VvQdt2fItTWsNjSoGOurmDCpXItOMRAOfyaBkOQ6yGpSwSr87ln6Xivchyo/BCPgKrVYCIZ0utCtelLE+NyHA9946PI2VlOZwx0CT20sD55Bd5713uwqWOjCuvMAghLQYOgjI4o9VDnsBOXaOY+UIZPkb0TCy3p59RLNO8LRYG///aLePIX49BkCzRB5ZuLuPaaFB589y3o7kiBuojYN5W9ENV9aACES+Xrdl6fowEQzmt3X54fVqXk6flJcV09gUcH8Wizp7BBCUE4gCA8CqkPQdOnYOoEDhTDQEcqRZ5GnvzxDc62a8m6nq1n1KlWxW0VYKGLtPLEafBmI6jKYAledgjhwB5opSlYQREGHLb7ZXtcCoLIFmYQWq/7GKS2llXqfCK8nLIYcgeQmRpDV6IHb9l+P7qbelgPoDQIkd6E3QEJGJASnwaCRHkC0lDgQZC2g5wTAwu+4TNs0EIDeSOHj//TxzCujUGnSoaaRGgEWG2uxoPbP4BrVmzmEMOFzWJoRTZbxpoeKta0gUWK9LSkV6kKAimVU2XuULaO4gpIhxOZLvOcp3kFjGQC/PlfPImRSQo5WJT0ANss4XWv6sb9996AhKmgRa1mhv/dAAhnu0Jclu9vAITLctjP70PXAgQKC6jtNq4ep1IDNXiAnIQXHEIgj8IwJqHBga7TabO+34FaSs/EI+HkUAS1xgrJhAcIdOYGoJFxL59Wlc8/WQLr0oUsjaAwuA9hdghNQR6mCGBIElHGtQWUOiKQrXDa3oa26wkg9HJuPgvzLnsNAgEEi9MYqadM1gkAnuZBkBhVI8kdVXKkMAQVcbJhSYqlS3imz6dmQ5jIa1l87Jt/gnFzghkF2hSF7qLX6MUHd/wmruq6CqD3XdA0xxZksy7W9Gh411uvgGlERtEcp6pyUTO+kZx9EG3yUcohiTDpry/uH8Vnv/gsAtnOtssUjmhvcvG+BzbhtpvWwohEsHEYrCrgbWgQzu+qd2l8WgMgXBrjuISfojZtsZpiTYs8L4G6BylzCMNBBMExSGMYhpmDhKM2XBlyGte5vhiDcI64gZAYAIoE8MmV2kDplQKaW4I3eRTl0f2wvSkGFJRKRiV06bUVNwRmEFADED4OSSGGyxEg1GUQiBeIqX/qZ4mcN43dgy9ipDCC8fwEMrksfEfg1qtvw6tveDXSfhqO5fBJ2wiJT9Ax7A/hoa9/HLnWHMfm+XAuJK5p2oIP3vMb6CENAjMIdDi/UFkMZwIQYoMwtkBUrFlky/zwI3vwnX/rg0ArdGKi9BCrlnv4zffdhg3r2lUNJ7JWjrUL8RenwSCc6yXkkrx/AyBcksO6VB4q0hVUVH3RwscUPrXRQYBBBPIIpOyHpmcBYhJ0n/Pglf8BkfURNV9DnaonrM8snMnT895SYSRYAqkU5HABvww/Ow539Aj03AASogCDQANjnNgbP0p/pDLEUQW+KoPwcUDvjShjWuzPnZjyTJ79bN+zYA0CCVC5xoAOTehserR78CV85p8/Bb/ZJ00iNEuDEZq4vusG/Me73o1V5mpIk3ZJ5QVAxkqP7/sh/uG5r6HUUqZQPgyhw3Zs3NlzJ95993vQbLYokd7FBhAYOdeABJ7qGrst/l+f/hEO9pE4Nqm+G7qPTVeF+PCv34OOZsramHk1GISznd2X9/sbAOHyHv9z/PTxIqdi+ZJP2YpYlTILNzyMAC8D+jBMzeE6fBzl59i00gNQnDWOqqr3Vq/47ovxEByskCQco4WYthVyrXMgi1Pwxo4iyJ6AdCaR0ihrQQEXzrqIquTVHtkUQKgNMVQBQpRzthhNXjL3OJMsBjWSBBAMBLpAvzeIT/3LJ5HBGEJKWdRD6KGOZWI53rztPtyx4S40G61crjjUfBybOoq//P5fYkQfhG/7LPzUA4F2twP3b307Xnndq9hymes+zvJBOL9pjmfAIMwACKza4fmUL3j4kz/7ASYLKUiZYNWGLsvYcWcTHvxPd8KqAzwbAGHJfE0uyoY0AMJFOWwXS6NrAUIUxxcZCDmCQBwCjGOANskAwNCIVahmDShBYmwTGxvVz/AoUvzBYh3GyfKXivvwsiuhe3m4w4cQjB6G6U/AQIlrBrPuIdpw1EerZ2QKm6vqKFdgBRDaIg1CAyDMFCkqIMaiTWIQIDCFLP7p5/+Ip4/9HH7SYbEhvYKKMaX9Fty+aTt2XLsDpqbh+OgxPPr89zHoDUEkQmXHbBgwAolebR0+8ob/gu5UD2dGUD7EhTVKOlOAQHNL2YjTXCJfkJGRafzxnz0B36BQgsmMiaGV8JZ7u/HWN25lHUeDQbhY1saLo50NgHBxjNNF2krFGKhtn2L5U3Cn/xUQ+6Ebo9D0omIIBKV5qYpzmkbhBaX0jhDCqb3h6wIEUsFX9utKrYTq+nmycwJzFzphAAlRKqMwNghZGEMqLMGULoslWVwY2dFyOh6Z1LBhU5z6GHnmR8DGnwEQ1nB63mXHIOReRmZqfFYWA6UkqpM9ZYyQWZKve9g3vAd/9+TfYUwbg8csApWC1mEEBhdmoiQRUuZRpcewmQSLAXTaKEMCGhp0V+I9O96LV2x4JUyhrJxJaLo0AAJlMVw5T5Gi+ror0asCCDQ5d+0Zwv/9+achE+1cy8KivpM5fPDBLdhx21ruxxkYoeY70MhiuEiX0Avc7AZAuMADcGl+fBQq4Di+iuZrKCMsP4+p43+GtPUy7NBHqDko62kkSHTG6YHqBM7rGte8j7DCnDH7uemDgMri0uZCwWkyn6GTPefQq01pBvVA6WX0xxRIeA6Q8yFcCWE4VFSQUx7jxXqm7mHW53NaZLS4S1IwtKPY+nZ0XE8MAgnmCFRED3gJDfyZhBhIg6CKV0VATtdQ9kv46f4f43t7HsWUloVju+x7kJAa12Sgyo5kux3SxkndyA6DpFWwkfaa8Ipr7sGbb3kLmmQTMzqkbSAFC52sL1yxphZMZz309oRcrMkimwOuqVDln2ZPBZqLSntDE5c0GgFCXcePHu/HX//THkg9DV1LwhA+bAzhD3/3Hly7cWXknlidofFUazgpXkJftvP8KA2AcJ47/PL4OGXSojzile+hzgDh5ygM/BFSch/0cghWHXTeAohWxRfU1imYl/4wrvp4cq8yvCARXJRVzq6H3JIoTBDJwtWWTsJBgcAdQso/BqPgQjq0wXgww/gep68aWVsEjzYABRDegY7rP1YFCESqXE4+CPkDyGRm+yDEjhLV7BQhBKvvp7xpPHPoOfxo12OY1CbgWY5S8bMhEMXiqZon5TDo0AKNqzl26B3YsfkuvHrbq0Ejf2IAACAASURBVNGODi4fzaNtkJZFORVeyCyGCkC472pYjGlOBxCUToc0MQyw9RChpuOfHn4R3/vhGARVtyQnSrhImGP4b3/wBly1bgUDhFpdTgMgXB6r7bl8ygZAOJe9e5neu2ovRCmAGi9uBBBE+SkU+/8r0v4ByFyIktaDli2/DSQ2Um4WK9vnf1X1DdX3VM7vfFpXZ7DYNoayDWKzpegdXJFR3UeHjyD7BOT0t2Flc0BJ8MnNDCPbmkpu+twtbAAEgmCUTaBhsDyI7x19DEfmSHNU41JlEGLuJdAESqGLgak+PLP3Kfyq70XktQIx6jCMKPuFchpdCVvauLr3aty15S5c23MtmvVm2CLBQpVQDyEIIEjrgocYzgggMJkWwWwthNA1PPP0MezalWHYzcE7LYRtFHDfW25Fd2drAyDMf/FovHKePdAACPPsqMbLFtIDMYNAdkNkmEuLnQNR+jnKxz+KtLcfMuuibKxFy02fQJjcxMw7mxJVVIc1FMIcRkmqRXU8EljQQJ8asp2tOleRYp5CCQY0jUx1at9Hy62PIPcYvPHPI5nLQCtGGQrK4bbGdLkBEGb3wBmFGOqaXCntiKLYBULpYTg/ht3H96Fv9AQ8x+V3WZqFK1evx+a1m9DTsRIWZ7qYrGWJqhCw/oCqI2riZIBwvrMYFgoQYtGMxqZi6iLWQYbK04H6qOq6oWyVVUZDg0FYyCrVeO3pe6ABEE7fR41XLLgHTgUQ/hRpfw/kNOkPrkDLzQ8hTJJnPmnaq9qAKiZQ+oD6lzrd17tEQDni5B7nRsJAk6lZlTrJx6/ov3GIIUCQ+zG8sc8imRuHXiRwYXLVSPXpp495NBiEOgzCPEMMtWOoQCL1P4UIFL/D1tVamYQHHLaK9SXKYjkezkikF1tk82564dMcFw4QVLlzYgiUHTM9MWUBUeKmEvPGsFelBVM4gsIoDYCw4KWq8YZT9kADIDQmyDnogbkBQunER5H2d0NO+yjrG9B6459CJjdA8qmeNvCIQ6iWTOSTYN0rfg3tIrX7PSR8J4vs+HHoIWVK0IJqI9WxGk3tPaxsn3nRDYhBeBze2JeQyo0yg0Dv0TRXVZhsAIQ558niMQjqI2jTiwNDSqiqwBnDD7LBjvw0DBYpKtNu0pCo6oXKN0DpDii8FalQzrWTojRwQ9uNeM9t70Gb3YFyAHzyCwfgBTUixXlqEDQGBZGollNoiTmIDLmo7DMDoOh5I9dOVfnxbAAC6Ttq60MsYFkggIIAd9xs4oH71sBi0a/S7qh7Vr7VC7hp46VLoQcaAGEpjMIl1wYJQQs027uSdTEtICWEpZ/DOfHHSAZ7IaZCuMZ6tNz4cSBxtQII0aIyoztinUAlpSHeRKKthNMN6f9UR8FSyniZxfRL/wpn5BewtBwZMiIQTcDqV2DltjcBerJOj5MG4XGEI1+EVRiDXqL4tQGpB5G9QYNBmGuaLhQg6IJ8EGZlksQ3V2aJzPRUMR+JGtUpmTYbZboVO1LSfWoJd7pRDDKVqyUTDDUA4ZyEGKSBrQwQ3os2uw0lT8Mnv3QQXtCK6ayD3p4A77pv47xEilF2IjuJKsQUgaCaAk5xHWjlBaKQUeV9NX0Z/7x+mmMBYxkPTkkZMRHoiD+v9lt22uWpARBO20UX6wsaAOFiHbkl3e6oKh1RpLTJ8ipVhCj+HG7/H8H290NME0AgDcJDSqRIp/q5RIoVU4NYmMhnRlXqmVZ7opllwKcVqu3gFY5h+LH/FysSAzBRZAV8IFqRW3Ufum97H6Cn6vQehRiegBz6HIziOLQS3ZtOcUTtzs+PqRFimBlieOToYzhaJ8SgAML5KXkdF04+9wDBxNbWG/Ge24lBaEXR0/EpBghtEUDw8K77Nqk0RyrffIo0x8X8alcCcHVrMRBA8OGUIjOmyHeBTJhiA7B5taUBEObVTRfjixoA4WIctSXf5vkChF4WKZ4WIMz5vCFTzLSgSaqZID3IwiAGnv8WWnNPokXPqNOj0OHJFmRXvx0rbnuwARAWef7MxSAsVYAgDOCl4y/h4Og+FIMpDIwdh27ZUWhjjnDWafrMkA2A0AgxLPIXawncrgEQlsAgXHpNWGyAEKUSRKSzKh9NaZHKSIZZWFlEmD+B/N5HYQ4/ibQxAotYBcoZlxI+A4R3oOv29wP6yUVtqDhUg0E4s5nYAAiUgdMACHeSBuGta0BwvaFBOLPv0lJ7VwMgLLURuSTas9gAodbfQLksKt2aocIKogh3bBcKh38Ee+qXaBKjLC6ktEnBuoQAgWjD9BpiEAgg1NMgNADCmU69iw0gnBsNQgMg3HmLhQfuW8US4AZAONNv09J6XwMgLK3xuERas7gAoRYesNaMtQrEHriAO4mJgz+G3/c4WsUQErIQ1XMgDwZNef6LECJYhuk1xCC8txFiWORZdrEBhEaIATjUX8Bzv1p8DcK77lsNrso9K4thHklAl1wZ9EX+ml2Q2zUAwgXp9kv9QxcfIHD6GtdEICW7gChPozS+C+P7HkFL4WW0gYABFecJGBBIQ2VRhHEBpqAL06vejuV3vHvuLIbcjxsixTOYmicBhFDDoDOIR479QDkpZsaxItGDt2y/H91NPaogFmcxnPtLpUxSCqBy0eSaHKxB2IUDo3srGgSDNQinTmedkUk7q+lmFGJ4N4sU21D0NHz6S5Tm2IaprIveHl9lMZytSHGuRsz6ea07COd9cOok9QMlRWg4dKKA5wkgTHpwyirrCNxH9M5TCUjrZfNQRomPu24y8M63roXJNVVIG6Ts1mOhaLXLaqu2RuWsWQlMo3V+5sW5n3mXxic0AMKlMY5L7CkWGyBQFrigasu8hpHswDn6Y+Sf/xpazSFYRg4mVVUUBkJpwhc6bJNKSBdVmpugn7Uit+Zt6KIQgxZlMbABU/yHQgw/aQCEM5hJHObRyMxIJcoZITDgDEQA4SAymQl029148x0KIKiN4/xclXoEhAyofZSjbwAvHn8JL5NIMcxgcOwEdFO5FKqy3ZR5w/+YoeZXZkRUPEkBDS5JRrUhoCERpLCt7SY8sP0BtNrLUAgkPv+FvXCCDkzlfKzhNMerYXK9rjPMYqjptlrvsJltVS+iAlVc/jkUMPgxqNCVgDRChMJA/4kyfrVrChMZH64bIAxpk4+KidUYltUbpRmeIBW/Eh/bt2m4901XQ6cJwNogVZiMNUMzxlzBNtW7kv2gpCUgEgF0zQCZXzFLeP6myfmZjBfhpzQAwkU4aEu/yYsMEKI0R02GIBt+ctgLD30Pwa6/Q1IfgzDL0DUTgdcEBx3wzGY0B8eRMvLs0KgAQjOya+5H120faACERZ5AtQCB5aN1AEKP3Y03LQmAQDhSchZDFSD0QzfJ5jsGCCyzmwUQIh8G2tgYHMT+ClQiXENv4krcs+Ee3LbuZthGE/Ih8Lkv7IMbdHA1x0UBCLFBeGQMpoBBbPIZeUHwfNdh+BJaOYDuBLAClW7Ml0EW1kAhp2Mi46LkEmAQEGTaGHtT1BqP1Zkrc3iXYsVyoHd9SpVnY0Mn2uQD5hBU8bTIxIrvSQyfBhEI5LJZpFem0La+GaB6G8RgRP4VizxVG7dbYA80AMICO6zx8vn0wOICBGV+pNwO6QQIESA4+C/wd/0d0mYGoSlQEMvg2deg5YrbUXCKMA9/He32tFrIpQE/aEKu921Y3gAI8xnABb3m0gMIczMI1DFcNhw67MBCs2jFdWuvx81XbMfalrVo4QwZHflQx1988QBcvwO5rLMoAIE2ZmIFuBYDx/nVMDGjL4kpIBCjQ/eBMOsi6etIhDrM0OdUYGYRZMBulPSdqJhVVcypaod9LmOw+vBAhQCJtvCi1GLlVqrpVNZdWUOrEKGyvibLBafkYGJgEnknh1W3rkTXtk7AjjxOGgBhQd/Bc/XiBkA4Vz17Wd93cQGCoCoNlLlApxFaCMMA7sFH4O76Bky9iIxMAd07sPKGt8BoacfwsV/AevGzWJaYUsa9xCBUAMKDgJaurqyNEMNZz1QGCFHaKUeRQ4l+p59DDEdzhzjE0JPoxpu3348VFzjEQGWSfU1g14ldeJk0CBxiqDIIEGS2ReGSuS+q0GF6JlanevGaba/D5u5rYWspWNKCQfoXTaAYGvj0Fw7ADTuQnS5j7UqBd963ASaH5s8wxBAxBqymIAafwwgSpqQzt4RFpp8FD8gHaJIJGMKAwZuyAjRSaFGlcUIUygDszGj8OXqHFcRUFC0KL/DLBGAK1jjoZJrmC0oqwtTYFMaHJmCWTQSJECvu7MKyW9ohE8ohs2q3fdbTs3GDs+iBBkA4i85rvHWuHlhMgED6A2WnSwujLgX0MED+2C+QOfAE7JZmdG64HfbyawE9DehlDB1+Ctbuz6LTjgECMQjNyPa+DV23fwBAQ4OwmHOX/fbVsZQX9gpAOPoDHM1ffABB6eTik7I6+UbBdNgygeXacmxdvRXbN9+J5akuUAklLjTGNRNUJcpSoOHTX9iPsliG7LSzOAAhYg1UqWcK5UgkiZD3BGQ5QFjwYQdAk7BAokkV54/rWigDqMqzMECoRQizN/1TCADmKp5GviNsmR7NrtBgZoMAEyk14Es4WQcTgxMoZ8sMGIzAhp/00XV3J5bd0gaRoG97pIVoaBAW82t6RvdqAIQz6rbGm07dA4sJENRxSZLuALYSXCGAX5iA9KZht7YBWhOk0aKsl8MpjB7+GczdX6hhEAggtCDb+3Z03f4ggMgH4TyLFKkoL9vr69WVT5k+VS+VwnlxXScBBCHQXx7AIycBhLdiRdPKSlGh8/GUs0WKpOAPZjEIA2P9MFikSPy9gGR1X5w1QydiYrB0tBjtuHrZRtx6xS3YvGITkkipOLoMOfdfaDa/j071ji/xqS/sY4AwPe2id5XAAzMYBLXLn4qpqNs/0fSgJlp0OC/5QNGD4UgGL8RuGMQU1IgCGSRQTRFmEixIOuGzdiGGD3ErahOK649OfX2pEkJIKrGumZAcggmgCRtaSOEEiXKhhOx4DoXJAuAQqWAqwacGOCkX3TuXo+PmNkhLsumUGoDzMUMan3GqHmgAhMb8OAc9MDdAcPr/CIm4FoPZi5YbI6tlElFpJnv0S0pVhB+tDyYvwIoPtaFJVfFRSg/Q/Kh+g8ExTi4MLAqYOPAjGHu+jHZrkulcXejwQwII5INwfgACFb8JZTvKre9A2w0fg9RXqvQxpnzVQkwCSvWXasVCpeWKqurFJYukyhBYSteMtZvEozqdoCm+TDRziL7SIL5/9Ic4VjiMyclJrEwux5tuuxc9Taugy4Tig+psAFUxW3X7VCNLoQGaAcSOk1CQxlxC8MY3czeZeVuWTUagRCLUCWgG2NO/BwfGDyIXZDA4dBwpSi/gTT7KdCDeStNghiYsL4E17Wtx+4Y7saXnerQmW2FJk1mD6hD67NrJ53UBlAOBT3/+IMrhcuRzBazqDvCO+6+CrVIKmGWIYIhqPd8oSkNU+RZRGEBlTqj0XmobtQkwXQHkPS4qRrDAFibM6HWV54+mDMMARqaqL1Qdk9ruX8jcUpJD9e7aP6QNomqbNMfp9wKSsorcENnhaRTHC/DKPo8DiTpjPQLhBzftoOfuLnTc3AFp1YCbBkC44F/5BkC44ENwKTZgfgDBM3vRPAsghHQCkT50jRZ+WhYtaKTC5sWCTj4q3EDVG5XSmQAFbbmh2k6li/ED34e5+ytoMye4VLQujAggvD3KYjj3DEIMENyWd6JlKwGEHq4OyRtBnG9e2V2iBTU6U3LKYOQWyXnhTC0vZBE/n3OKhHEhfAJ2UodFHgd6wADhR0d+isP5w6xBWGa24E133Is1rWthIMHCNbVhzbyotDEBKQIQlK1Cmw3lF1A/+JoGIxQwI6FeQKd3eg0VIopKKPA0qdlYdA5MsbyP/0P3JYCwe2Av9k8cQNabxtjoCSSjksQh9z1gaSZ0X0c6SOPWq27HXdfswDK7EwktASOqnqiU+DHCo/lKIINi/UApDPEZymIIezA9lcWydgcPvON6NCUjUSF7E1QbG3t/VX4iJVdBpcJOxKARI0BpvjYJESmcMFVCk7SRlBYrFun3Kg/jXF+140bfO2L3VKupTDWlSzIACIHSdBHDx4chSxKmb0UN41qc0dir93sVgLAc9DgMoBiDnI/nOdf9dXHfvwEQLu7xW6KtXzhA4GxyXpxpc4gr2KqFndiCeCuhJZhPX5LEYHSGUz+ZD0Bgq2XSIGjnByAI2Q6nHkDgUaNFMD5Fq0WT/hfCQFkAjtBApyt6HZ9tuQPiDak67LMiFOpkWLOununva9/H+2HNXl67mdHn0amb+R4JdtGjHXKgNI6njz+P/uIgRifGsH5lL27ddDNarXZAWNAr4Z2ZU1iPcvADPaDqGHxvOj/TeT2URI/TOT2HhOkoICHJMZPi1srHQF3VvwkCWtFpnNrNAj8JHBp4GcczR5AP8xga7YetE7ik07UOyzfQhCasbVuHnde+Apu6NyEhUrwJc+ZebQdXQB4BFWJRVF+VQoFPf/ElTnMsFQrYdPUybLt+OVJ2dPqehY3ie8ZncrpPoGvsuaCHAikNMP0QTa4BO9CQlAZMAg7kCyIkdE1nxqP+dWYFqE63uMThhni7B4HEQMLLu8gMTCA/loUVctBDlWGvDE0DIJyub5fK7xsAYamMxCXVjvkBBLcmxECbvdoPabNXIQNdUnqWg1DSaZJOkQJ64EF4EobdDFhJDufPl0E4rwCBtOOiDYpB+PgMBiEmekkxz2wIp63pKEsNk77AgONhzAvgkU00xbdlCCHiE9iFnyix7K26HdNpVynoaBRD+ChJF1k/B1c6cISP5nQTEqQhCUnERj4DQf0YM6fskZI9VMY+GgElg4HTuKdjdGQUPc0ZXN3lgesvkiSe2aaT3f9oPtHnKXMkKtwVKfeljpGxQWSLEygFJQyODMAyTBjC5Ndf0bwG1629Djes24bORBcSSDA4UMA1it/PAiOs+dNDBfOkgZIn8Rdf3AthdKClOYH1vR0wUeaKowofRkr/muGsbO/q+AwJEyZCpKWHNhmi3bCwPNmCpGEqEyTCl0YUsDpFSXLV8sW8VNCngnEisaNfCJGdzGFqbBphIeDxjlBuDVsUNzR+xnoMQhxeajAIizlqZ3KvBkA4k15rvOc0PTBPgGBUyz2T+pmXOjoRkRJaBnAzR5A98UtYfjn6vABSBCgGKXRtvBuprisqKVFLjkEg0+dQAYTWbR+H0MlBkHQW6hjFaZsR8HGhIRcK9BXLGJUaCjDgGpbKU9cEZ26oDXBpLph0qq/SzJGkgkM75LAo4EeHR065Y8EphQYUMIoPldUDtRIKkl02wQ1PN5ETGo6O5fHLsTJKhSlct2wU17UOIh2WVXgBKvd+dv+wxTC7J8YHWLovieA0lJ0SgsCD55YwNDSIpJZAm9GMrWuvwy3r7kBP+2oktCQL5hgQ8eZfOd9H87GGs2BdhMehICltuJ6Gz37xVzDS3bBTFhImOQYS2xFzRSxrjO5DgCjCDbx/kgaHFP4WWnXg6hVprGlOoxk2MzS1TAmfxTltkoMoc1xnEp6qP9c4T4XSEEUkcCTTxDBELpNDfjiPcr7MHguc6sggiPifiC2rDNHpGIQGQFgqW0wDICyVkbik2nEmAMGKnG3pNGpAD3KY2PtdBMeoCNNYtMiECPQUJvU16Nn+G0h0X6vy71nARfHq+hoEUqEHsUjxNvJBOA8hhpMAQncEEEhgqRIZ6Nxbgob+soMj2TLyiRQcy2ShF9HgvDFF8falq0GoptOrzUpNZDrhGnSq1iSC6NBN6nr2uYrj9vUAAqdKKrre1XUMlgI8f2wSfVM+xmQCzbqDW5tPYJu5H01hDqFO20+sM5j5JVLggEJRdPIXsBHADktISAeWLmCQgr5QZBFlV1sXbrpyGza0r0VK72Bwouyj482KQFAMECIOpRJ3iS2YfQVSQgukQfnmwy9CJlsRSMEhDOlTGE05NAoOicRi1Eg2yPIUCUt4sP0E2vQrsWX1JixLJZAydOhhVItk1lrButBzuX7E+CKyl6bJy5qPAHDzLkYHR1HOlaC7xGzEDpMqxVJ9N5UldRXDNQDCuRyuxbx3AyAsZm827lU5EdECSTQxnZqVbW0RovhzzMhiqGEQKP1K6Q2iDaQ0jLEXvobWqadhhVMUgeaYvac3YdK8Bqte+fuQTeujhZEWb6HU3rFIcU8kUqSfhzoC0RqlOZIPQj2AECI4o2JNkWNNRXQWTwKd6z84ze9A27aHIDRiEKhylBJ7B4aGbBDgUCaLE4GE39YJR+1kKm+c2k2ucxXF99KdXFQQS+2k6rRO2xWBA/oh/Y7EhPQS+lnEniuKPL6YsVY/IM0AhSsKGrBnNI+nj41hXDbBtZu5fHeLP42dqX7caR1Fk8gh0Iltmlnip0p+Kyqcgh6WVoLmjWF1R4Brr1yGlgSd0dVGRe2jGh5WaCEZUPjDYzG+yjNQintKc6QxIR4hPgjHMX/1TKrWAQ0wiWLJUZCyWMiUiYggfvbQUn2kk4aGQi3Efqj7MRThQiMeZG4MmUNFpEqvgulsgx42M6eg6QRaSO1Ro2OItCmRj3HUo7GtcSwDrdIONXv9KX2SZg9PjEDoGYlBIK1IabKI8YFxfl767lEtFBpXZjP4Buouypq62rSIY4qgVyPEsHS/2RzuqydjWspNbrRt6ffAwhkEWkUp5sonK+FDZI9jbM9jMIt9MGQZOq88JjyzDV56PXpvfCOE1c7irJBT0mhboJx1HxOUxbDnK2i1xhU9L2mzbkFu9duxfDsxCJFR0oyOpGJNj0MOfR5GcRxaiQCJEokxvqmbZkhnQItFclxOitsQ2eFKHR5a4bS8DW1bH0IoV3K6pWN4KIUmBhwfRx0POTsJ31T580p+OYsprz14LdGBn0Fgx0dZrhoY0+nq5B1vHupfcbKd2ojJsZ+iKPlAoj/v4cWBIg5lgaKZ5jA2+WDQNro8LOP3rk7gvWuSaOVNlTCVuhcr6nkEKls7IIvQRAbS74MQh2ElpiA0JwoWqMZWN03FcDCwnX3Fhgp150E8aDUbdwSUeGbQhhqFAKrdQz+XjAkMLYQuypClafiZPgRjR6Flu2G4vwNZfA0E0vAMBbpUVkad5vHPo9qVDJRrlSIqqVIBzxjgEJMVA4f4RF+97wydiercSk8RtNIDE1ODY/BKJZaIBprFVs8VpmCuuRqzRxVupgEQlujXWq1IDYCwlIfnYm3bmQEEelqyVSYCVvNK8LKjQFiCsCwYpNLW2VAWmtUEI9XOgEERzHUAwt6voMUch3FOAULtsagmMsw8uw4HLXCb34bWrR9DoK9EKdQx5Do45rqYFhocO8XgIPKOU+GEi3XI67Q7BgIVkj4CUNQ98QmTBZpSg6sBowUXeyeK2D9BAkcTjpZGSEd5UOye/As0dAkHv39VAu/rbUZbdKyl3ykAp7IIFMzyIEQRXngMQXAchjYCyygBhg9J3glR+WPe9k4yqzo7UV+tHiKSNrLwlp6CE/tIY0FtZuYihOaXEGT64I8dhFYegxkEQOlqiNzvoDhxN0S6CWZ3GkSWGDEFM6O/axMHlRJhRsghrqioOkf9NmJ8qsZHEXCIfsBAqXZ6RwXTpCchiuAQyPTABLxCiQFQCEsxMqebwA2AcFF9wxsA4aIaroulsWcAENiLLi4ZrE6Aat2WMDiXSyX8UcIbL7MUpNdJMEUR6wsFEEhhr8RmnGrHZW2pCI7K3PdkM0qtb0HL9R/DSLASR3IORjUD+YR6DTSL31krfTu7rWlpzQ9mDGKKmcFBzVmdT6+C2YGc1PDiUA57xx0MuwbKWpI9/4jI5uJc0amZTqcrQge/f3UCD/a2oLWmoqIyeQ5AFT8hSwjCYTjeMRh2H3QUYBrkmxHADwNoVLkxyrqIe6wCEiKjqrOK6dcUGoo4hYqSQU1qddK2wiLC4hic0T5o2RNIBJPQpA8Z2pDOFhQGfh1TI7fDWrUMK25bDbPNhFRWonUoBJVFovb/6u7OnxazBkz/1zwZjUntg9ayDrXChuhFPH5FYHzPOFrcFuT6M3CL5UhrQPNYAbRTXg2AsLS+pKcbrgaDcFGN10XS2PkBhFqjJKkpDQJTlFyYiSxx1aZiB3Teong2cayRKUx80omc7xSJqkIM4y8/CnPvV9BmT7IavhpieBuWb68p9zyjNxceYuDlOLQgDHKQI7MelWgfkCufZqIU9qC4/D9gsucD2O8tg5Nqg2+Y7AjIHAPpC6I2sNL+IhndeTcz2h3J7Ic1FZSvT6WICTxRVoBmYDDv4Kd9EziQ11DU2yB0itOTnkSFbVhBoKsgji1CdAVl/OHGBN7PAEFVMVQAgkUDkHICjrcXAodhJ6ahYZI9Ephd0KlWAN2TRITETNTp8djJct4PeeoXEqiNga5JoQvhcTVSQ3rwhvfBGTmAhJeDzeZg5MZIsXwborQJ00ffh1zmLlhrl6H7nl7oHSToUOLJ2d4UMRirPFOk6+DCiQQqaK6RoVJML7ABU5xuGdWRrtpyzAQOtY/oAcef7UOX24Wpvkk4RZdBOoP2uKT0qbqkARAWaWadn9s0GITz08+X2afMDyC4M9IcI2qUxU617oEEEcgXgfLi6VzJtR2hs+MeLUsq9n+hAIIMTYSUi86GNkQiU7Z7Ajl9BYaMm3HIfi28dffCS61AaFA2Banno5NWhA7iCDAzCZcQSmBxGoOhOPZN5YbpnA9MeB72juTw0nAJUyINX2/icAJnHZAkj0sXq92M1fCKcEBX6OAPr7bw4FoCCKQTIQDoQwhiDUbheAdgWAOw7QJ7aJCYjk/Q9OaYnpckRFRJkHWvGamEZ/vVpe+C+kOqFM2bhsgNojRyFHZhCGZYgkkAig3CtCiObyAsbcbU0fcjn9kBc20HuneugbGMHArVSX22JxKnV0bmU+zJJIYWOwAAIABJREFUwHoF5Q3BsCAuxUCTjH5sRZbJ5DsSg1NiPiLyYc556APHnjmGruIK5PsLKJZKhHRhkoNmHS+Kk3qvARDOdkKd1/c3AMJ57e7L5cPmBxAcoxetNz8E2JvI8aXitsbsZs0KGGmhlfiMC8wQgIjqzTNwiGloOiURg/ADmHu/jDZrko2GYgYhu/pt6DoVg5B9HHK4nkgxrp8we0NRWgMSaBF1S+0uGl0YxFUYSm3FdPtOhF13I280IWCffnVqVfuUonc5ch75089Qe1/kU0WZP0V2PxRnlxocQ8dkKHB0IoeXRjwMFgKUzSb4ms0bOZ2siSGKZXRKgKjYBN7ghYmu0GWA8P61SbSx338ZIhiB759AiBOwEhkYBhkSBczOkOhVAQTVoWzCVKmDUL+sc23I5+yGQeX/U9gAwkVYHIU3fgQi04eEKMAi0y/OTogyGPgEruaUKF6DzLEHFYPQuwwrd/TC6jC4ZDN9Nypuz1EDY4DAGQQUtwmA0BWYHsvCHXfglwLIMApvJDSkl6fQ2t0Ku9mGZmqUgKAyNk4HUgOg75k+9BS7MX28gIJTYoMok4pcxW6JDQbh7KbNEnp3AyAsocG4dJqiAILyyFcV2zStiLD0FNwT/x0J/wCCbIiyuQ4dN35MAQSigQkkREYytSpqFR+OFrfoTMTpgNFyqjTnES0dljB64CkY+/4XOswptTjrOjzRjvzq+7Hi1ncDOqU5xrYy8aYfIJx+AuHop2EUJ6AX1VJNAiylkY9KGtNHsSKdFOghYCgfhkC0YEhbj8OJWzDe+Wsod26Fk1yNEM1Krc6AR4VQVFZgNf7L2e2V03K0kS1oMpwP2qF+VJ6hWQQEKk1mrRplgCiAwLUapI6BnIe9wwUcmXIxIdOgsBJzQpzaqaogxmmCBAJdI2BpnylC+BRaCjX0BD7+YCMxCDpaRAZO+Qg0HINuTUPXHUAn2ylyTVSKftqAVS5+fExWAKFWSDizq+O5Vm8A4nvF9QjUmLL/RiXzQdXRIGDDQkRRBsoZ+BP9kJPHoZXGmGPS+ZhfzeWIa0aolpkQhWsx3fc+ZKd2wFy9DKt2roHVToXLYp3BzPZx7QrS5BBBkNMxfTiHvpf6URjIQYyHCHzKlFCfGSZMmB0S6U4bPZtXoffmXqCDiDsKA6mUzjldl3yg/+cn0FXqRqZ/GsVymbuWxMDzmoUNBmFB3+wL/eIGQLjQI3Apfj7739PurbwJlEUtAYR/h3vio0h6BBDo9LgW7dv+FDKpGISZ2exxx5xq2VEbSuxPp8sAunAweOgFFF78G7Tqpci2l7aMJsi1r8bqW98KGIlZn0X3CRBkf4Jw9DMwi+PQC2p7idPUatXoZHJE7nG83hpJeLqFfnklfuDdg4Pdb0M+tQGh3QSXKg7GhkdRMSA+Fc/1SDVpaLOnhYIV9a7FFS9EOOWkD1In7/p1AOM1n02AomwC5T6ggBDtWtm8i4GxPKY8Gy4xKsZcz0PiPXZSQMlUiYum0OAaGuzQx9pgCn+w0cQD3RMwy3tgJsdgGnllQBSByMp/K+mRJ/dbhaWYjXtiq+c6XV3tmyhcwToYVaRKY+ZDMVk8I6UHXXgIpvpRGj4IozCJhJeHCapASl4ItBFXKyzWfpyUFkTxWmT73o/s1F3Q13Ri1c5VsNtNVaqZv0/Vd7B3CM1Usll0gIGnT2D3D/dDz9po8hIwPMG+G+xFQSExLQFhlBCaJbjJAJ3XdOHGt26F3qVCe0Zg1HOuVh/oAwNPnUBnuRtTgxkUiw7XgKBnaQCES28xbwCES29ML/wTzQkQnkL5xMeRcvdBZn04xlq03PRRyMQ1EDoXz52j7XNsJkTfkggrquhIdK4ufAReHm6uDyb59Feq3QGipRt664rIrnaGfJsBQpj9CYLRzzNAMAoEDZS9LlX4U6dO5YnAjAGd/swESrINx2Qndpk34Tt4K15I7UBZb2ehJZ2ckxoJ0ijDoZqbHhhqk4iv+K9qO6zfB3Sv+l4MvF0s2pjPULXX3HVm26qfR21X9TTVBkFGRxppLYTGfydRZqDbKGfLVH2IN9SAUlYrm+PMpusIYAq6F9lNK+MdZuA1H61iGluCo/iNDRm8rnsC7VYWoNRFKvtdA6CqjFMk2avbPVWr55M6j6yC59ztYi1D9K6IVueqi6yNETCCEjR3HO7oIQQTfbDDAvQw4HlHbSMLbWKUTEHtVu87E4BQzc6MClJ5GjL7pvDTr/0Uab8FhmshEVL6IeBYrFrk4kkILCXYNMsssHWEh9Q1adz+7luQXJFQtU6i8tcn9Q0BhH8/gU6nARAW7Uu3hG/UAAhLeHAu2qadEiD8CdL+XoiMgGuuR/NNfwRpb4HUrUh3UOdIxwqr+kc6Ve6ZBF60AdMaSPnltIgrVRb54pPVshZ6EBbR3hTtVuWD1RWfPH2E2R8iHPkKjMIEjKLPtLECCErsRQu61KjssIW8lkJOpjCiLcewvRKH7WvwSPhG7E7cijLSQNFDp1fAzvXt6NICLoMcJf3xBllbhyBOT2fCusa+N25dtY2qxTOhzcyI+WzYUwEhMzb7mX05u8fr30P9tFqPIIYy1ZM7K+Y5rU6HGwqMuD5ecg1MaC3wCuTLq2ozcN2MOePVBMRUSIfG1BICCbjoFMdxa3ov3rymgLs7MugyC9B1chWMxqnGH2CGrUGdokjqKdRpv+60mkuEQPfi+9XSQDEXoZ5Jei6C6TH4owdhFIeQAAklo3oQkVNmPO2IaZgfQKAQw+qTGISZzymQ7yvi3//qGSQmLdhhIhLx0hwWcKwQpmVAd0MQLtE1MviSsIjlgoZiUxGrX7ESG199NbRmgnFK43PS1QAIF+2yfCYNbwCEM+m1xntO3QOnCDGU+/8YKX8fgmkdZX0d2rb9DrTUZvYEmBliiLep2Ue52u2rdoGNNnx+eTUCrah5EkCqzekkB5kKQPAQ5H6EcOSrMPIZGCXafNQmxdFsclWkiotaAhOyGeNaK3JGO7KJDhSMNEb0XjwS3Ivd1q0oFwKY5QBrZRF/uPMKXGNqSJGFMOdiEIChxffkKHh1C1anPRXLJvEj2Q9XBXWLxxecPIyzayLGKXpqU4399RXFrYrw0D2irJPIw5C4jkAC/b7AXx3L4iWvGUUCCD5pDRTYm5GPPwO8UHoreV347C2RDAVawwnc0/wsPtz7fWw2RtDqZ1ij6tJw6qRTILZGFQaqXJU02LmcB+eawvHmf/K8U22OqzDG6ZURoxBSgSINbr6AIJ+FFZRgURZFpKsgnYV6bsUs0X/JaVJdp2MQ6gOE+Ak4xFAKseeRfRh+chytThq6MBEYIcp2Hql1FlZdtxZ2ykZQ9DHw8gDyR4to9pphSVXt0jN8aKuAG955HVqvbYFOIb96dFIDIFxWq38DIFxWw32eHvYUDILT91FYYh/cnAHRfCXSVz8APbE61k+rBvLmU7sNVv8e7f/R66r2shH3X41CU8GnaP1VcEG52KnTX9wPaiNWfwKI3LMQo9+Gns8yQKCLrJTZClhPIKs1Y0i0YMpchoLVBldPstFP2UhgHGvxr97rsN++C04ugBGEWI88/nhHL64zBJJEt7NNApn5VAFCvEXwoTUqBiRC9VwG17JWhYgqYrtK/DnacGZx4bWnyhmpcDUmdyelyNXshbN/p3qKBJlkRqUjZI8KnYtNcXYBU+YRdOAiRHSpKgcToY7PHJ7CU14zCkUP8Ay2TKasjfi+9WZkoCXYJ4BYIFsY6HT78IHOf8GHln0V7f4IrDBEaKTgas3QtSS0MIaW8X1r5g7XRzg5XsC+E3PQLRwOqhu2UTOpMjuJYZIeJHwYmILuC4i8Dz2IwlFRESnFlqi5VmEumFBaJIAggOKJPJ79+i+BfgPJsgFDWnBMF35PCdt//TY0rWlRI0mVLCdK2PetvSjtK8MMExC6srH2Ei7Wv3Yt1r9+PQx7jrBeAyCcp0V0aXxMAyAsjXG4xFpBp99akSKdhEsIi0/BOfYJmNp+BEEK6bVbEbZfDyFSqp7BjKNx9R9z0eZKnR6fZKu5BqzoJvMWSQslbQRC1UmqFDqIF79agBBCZg9BTjwB5PIwyqRfIFOjBBzDxnhoY1C2I5dejaLZDFcIWAYZ/0iUDQsTWI/vBm/AHnMHyjkJw/NwBbL46M71uNbwYEuKvSsbaY6pRxsGba60ndCJu0QOu/Sx3E6BhKUjYQIJTUOSVf5K417VKahT/YyU0BqEMNfPZwOw2EWQoRIPQjUcwjFzAGWhIVMM4QudQRH5DyR1iWXNFlIkuIsqIahTMlkIA+Ohhk8dzeFnognFPMXlKQxEAIGAQr1tm56RKHFKewzg66S8t7DCOYLfW/63+K32ryGRn4JT1GEsuxGJ1b8GoI2ED4r5jzb1WjjArJEyY1DPFbsC8j4fO//NmmEsyKzP01RCLNz+AFK6gMjDm/wOUt4EkM3B8IhDUfdXPVnLYhCLosZ8/iLFUzMIdPvBXw5h/z8fgDFpIBGa0IWNvJbHhnvXYv2bNkBaIQspA8quCHRknp/E7m/sg1mgCozKMMkzXaSuSeKW/3QT7K64PsispakBEC6xtfrUj9MACJfVcJ+vh1XLYmxEo5FYEEX47rMo9T0EW38ZhtUKvXk9QjMFTapSz7SRV7aNGC1EqvJ6LVf0e/ybWafE2Sfr6GVzi89CiOIh6OUpyEIZVBygLJowoTVhTG/GtNEC12yGw3n75JSo1Oq0W5ImYUxbh3/zXoddibvhZiUs10evVsDHdq7BFgOwKyd4jdPNPE2DKyUmygH2jjl47vgU+iY9FHwTksyUaAO2DHQ367j1ijZcvzqFtc0WkpzoTrn9tCkrQ+JFEylGKXRUsS+UpO4g8yegAB1PHBzDt18Yw1iQ5tKEpnBwZdrF773pOqxJKyEcMwOR8Q61bExozCD8LGxGOetCBrT5G6Cyz3OJIdU2rtwyVQ2GAMv9Pnyo7Zv4SPvXkZ4aRujbQM9rkbziQcioNPNcM1vBm7jcZG1ZaPJJiEy5yFmRQAahSUpJJVdDYnkYyKjCEdXgSswGROEt9miYQqHvc7DLz8LIFoGAQFDEhM2gvOLZPZtBmR1isCGKW5DlNMe7oa8hgLAKVpsdfaeUxTh7b1DGh9Bx6CdH0P/IIOySqkxhigTKVgFbf3MLuraugDDVsxPrQ6Eyt7+M3f+wB+UjLiw/wV0Umg78Dh/b//MdaFqfrj+t5gAIytFyHlcM1CLoxPZRaQc9d3eh4+blrClWUC8GqfO4Z+Ml56wHGgDhnHXtZXxjRR9EmwBr/tkf33VfwHTfQ2iyD/PJO5Q2F84xaGPiGH91kz/7OPvJtPKpR4S2khAJocEv+Mg5BsZlKyb0NpQIFBgJeLrNinxV0jgCCMKAr5kY09ZHAGEHvKyE6flY8/+XuP74ztXYoiuAEG9+QgbISw27h/N48kAezw8D03YTPFOH1A2YwoQZUAyeNgCXVfCb2wK8flMrtq/vRLMd12+oDVAsznyjzZvcDH1N8kZO/3tx0sFfPzuIfaVmlNDMcf9E6GOjkcUfv3E9VqeUZ199gJDBzwIFEBASt3NqgKCeiOYDPSMVOfax3D+OD7X9Iz7S8XU0ZYYQBDbQ/QYk138Q0uiIDKjmeH6VYxt1PhVpChSTQ+wSYxDShChxK5sNReGcKNrD7yPGg42cODwVb+YROOONMYPC8c/ALj+jAIJPc0OFEBj4njYBcCEAge6nao9wDi2ZK/nAoSeOYuDfBpDw1fwkloA23ht/eyvaNrVFegflt+HrAiITYN839iH7YhaWn2T7ZmF4KFh53PKBW9F10/IGQFicr9RFfZcGQLioh2+pNr6K/pm+ZmGah7K3C/v3/z9IJE5EKYT0Ow8aLXLS4tNaVDSu5sFmFZSp88iKDp65DM+VLnhqK2MNVijhlFxkhYGC2Q5Hb+H6AHR3ls1FFDydbCl9kZz6FgIQiFqm8MTzIzl884VRHC4vQ8loRZmL8KhaBSrHgtQKijq3NR9Jt4x1Zh7v2tqOu69cBouzMej8pWpQLN6lLI6l5BJYyAgdX/5ZH54ctzBtLeOS3JTdYYcCW7QMHnr9SvSklen1uQYIv73sG0hnhhD6CUgGCL8OqS/jza3+RUW9KATDtafVBq/7nBPDYkHhAkEBpakReKWCSmoQgJ1IItXeATS1AnoTNKQi985Y5ErzLQpd8JsIIHzqnAMEmxiEiGlTz8QxISDQcOTxo+j/7iAsL4FQBjApZNDk4cbf3oa2Ta0MflgLISUc3QNywMvf3IepF7KwPVuZlGnkTVLGxvs3Y92r19Q3S2owCIv3VbsI7tQACBfBIF18TayebGVkk0vbXc59GbtGHgYSowipah2dJnUDYWhHqniVS6/it9WnVif26IoFkPG/o8p5ismtVdstYNOs0MAStgxQyE9h2ikg0E1owq5YI1cVAEQhE/09T4CgAVb0YAQw+ksBvvyz4/hFrglFs4VPspog+l1n/YGlSwgp4BokIDNg+CVOS7OFj03GMH7/VeuwoTUBi4r+cP2CBTzrKSYTNdGTARLSgBVqKOjAtw9N4Gu/zCKfWgFPJjmsoYSGwBZtAv/z9avQnVL1AVQsW4G8aogho0IM02fGIBhagE6/Dx9u/yd8pP0fkJ4cRECUePcbkbziNxRAYFFFHSGipL1Tg0maAhn5ZQgJS0yjPPwrZA49jfJUH5JGASnTZ7tgutwQyMtmiKb16Ln6brSs3orQauPQDrMOURqmclGkz51Evu+TSDjnlkGIAYKy6VaeHJxpIHQcefII+r/TD7uURkAAgXQjVhlbf2srurZ2Mj5i0y5JGQsh5FSIfd/Yi+yLeSSChDJ7IubI8tGxowtb/8OW+mZJDYBw8S3HZ9HiBkA4i85rvLV+D8Rab1JMq0I9RN5LTLuH8OzIPyNMjcB1SxznX5buAvQE17kn0VYcLa6N0s4dr55pHVTLIVQyyGY1kbeROvELMvUpUaxZuCjmJ1Au5yLKOTY4ivURUTw6chakTf2UDMLdKsRAAIFCKL6m49ETOXzpp4PINvdyuWjKeEj6DjpkFl22hxYuS6xjULRi3GjjIk8+MzE6rNwA3nt9Eu/dtpJMnNk/YqHBlLnmLd3Hp7wNQUBFw4s5Bx/77gHkm9dzu6kKIoMig2L0wGZ9HP/Ha9ZgVYrSEs81QPhWBBCGZgEECjFQmmUdgECbPTQkuB4CJZgK6G4eE3sfhX/0e2gzx2HRaVo6qkiSSphUHgxGAoGWwnQ5ibDjBnTf8T7oTb0wuOqoYhA0rh9Cn5tBvu/PzzNAiNJgCR4JHcO7hnHoG4dgjhMTp1rooow1b1iDja/fCJkijUVk6a0DpSMF7P2HfXD6XJhUPZJCKbqAb3pI3NSM7R+4md3PT7oaAOGyWvYbAOGyGu7z87AUI+VTHZv0q4wConWn3CP45fA/w7H6MD09inTQhO3X3g3DSETZCObJ6nEu2BMLw1T7q+ChChDUz6q/IeZiJg5QG8hsgBDn+RN3MZQfwGRpAvkS1bmfVt710buq/v0xsxvXT6D0/joaBBYpFvHQztW4xiCTJU6khKMb+KPv7MXeoBM5sxWQNuwwwHoxgLdf14wdV3Whw5IoBxKPHszgH/eVMGZ0cmiDxJGml8dV7lF8+j3b0cmmUEQNn924xlkMdCPK9KAshb6iiy8+eQwvuD2czkkx+lBTIjlN99jAaLM2if/xujVYmVIumIvHINB+T9bbAeozCCRSvPe0IQYaW+J5DBbJBpD+NKYOPobgwL+iHWMwGRyEbBWsJLXK80LXSR9DoQkqQKQhL7tQ7tqJ5TfcD7NlXVQo7MIDBC6LHgWkikMFvPjXL0I/Sl8DtbMTMHdXlXDTf7wZ7Ve201QDpZdQ4sWJJ0/gxKMnYBZJYGqR0TiXLPcND+b1Sdz9W3c0AMLZfa0uiXc3AMIlMYxL7SEiPp1PvUSXE1YIMeUew3MjD8NBHwq5ESTDZmy/7pWwjFQkJIur2c18HhXbjgvlqG2eToS0OfJ5nhfKamoaZTco+l+FaFVrYmOb+qp/ev9YcQiD+SHkShPwCCCwoU2cwU7K8aoKvSqmI1ZgDpEiCvjEzjW4RqdiNlyLEmMFHx/+2l64y1cjZ6XgGzZa/Tze2D2ND9yxDh26Dlv6cHUTR8oSn3qCxIGd8CwNrm7BFC6S/S/g737nVVjBNSKp65S9UWysdLrZoPQZFARgvXtUhU+p4ilrYVKG+NbuEXznUIipZDe/2hABPFgIDROGdJEQPgOET7x+DbpTBmg7r1hGxyGGUMNfHF5YiKEWxJHJkKYFWOEex0fav4UPd/w9ElNDkI4CCIkrPxiFGGLe6eQnDwV7Yarz9PGfI/urr2I5+snIWT17GCC0kii7JoMCNmey2RAaulbmkILvJpC3VsPc+GY0bboXMNuhEXhk3ErvmUL+6J8j4T4NPVtkPwSFV1WfzuXYWG3t6USKHcpJsc1SRdD4Y6t8GfN0JYl9392L0SeHkfaaOezgawLFRAnJ9SY23rURrT3NEF6I4UMTGH52GMaYBisg9sdCoIcIdR++7sLcYuOej+xoAITTfZEug983AMJlMMgX7hFpGxVcgY689KfdPjwz9s/wwn4UcoOwRBNuv/5VSBktkUtf/ZYyI0HiPT5V0lmPTm8KFLDinTWK1bRKwiUs3mMsUON8x2mULAWs80ESo4URDBUGkS+OwStNR5bAKs5bL8wRZ2zVAwiG56MXRXxi52psJoBAKEnXMJF18Y+/GsdQoYxhJ8BEOYRZmMB/u/cG3Li2gySASEqBUNOQ0YD/85HD+GWhG8WkEkhS9oDdvxvf+N2d6JAhTE63jE6MkfPi6cebNnMCBwRZzKi2ofJnKEsNzw1M4a9+NY3DYScbRFHbLeHB0W14ZgKW9JEMXWwyJvGJ163BipQZZTFEfEsFIAB/Eac5zlODwGJTHlAKC2jQtRDdbh8+zFkM/wB7eghwbEgCCBt+A1KLQgxzBFp4lpC2wJvA8FP/G62ZnyGtT8MgkyOqwqy3YkTvQXr1bTBbe2AIH7ljzyPt9KHJHOd009DX4evNyLfdhNZbfxNG2wZoBDxYWErMyRQKxz4J+ySAEEc+TpcCWA8gULEmSnOkYk2n8UGgbhdAeaSMH33lCSRH00i6VC1TQ6BTOEhD2OTDs12e/WSOpBc1WMKkjFVowoIkjwTdR2h5sLfY2PGhOxsA4fRfpEv+FQ2AcMkP8YV8wBggUO0B74wBAunOicQ2hKqjQLFkj4oyCT8SO6qFWmVMaDANEj+asHQTekjbp8ELYBgdcesz8jFAGEK+OHrWAIHTHFHCJ3au4hADhSuolaHQ4OnKjbAUapguC5TyOWzoboHN+fYGkiJkMHDCFfjkjwfwq0IXygkdpvSQFGV05gfwv953K5aREj9OuF8Ag0AbL4U86IROIr6Q4grsCmjgkBPgaz85gaeKLSjabZzqmCwVEJRyCNq74JgpBRCEd1EABAaEQsCf3o+Jpz+HZd4eWJLYAwkhkhgL1qDzjg8gseoOCL2ZNSiieASZ5/4eqelfIG04kb+SjYxcjebtv4fkqtshODShmAsNcwMEZdx57gBCrMuVhmAvh9yxAp74y39H23QbUr7SjOiaDT902HiKCmlRCiR9N3zNAxVmMKhug2YgNMih0kN6WxNu/+AtDYBwIZfOJfLZDYCwRAbi0mzGaQCCpBDDq5A0mpkZIKFgfM10ASQKPQRkgJwzjcGpERyf6MfwxAjyxTx836u4CaZSKbS1tmFN52pcsWI9ulu7kNJTvCFTPQPFH9ST9S0+QOhFCQ/tXIXNhmQRHGUmEK2tqvpFWoboxMzJihQrj5whp3wT39s/iocPuBjXV3L8n9wo02IS93RL/O7d69DGsvSqQG8hIQY6OdIfqh4sNE6oRDE08Le7hvG9l0Nkkt3wjRCpsIyNRgmWaWF3KQnXauJ2JqWPTfrSZxAEl44WcEd+gdzzn0UnjnAcnnQtBdmGcterseL23wT0ToS6ztbJGjw4Bx6Ft/+raNeGI7bKRDZYjtRNv4vEulfxZkqxe3ZqxCQKRz9dl0E4lwChNmlH2SVLGI6JiZcz2POD3fAHfFgOcVI2zz/SltBIU3+YzSaSrUkUx6dh+ymutBnqIQLLQ+cdndj67usbWQyX5qK8oKdqAIQFdVfjxQvrgVMDBFs2c4ghqVOIYab1bnWz06BxDXsPA5PH8avDz+PIRB/KusOp28rAJqK2ayohGp6O5eku3LD+Wly7/jokzTTHb2lj4Bzyk65zBxA2kUiR6X8lhKuAoNhsia2JTUyVPBzOTGOyHGL/qI9nRwWGtGYIswmhMGGFJWxIZPCh7T24aXkSNhf8IUSxMJUiSfaoFWRWpWIuIRzNwM+OTuErL0xj3FjF1QU0bRor5STefeNK7Bkq4UcjCZQMqn9AtSUUQPj460iDsHRDDCQVoA3RGX4O+ee/iE55EBDkomgiK9sQbnw3lm15FzTSV2ghgsjcKDj+7/Be+jLaxFGOE4TCRi5cgfStv4tk7z0IdQ0GA04Kd11YgEDDz6nAxCgFGqQvkB3NYujFYUwdyqE05CL0PARmCL3VQseqVqy9bg3cSRfHf3wUZikJQxgMEByzhCvuvRJXvfHKC+iDEBUBW+C8Xtja1Hj1fHqgARDm00uN15xhDywGQCBaPsTg1CB+uuunrBEQCQFfeko5X5u7EO93tPkZOlnGoVm24NZNt2Pbhq2wpclV6uqnTZ4LgKCcFDcbSqSogElVUMcSCeV8w3LBZ45M4B/3jWHITSAXNKGUaIFr+CSlQyIMsBpklNSB16xrQ5qAAZkpUVgiEinOd5BUjgl9Lgk51efvn/bxuSeP4ECwAq7WigQCtLiDeOe1abxyUw++8fwwHh1OoMC+DRIJEXCIYSkDBDX7KDPDgz91BOM//zK6wz3QZIGFmWUv1uMJAAAgAElEQVStBYXu12DlbcQgJHiTZbGrdFA+/EN4u76GVn0UgSkhgxTyYj2a7vgwUitvg9SUeRYxCLqYQKHvwjEIsXg2CrQpu2iyji4D5YwDL0ueIyFbSRuWiURrEslmGwcfP4ITP+hD2mmGGVItBh8FI4ebP3ALum9ZcQEAQiekpY4Kqnr3woDvfOd/43Xz74EGQJh/XzVeueAeqAUILqbd43hm7GG4YT+KuSHMh0GgRXjan8ATz/0YRzLH4RkeqFYAJWfVLh+85XFlQRInUmaByxXtTD8B203grTvfjA2d60nJAMGb6+xrNkCYUmLIyIxmoSJF0iCQSFEBBE3l2VdMdij5Tnnok9aAqF8fIR7bO46/fdnHMDohJFnmBtCsMqTvodfN4z/f3YM7VzWhgwIulD7KQkyD0/QWdJH4L3LkI9+DrKvhr58+ikenknD0Ns6NaAuKuNGcwH+/bzPgePjb50bxyIiNPAEEKqckQ2w0MnjodatPYhBooyXifeyMshgWT6TImg8Qe0OVJLMYfuqraJn8CVJmBlJQOMfCgLceq+/5fVgrNgJaitkF4fQj8+xfIz3xCxhaCbLVQFhOwkncguY7fh122yZV5ZPYBqLrxWgEEJ6ZlcUQuTOfIw1CTJjF9bVYgxMRVNKL5ptFFAoljAolSAw0aKYJN+9h93f2YPoXGaTdZnpsBAkfblMRd37oLrRc3bK4VsszpiiNjIqxCc2AX6nF0AAIC/oen4cXNwDCeejky+8jojRHjvVTFgOJFAkgUBbDw3AFZTEMIyEoxPBqJNnOtn51P7JY2jW8G48/+zirsCkVy6BNMdCRlCm0NbWhpaUJGp2AfB9jxXHkRA5CJ1U+ZT5QereG7uRKvHPnu9BiNs/hG0AAYRRDxSHkWKSY4RM2WR8zC18nLHGqLAbT89CLckWDQJFgvk+0WXCVg6iqI7EHRQl8+8UhfPOAQCm5EmHowLWo78j7oIRl5SLuviKJX7u6CVs6E2gyyF/CZA1CrZ/NqYogxfOQi/tKCSMMkYeGxw5n8Pd7XfTL5ezcSBkKVwQD+MNXrcO13UlMuSG++uwQvj+URNEiX38XtO9s1vP4n6/tQU86Hj1V0kiR+hrGQspiWGia4+IBBAJQlN9vRnPAGX4JEy98CZ1aH4ywzKJXH8swTVkM62+C1dyD0HXgD++Cnn0RaTPHzpEiNDBp9ULf8GZ0bXwbpJ6GMCian1LpkBhA4djnYLuLBRAsiCJlMbw/ymKgNMc1sNtNyGg+MmsQl4Ygx8ggRGmkCJEVcF0HpawDp+jCXm7gipuvQGhSMI7CIZTOaMAdLGP33++Bc9DlrAZSJHp2GeY6ge3v345Ej/ImOek6E6Ok6LujbMojm+so5OYaJmSiiO4d3Wi7pYsdxbjqKr12gbj38ltnz/0TNwDCue/jy/ATFg8gBCLAw08/jL6pPl7ASIxlhRYSfgqbV16DbRtvREtTE2sRfD/EwaFDeHr/0yhq+Ui4KDhWbJZt3Hfn/bhyxQYOTdRnEBYbIDh4aOdKXEPUbgUgEBxQoIMLVLGFD5VTBr7+1GF872gAJDsA4SBL21Oig81+TCGRFDmstYq495o2vHZTFxKq9JEq3BNd8wEIqtYCBRckdk96+NIzw9jrtMCxWkCVN7vdCbxrUwpvuW45Wi0dE06I//38IL43lEbJ7ICue7BFgM3aFD7x+tVYlTzZv4J9JYSOT19AgFBrAMWbaZhF9sgTcA78G1r8PqT0ArMvgUzClUmEwmB/A8twYZiUAxlCC1OY9lZAbHgVOq9/NfT0Kja3kiwKtFS5bTmCwrHPXFCA4OYdPPvwsyjuLbMOQfg0rwKIZR5e/wdvgNZuQjNI6Es6BQsnfjKIQ989DLNkM5A2hImyXcLKV6zAprdcBSsVlVWc/UU5A4DAbBmzBVFNTJ6vqiS2JKYsVcDyu7vQTgDBJtYuKpPdAAgXfO9oAIQLPgSXYgMWASBEVfAK5QL+5rG/QckuwrFKXHExFabRbffgNTe9DitbV/Eib1DBJ2jIiTx++NxjOJDZzxXsqG4ArUQJP4ntG+7E9mu286Z6IQAC+zbE7ocxYCB1udTYSvngYAaDLmAkbK58eHiyjJ8dzWLY6ISrNTFTYAkHq8QwfvuulbhpZStsevZaoeY8FlViD4jLyGo6PvWjPvxsohllK43ACNEUlrCjKYvfuusKrGpWNtMTnsRfPT+IR4dSKFrLuMJiSrgsUnzo9b1stUxuDGr5p3M7LfAS42FNuecL4IPAQlcSclIKJ3FZUofu5+D0PYHynn9F0juKVMpXcQjevIiDJ/vkgEUjlJKaddqR3vIAkle+FkivAAxDlSdnjoReT9tfZpGzGBbOIEhH4rlvPY/pZ7NIUK2KUIOmayiZBax6RQ+u+7XrAfIjCyWG945j378dhDFG9tgmh5tIROt1+Nj4wCZ03d7J3ydl8jTrOgOAQBs+zY7Y21R9JwkWE7uXgN+kAELHLV2QRE3FAHoec/lSXD2X0jM1AMJSGo1Lpi1nDxDi09/Q6BAefupheAkXvuVwKqTtJbDp/2vvS4Pkuqo0v7fmWlVZ+6qSVLKtXbZksC0JW7bBC9AYhmnWHrahiYbpiP5BxAy90TMR82diZoJuTMfQ9LB103TD2NND09gY3IBtZLAtWZawsZGMtZaW2rIqs3J9250+575XlSVlSVWiSsqSbzpky6XMl/ede/Xud7/zne90bsS9t96HOOK81UadBEnU98LxA3j80PdhxAx2iCO2ksq/dqx6A+7afhcVGl4VgEBfSl0SoxOSNHKSlDz/OyAVvdQlmEGAoq/h0V+ewz/8ykXWaoGnE0lsIO0XsKr4Mv7Hh+9AmyCGZBbwLIRBIPbA0XR86+Awvn0YyBvdzGSYRhVd1VH8x7v7sLWTGjNJdXy2EuDvnxvBY2csTCcy0IWLhF/F9dTu+b4B9MUogSIQJ2ggPG6JTfc15gv8xdEcnnSTC27WtJRGSWy1HJDGo8ogSqeb8YYxuv9bEMd+ivZ4GWasgoBaaxuy6ZXre7BZnhBwpULJjWNMrEPvzk8g0bOD71KIGAyD1lUllMgSQCAG4XwnxcvVICwMIMxZxD4wvH8YB751CE2VFtiOXONUmeDEHVgdMTR3NaE0XUZ2OIeUl4LhCm72ZXgCgVVm/4NNv30jjHYdpka+zHVelwEQKD1Ha5qYCp4DElEKUkWQcFJDtbmMzp3d6LqpmxAw62pUhqExNgMFEBpjHq6xUfzmAEFqmARy+RwOHj+IXCWHXGkKvufB9C2s67kOt954K59MGCAE1JNAQ0Wv4Pmj+/GTl/4Fuq3Dozp1XWOh4hsG34g7tt3BxklXg0GQ30nmA7KHBD8rwz4AbCvMj0yDDZ1sbjCk4cy/tu394++8jMN6HxydTuoWNNdHvzOKP7gljTuHOsMOg/LqCwEIngjwy4kS/tvjx3DaWguXeiwQiHIq6NWn8ZZ1BszAgyBfgMBDxTfw4mng1aAZBZtq6mUvhoyTx5tXm2gyA9hBFTcPNGFzX0so4NMxQRqEo1NXESAIZmbIcpgrWKaHcW7fV5CYeg5pclOkrpmBxqDM15qhaUnoehW6V4bpFzl1E/g6fJHEeGwIme3vQaLrNiDWCUECUmpVzjN5dRiEOWs4CBBMC/zwf/0L7BMxpMuktRHcfInAs0uaCap48XUYmglPSLEvp7noNN/rYetvb0Xn5h52YJy3hfZlAIRAp+8mPQ+xElRFRCCYAJiHSrqE1FAKAzcPINEVJ6TP645eikC4+tuCAghXfw6uwREsAUDg3U6CBAeO7FAX5s7dqgdT0xGPJcLTNxkRkbYeKKOMx59/HC+OvcBlXZJc1hF3Erhn233YOrglrF8/P+xLLVKkKgYSKfayUVKtSFELQoI6VJzTyA3WBJCojnodyMej5vsoGhq+uPcYvjvWhooR57sxhIa2ag4fGHLwgTcOchlk9LokQBCAA+CHR7L46/15ZOM97OzIfQOI+fV9xEnAF/aOMAKHm/+4ZhIlKw7fBOI+/Yzy9T5SlUlOKViFc/idHRm85+Y1zGiQzmLiPAZB+HSPBrszzj/OOiLFygl8KkNWy99clNUy6yyExx4TulPC5MGHYA3/E9LGGARcaJqFitcCt2kDjK6NMOKtzJpMTx2FNbYfKY9MktiPGQ5SKLfeiKZtH4LdvpVjxvoP7liaReHY/1wyBgHCgr8AkWLtCiYTLsKeuaN57P/mAdinLQbSlDYyab1ZPrNvpkcAT4drVOCbxCS5MLt0bHjnRnTf2M3aCurNUF+nw+0+Mbz3JNor3Zg8nUWpWJH9KMJW2fUeZjMcGTE6eoCq6cBL+Eh2JZDZ2IzWde3QUhp0ufCpreRs2/dr8Om4km5JAYSVNFsrZqxLBBBC++AIHERsgayNoI1E1nsTOCAK2dNcnMwN4/s/fxST2hh8g7ZcAd030eQ34b173ofudPc8ZYGXCRB4q7Ewqq3F95x78IvYblTzgFkNGCD82e3d2GAKbjlMHEFFaKi4GgqOj7zjwHE9mFUPGwdaYOkuNNrMAhGmE3RUIfC3zxzDt882sUkRNa2iV5OXw7t7C/j47nXghs8LOG7Jqgl+xuPxI5P4q315jCZ74LHTo8s9HWSDKzrp0QZIsaOTngFXo5OmDkMPYDlVLk8LdBK3UYOfOFK5YXx8i4kP7uhnfsbXDAYIn38thye9JMo5B8IjuHYpgCAXueysQfoKD12VE/hkqwQIsUX0YuAmXsTMUCuGMweQO/DXaPVfgW5UuRqANv2CvRmtb/gArPb1CMwYdBFHUBlB4ZVHEJx4BHF9FCZ1QDQ0FPVW6AP/Bult72PAZIbtr7Ugi8Lx+r0YLsdJkTQOfnEjJk98FJNTb4LR14qBNw3AajVn2pGeX9kqGSlqxQlMvDKJ1358FJOHp2B5cZiChKySXiIGgfw4HLOKSryMro2dGNq1FpkNrQjsgCt+tMCAziTbLPCMZiUCCB2VHmSHs6gUK8xMkKaATMCIkZDVPRJ0snNpYEGnezJ8lElH1BGgY1Mb2oYysNtjCMhalG3Gw2W82LLdFfNcXHkDVQBh5c3ZChjx0gGE6DEVKaHpISL7MsrNP/AFbDpDGwI5dwpPHHwCr44cgWOWQVkHahRl+THc0HY93n7r25DQEmGTpyViEBgg2BjV1swBCHbFxyBK+OwdvVjPFHwAyoQ//OQ+HJxMoCjolw3PBRKFEXz2392M/jjZLRPUkY2m6P5K0PCXP/41fphrR4Uso/noLdDsZPGeVQ4+vHMI5C1zKXxQW6VJAOFHhyfwxedyGGlaRS673F+Bysto5jydlPmCgQcdDMllEabO4j2D+ALfBXSL0yHcNTMQaM6fxse3xvB+BghUHGhilAACaRAIIORdCJcAAoGK+RkE5nt4kyFrYA2m8NBZPY5Ptj6E32/9u0UCBDn/RlDG5C8ehn78IaS0EW4jTRUIU34b4ls+gtQN91NEObVDp2cEVfhjLyH/i68gVTwEW1QZbPpIIGduR9dbPgM/1s2Aiq6liQkUji2dURIBBK+4EVMnPoIsAYT+VqzatQpmOwkow024zoQzY0JrwdVQGa1i9JdjOHloGCMnzsEv09xRWaxAMpNAz1A3erf1oe36VsQ6YvAMl105qazX8Km72DyPGRc49fRJdJR7MDmcRbUQAgTdlWMLky6z8EJCPdICle0KWm9oRdfWDsR7YtATWoR3Z76s1mJ9BTzorvkhKoBwzU/x1bjB5QEI3JeoBiBIo2WZuS8HJew/8hyePfwM3JgLynuSwyDZNJOo8f1v/gB6k72w6JTMhdbLBxCcPGBVq1gjyChpEDewk6JAATq+9qPn8HhuEEVkQA2UTcNEqpLDBzcJvGtbL2LccpjGrhEJjmEf+OxDr+CENYCqQflbyqcH6PFz+PB64O1bVi3IKKkWIFQ1DT8+PIavPjOCbKpX0uXCZ18A2kQ8qZhk/wA6CFYYDJCXBeXr6XcUP5tPiynhwPSqiBfP4P03NuHf3rwKJG/TAhujgcCfH83hicUCBC4dXBqAwGkqdwzjz38DyXPfR0LkoOl07ThG/X703funCFLXgST+vLnyzuhCr4xi8uDXYZ/7EeJ6jtX/gYhhDIPofst/gtaymasZZEvn8SUFCBAx+KWNyB/7MCandkPvz6D/TYPQOgxuPsZn9PNBIR/YwxbQ1H2Uuk3SDbkCPplseAQ+ZRN0w9aZ0ufCHxugRk+kSWAbcgI93BRtnpcDnPzZCXRUupE9NQmnQB0iZdfNaI2RVQNzB8w6AVUqT27zsPa2NWgeaoKIyTQSm5AZs11YmTlS7MHVeGDP+50KIDTUdFwrg7lyAIHOdUW/iIO/PoB9R56FY1fgmR5TrZawmWLdtvYm7N78JiSDJJ+0lxsgUIrBcBysFtTNcQDrdbCPQUnXsff4WXz+qUnkEqtRMS1SVyId+NiIc/jEHd1Y35pAgprmQMe5CvC9V0bx6KsacmaGmycR1Z8KfPRlf4X/+u5tWNdiQ6/rDDl3LdUCBDo/Hz4zib2Hz6Kox8N4kPMOpTdIJClZCvIE4KZGMHB4wseZoAWlmMV5fcprN1VyuK1HQ7vmwnAKuOX6dty4th0Gf17HuKddHoOwhABBUGfM6jDG9n0VrdknERdFTl24SGHcuA49b/0jCKuPGYWAGQETQlRguDlMvfj3sE89ipgxBtPVEAQ2Js0+NN3+B7Db3gho8XCjHkfh6OeWTINAVRJBaROmCSBM7oQ+0Iq+3YPQOyxGbBFAqJ1hAgdMKjALRGAukPNK4M+TJYvSvpjWPwkBJQPHP/J9XkMETUlPQnMX2Xrxpl3zRZqjMYPQVulE9vQk3GkSasoeq5LdksiFGAnHqsJo1tE01IyurV2wOyx4tscuoOS7QICUq0prUhkKIDTWHqAAQmPNxzUymmUECCR0otQCU/A+pp089r2yDy+depEfSKSMJm2C6RuwPBuDmbXYs/1OdKa6uCENPSU5V7uMDAIBBN3xpUjx9h5s1IEElTDqGs79q5jyPz90AEexCtNWEydKTM1H2pnG9ekS3tjfhPaEjoof4MiYgwMjAuMiA8+Kc8ts0gOky5N4W+c0PnnnDUjoYtEMAlHpfsjGyNp/Sf37rOUglkASxKRBoJ4FWcfnMscfnLUxGUtxs6ak62K9kcNn7uvHKt4nqaaeGhjJlttU8z7mAX/x60k8FaRRmXYROAtMMYQAgcs9OcVAGoRvX54GgSJcGcbEvq+heewnSKDIVLonEpgQg+i69zPQ0uuo2wWX4vEm6VdhOFlMHfpb2Gceh61Pwgqo02Mc40EfWu/+NMzW7QBXf1DkCCAsXYoBQQx+eRPyJz6EyewuaD0ZDNwyCLMzFlXF1lm/rB5hQSUzB4T3eL8OAUUkJwj7TbBHSGgjLu3Eo0vKuow5FILEi/yiDtHDPz+F1moHJs5OwC04nFrgtBh7TgCeHcBJuUiuTaD9hjY09TdBj5MvgwQnEnSEIORSubFr5Im4Um9DAYSVOnMNPe7lBQj8EEKAbCmLZ17+OY6cPYKKXZFpBSKJiSJ1TXQkOnHnTXdhdftaTi2wP1DYq2G5AYJVlQDhT+7o4WZNKSobpDSDZuHJY1P4ytMTGEl2wDHJ5IlO7kTxe0jBR5Ly3cJHwdVRttJsqUxMCXkMJLwKrjcn8On71mFt0uQSx4WcumoZBOr9QLGgFAK3iWLxAfHCBAnIN0CqPOjPyeo56/n4+nNn8cjZBCbjafb0T3keNulj+NO39qMzQTw+1a5LalruARpGfODPryJAINU+9UvQnSyyz30D6ZHvI6ZNhZ0PTeTddsS2fRTJG+7lPgzyvmnjchFMvIrcwa8imd8PG1WOcRDEMYEN6Lzvj4DkIPdyINMfY4nbPWsBaRDWIzf8UYxP3Ib0qn50re+GljKk6JI31Zpdmxez/DsneQT6d6hVkHhtZoevtQyPejnUShGjK3B3yPNeDCgCDWMvjaJDdODsmRE4VMUQJvooFlXbhdFroWtrN5rWpqE3mbIygiodZmWIcsSMYxRCaORHuQIIjTw7K3ZsywUQNO7sqOk68uU8nnrhSRwZPyJNlEy5AVuBBdMzmT24f/dbsbZjHWw/BpOU+Fzadr4yOwry4qsY5GP6QpEiaRDsiovVooA/3LMKN5gCSUEbvA5HMzDtCfyfF0bxncNlFNNN8AIy6THY0I9LwE0LrkcPVQ8wSXnO/jGwHB+rRRaf2tOH7d0WCx+53FBKzuu8Zu+19rYJbMgsAkkOZZ6YNnXSSdBDm875xAHIqxoYdzx8fd9ZfO+sjXysCZavIe4JBip/cn8vBul0yK2nw26I3DiLRIoa92J4yk+jTAyCy3cYihSjjUxWK8iXzEdzlp0xC4EnB13VY/i9zMP4/bZvwpo6A61iQ/S8HbF1vwuhtYbW1RfOKwEEYkssv4qpFx6CfeJhJLRRkAaPmhb5ohnnjM3ov+vfw2gZhK+Rq6AF4eVReOVxeK89jGac4ri4pgbPi6Oa2oPMnZ9GEM9IwyuNxH8L80GINkM50tmtXN7xbAQQmPDLGzB+8ncQ4B3oXLMOWlJj0yOTXRzr7d4yfnRCp9QCARppTCSvK8tKI+ZM0gtSsyBNjOhztCbIj4N+CWLbal8z+p8A2WMTaNXbceb0WTiViuyCqfkox0vo2kKGR10sqPQNSlgQcKR1Jb97lsiQ6YjIdnzFPuqu8YErgHCNT/DVub2lBQhU4x1ZKXvCxZQ7hacPPYVXzx7hDnSe7vFJ0Qws2F4cTXoz7rjpTqzrG4IpbJhhaWBAVPoSAwSKLzVkpiqGR5x7ucyRAIJRddCvlfFfbu/HJl3ADiLqnUxifIxUBR558RyeOF7CWdEMhzwO6EGrE1iIwyMWhB70fhmmqCLlV7DBLuN9O3qxYyCJmE4qBTrx17ogzJ3tWXPb2Z/LwrO5/z/75KaEAzkzSq8FenhXhUDO8fE3z57ED0ZsTFvNrHRP+h42WJP4w/sH0ZOg06oEF3LmZY+JMU/Hg6/lsddPoZBzEHiS7o55AVydNg6SYUpvBIIjMkceejK4Jmy6O2MaQ87L+A+ZR/HBzD9Ay41CVE2g+4EQILSEwsL6wI/d+ii9c/Z55Pf9DTLuq9D0EjHxXIXg0NgSa5G6/g5YmTVsUVw6/Swqx55GK87BIr8AjUpoTRREJ6zrPoDmTe+Gr1PkY1Kzr43Nk2KQrbTlPEScf3Rylpl3ujZdicpFTBY80m8teOUtqOQ+Bs14AKAGWWzpLPsUzMKDGqXinNaOC/xbv+jPCPiuB93REAsSGDkzgYI3DTfhItZtoeON7Wjrb4WwiJ4KUx48pYTI5pU9LnCw6m1XIwIKIFyNqF/z37m0AIHAAdPF8DFRHMfel/bi6NivWXPA5VlEIwcGbDeGzkQ3dm7bjaHONVz/zZ7yfBYO2M1NnmPq0ZqXxyDMBxDMGoCw0SCAI3UTtEVSoyM6d075Op47Po5nThbwWk7DSAGo0L3qJp+6YkEFrZaHnjSwqcvEng2rMNRkIMYbK6UIaAslwHHh5hipyOsutdmuwBIbRBsFlTgSONCoqkH2bKbTdt7x8MiBo/jZmRJKBnX+o9JRgaGYi9+7ewNa4vZMmiPMLvC2P+ppePDoFPZ6BBA8BB5tlDpsTwroyCtBtrGik6a0tOJzrvBhC4EOt4D1yQoe6HNwv/4QVle/BJGfQDADED4BQQ6IPL/1AALlSHz2b4A7gfF930Ls5GNosibhm548NVNjI5FE2YshCGJMocdjFRiGA1OvQBMuAmGiSjqKlh1ovvFjMFo3QhjE8LDjAzQxemE3x4jWnwEIEace5vh5RUrdBneBYAqHWnXYCNw2OKUdMLyPwKnuhkf2zrxySF46u9HWEysu96OFlhpXu1Cr7JEz8NIe2ja0ovP6DhgtlE6Q90Ihj9IV8u+bAgjLPTfLcX0FEJYjqq/7a/7mACHatOghSLSqK1xkSxPYe+gpHB49DD/hMjigZ49BpYxeHAMtg7ht8y70Zvpgs5uf/IcfVbw5zw8P6E8X2+45muZ6DIJZrWJAI5HiADYa/gx9H1kIRrS6J3zkPQ1HRqcxVgpQrGpweK8TSBk+OhMGepvj6G9LIUEsiaB2vdJ0SdLN9VtRy50/VJXPtx7r4CQiOrjtFY0hkGkDJwgwli9hvFKFE/YZJsV6xtCxvi0JGFTuxzvCDBlBkT7nAw8encReL43ilAufMgwEEHyZwvDIbIlL6yRAIHGdSX0evGl0BRW8bSCJ+/ubcWNTGebpB5EqfxlBPougaoUMwsdDgEB9B+ZJHQlKJYRtjicPY/z5byM+8QJSsTw06tFAJ3ZiNtj8nyyGpXhP5sdJeKejordjylqHzNZ3IdG7ky2ZNTNiTFzoXOZ4Xrvn8wBC7RRQiZ+k+CUbQPQ74zGtBSW3F1rqDYC9G3qwC77XLxtIcb1mpPePJm6+dNnyPoB0mmsBlL0KUj0pJLoTCOKys2gEEGd7KUTPAqU1WN5ZWZ6rK4CwPHF9nV916QAC7zpE+/oFPHnwCfzq3CssSPRMKq8CDM+C5droTfZz86bOdBd0n5zg5IOexVbhg5W628k8bP3T5m8KEL7v3Y9D9i44ecEphgG9gj/b3YdNZLUc0FlfnqOYCyHdAKn+BbEB1C+A+gEYEGSLG/oQ03CZ7g9dIymnTFQ+nfK5j0OYr69ri8sCxNnsfrQgZYphjmx9zlqVbnjRZ+WGxJt42AEy+iwxIDQecoh0KL8cphcktGEyHCO+ji+8NoWn/RSKWZcbJ7EVUSDFg/SLZoQqBAyfUhsuMt4Udqc8fHBTP7albbQbGmJiHOXTn0O89DX401MQFQII75ApBr2J+Iy6c8qCPuptIdtOQQuKCEonMXrgEfjn9iNjZJHUCpzqIKpf0yRQATE4woDnGyj5GYyba9Bz23thdm2DbskoHQcAABFESURBVDTD8iQFE1CahHtm1HFSvAhAoNhQjEhvIs0GbVS9NpTtrYgP/BZiXbcDxiAgmqUAkEQoHFSD+4rMzuWlAYLkJy79vtpFMPOZeaQOoUGiBDmmBmHSXJI1lhS5Ri/5u1nVwev8obgib18BhBU5bY0+6KUECEAVDl587RB+9srTKJsluJxWINpegoMWI4MH9rwLrbFWxLQYP3Sp0Q4LsOgfQV0GqQSPqHvaiJemzPF8BmEOQHBc9KKMP97Zi022xtlqOq1KUloyAMQqsyCMXQN1BKGD4YylNOsW5C/CDJT7p/uITrhST3GRk1nd+wxHXZNWqF1NPqskZS48erhLUxtKO0TCOhovbbnS4po2SR5jdOlQgnc20PH5o5N4xkmhNOVyYyQCGwSWfMODHtC8AHbgI+MWMaSV8MBQO94+2IY+XePukFIJMY7y8OcQK381BAj2eQChXndOCQxpUJ4e45WgB1VuVS38AgrHDyJ/5ElY5aNIGAXed6mSRPc9BKYBTyQxLdqh970BPVvfAi/eCU+Pw9QMWD6lSIhdoVp+mtEJFI7/97k+CPMABNISsE8BTatOottWONoQ/JZdSA+9G0heD4EmQMRZ+S/IEYOaKrHPAAGh+VihpT2hz4EUtZeOWmhHI+HhyDVMHhIXXY+N/thS47sgAgogqEWxDBH4zQFCNCja4E/lT+EHP38Mk94EXEt2oePTdGBCVIGdW3ahJ9UNSxAAkBswNaSh93FagaobNBstiRa0NXeEuePzb/vyUgx0p9RgiUSKtQDBrFTRgwo+tbUd2zK2PPhxnb3M+cuzliTX6TUrKJy1IY7Mb+Rnoo0h5AD4hxd/HPsXnObkPV8s8SCvHv4KN4boJCh99mvobS6XpDO6HMhcgACMBRq+dCyHZ70UqpxikA56BgMDmS5JehUMGmXc3qbht9Z0Y0tTHM3sykcSQoZO0LQJVE49CLv8FQT5KYiqDXQ9gNh1H78kgxDlvxkSElCM7IHIBMqZQmXqBKrZk3CL02wMxe+xTRipNiQ61sLMrObvEGQ7aJDCn4CGHqa3pDAWeiRS/Bn0XAm6KxkVmRaIJJsy8ixC5eoRKp5cDaR3wOq+F3bnTsDsYIEiMyLsIESpEZkqIhZB6jWWFggs6C9/jbshp/7Cv970d4tSMjMCTCVEXFA4V9KbFEBYSbO1YsZ6MYDwj6gGp1DMnYEt0rh165sR19Nh9TadXLnrgiQnqV2t8PDoocfwq1Mvw2MjJOpFSJsM0bvUjhhIUuMc8hKg0zU5yLFhDP1elnzRFWN+DJsHtmLXtl3Sk/6Cl8BocQSnp08jX6L67slwQ4m2RyaFZ/opR49pj4/aOka11fhn72140doNL+ci7RdwU2cC9/S1oNvwmTqIRGn8YA1P2Tw6Li+T27l0wZOby0z2lpkGCST4rBaKEmfc8+ZdF/NBgfkp51ov/dnLyvNhTTudkCSXP5c1C+e9W9cx7gMPn57CIZGGMyXYZIc+YVLHSBGgw8/j1lYD9/U3YVdXCl0aMS0kcCPWR2fGguAX9CyKww8iNv1laPkcvKoNrfedsNd+DDBawzr8GuASDkX6XsjxyTuWegf5czLNooB6QEB9BKjCRU6vTNnQvNBmHjkLys/Kb9G55JBnlC+cRfHo52G5e6Hni9yoK6rqiJJKtMcGgYnASKIUZIDkelid70CsYzu0+BCElmFgIBtqRar/CKpJVqdhXsxsyPHMrLDQnKlhxqgGsiQRUABhScKoLjI3AhcDCP8Pjn8KhfzpECDcjTjnkeUjh5oV0VOaNkFKBWQLWXzjJ38Hx6jAoy58vMtIgEAPfxZ81XnRaZfTtkTPakDMjWNH/83Yc9OdTIzXAwhjxREME0AoEkCY4mRApL2mLTASPEYd63j7YhrfYIDwXfeteMnehaDkYkuXidt6UlhlkKNjAJcBAqUVwr7VMwO4cGOrv5rmVtFfnRV3fqwj4FALEOi0K5sknasI/PDMNF7TYnCzAnaVtj4PllvAdZjCe6/rwT09TeiL64hpHmIBiRR19j+gd3L6heZbI4DwBdiFL0PPTcNzYxBd9yI+9CHA6GaBpFw9i9tEa99d+/tavf2cEzufnkPahoEDiRsJKOSQP0bdHJ+DkSeb5qidmJxr5l08qkFIo6CvgdFzL5Ldb4aZ3gJoKQiqUtAIHDQYEJhnkS3EmOvqrE/1rUsdAQUQljqi6nrhgzrkwFkDQKfiKqaqx/HM6HwAIXq+y8ezD+o74OLgrw7iySNPQZCHu+4gILMjamhE1wxZhijk0YOLgcHMDyUrEXfjuKn/ZtzFAKE+gzAvQOB0hRTuyULFWWtaMpQh7cA5fQ2+V74HL8fv4J4GaVSQCTwkuczOh2vReKnV8UUa4azQtcPFCeFLBOFpXdMwWdVRSKRRNg24kyU0VyroKmVxe08Sv7t9AGsMoDnwYOjEE1D3SKLQ5WZfHyB8CciV4PkpVJu3o3Xz+xCgm5tyLf41Z5XMgRaybFK+5kIOyaPMshFypWqYRv7YFxGrHISWL0NQuYYGmFQjyiZYNhzRjmp8B1Jr3otY+24IrWMmlUAs0qzqX0JRlctf/IyqTyx9BBRAWPqYqivOkOPyIbwggDDzJJYAgcBBJajgsScew9HSMe6xEJCzYKh8j4jtyKGNP1RzwGVhfVgNQP+N+QQQtmPPjksxCMPIF0drGAR2LwoBAj28ZSpAsvxkoEPWxCbGsAb7vXvwKm6GTy2ldWkCJMv5yE+AhH4GLDZDWNxJt9EXVD3zKRKDytM23zyf/NdbLt65uhV39KbRpnNbJGYJCLDN8iMyNtIsmDZjySCUiEEo/xWq0w58sxPJ1TdDS2+QSn9B4sfoZH/etl6XYarDOkXvY5Kgdn4kI8JXZS+LqFQ2KqIlvUsZzql/hlk6AkxXZHko6QYCGz664MU3Q2vdg+TA3UB8LYRo5rVAgFaC3FpIEH33VdAaNPpCU+O74hFQAOGKh/z18IULSzFYQYo1CAmDNAiRyi0ECHBRqBbw0+d+iqw7Lq1aZ+qrwqov3rvrbLbh4bA2b28LCxt7N2PHxh3gOu4LXgLEIJyaHsZ0aQxOYTJMMdQCBJl3Zld5Vq/LmgQ96EYsuQNuy+3IG/0Q1Ao5BDKsgwi3P5PLGolqllUJ18qLNvILkw9SLErSOhsmEpUKNrUlMJgwkSARoiZhgWxBLIWZfJ1QAyfTTZQiojbEUyid+gJipS/DoyrE5lUwMn0ItCbovjSVkh7V873qBfu8SpY5mZ6LaDfCck8eLYsWSFBZhjv5LIzSBJDzoXsmKqIZgT0Eo/12mB17YDRtBQwqW6T+ymaojQh1JvzdtQLQa2VlqPtY6RFQAGGlz2BDjv9yAILc9CMNAp0IyRxpqjAJP6hIn/hIvCh9EfnO63kA0J+QeiA6g8rmyRoydivS8fSML/zc0AmMlUYxnD/FAKHKIkV5lVkGQQIE4ZvQEYcu4oiLDNZ078ZA+y2Ix7tDpsFiG2R6RedN9rjnfUDaNS2WQ1js+6/ksjh/a47Gyhs/ue5S46fAh8n2xgSuiHqXOkFi4XlzpLRRGBkm8qmXQEAAgfpnTKF08i9hl/43NL0CYaThG9QoyYYe0MZKkGs+xDXPz2vAZrg/hzQBMQU1boU1H5eVJJFIVBZgSg7AheePw6z68KYsVN1OmG07Ee+9B2bTLRBWF3w9BogYgyCqYaCo8KtmHFHFxZWcO/VdKgIXi4ACCGp9LEMELgYQ/jEUKZ6BHaRwy9a7kTBIpCgV7ky9hmItLlLktrS0wcvNhUR+vMFy7fX8py6NqhrYhphUCw6XGZqBfChTZcP5L7raeGmMAUKhNIrKTBUDHWlnUww0Nl0kAC+BrrYhbOt/O5rsVbCQkaWXpLrXpLNgLRCgfYDG4sFHjHPti3s1MkCo5yoh9z7JCmnUZZO8DzRqmCXNn0w2/ZGlhzzfMsxhPb2cWwJVlFbStDxyJ78Ov/gwbDMPjXtVU7UKQQ+i6r2ZdNLCo3p+RGdnZL5Yszh1xmWRSADqrkhVER4MMgsqA1WnF6n+tyHefS+gD0hPA24+RbCABJiUoqK0hGQR5CtixyTkVfqDhc+ieufyRkABhOWN7+vz6pHSO9z2iT/2tAomnaPYP/IwnOAMpvNnYPo2tq/fieZ414z5jzxPXigOqx/I+R0Bazn82bLA8Cpzdmf5P7QpnCtOYyx/EtPFcyiX8pKDEMQaMLcB+CZMP40WczWu678F/R1bYGm90OlhT+8NH/gXbjDRybPm0Pj6XBkz01LX/THM88+GhubXQyCq0AKajzN8WpevCIRe6UDWrM6ZiZbjBCwIkYJmdABaBkIkpBYhrGRgQLtYZHilb099n4pATQQUQFDLYekjMAcgkPkMAYQqss4xPD/2f1H2hhkgNCXSuG5wC5JmOuzkN3sWnfscne+pWh8gLOS0zVcM893RdpMt5TE1PYV8MYtSaZJL2Di9TeY1fgopsw99LVsw2HUTMokBGEhwqkGd+Ba/hC5WKjdXJEiMDFkNU8KCuh4u/rvm/8Rid+v5vpzWYQRcIm0K2UfNTb6o8sClnDt1rSsRAQUQrkSUX2/fMQMQWKPN3HEEEF4Y/Q6K3ikEIo+Bnj6k4i0g/SFZI/Nv6m63FxOg1X9oX2wfqd0Wat83XiihWCyiWMqjVMizSE4LLCTQjp6WTVjVfhPam9bD0lpkLp1IY0onLDph8HpbEJd/v1LiKZM1lL2fjfVCZ/jyv/vSnwzHUKs4DQs3IqpgpumYog4uHU71joaLgAIIDTcl18CA5gAE2RHPQxVT7gkcGPknuMYEYJRhGVJvwBsA78b17p1+uPi87Lx55HnCS9tPgbz6hYFKvgSvUIblJpGxV+P6gVvR1XIdbKMDBlHIBA/YIIdoZVsBhGVfshGz1Lgtg0WY+qC1cTnrddlDqL5AReAyIqAAwmUETX3kEhE4j0EggODDQbZ6HAfOfRdavASQ6RG3WqQicC+0SJ5nA6hRlS9n7IWhcwOh6lQZKFpY07YNN/TtRNxsh8ZMAQkfpdMjl9bxfc7TKGg5B/q6u3bIRF3kvut2LLxEr4rlKDWN3DYVq/S6W6TX5A0rgHBNTutVvqnIICd0HiShFpUalvxRnJp8GYFeZkAgWNxHlsleaCpUr/58SZPOFwkMKe6pRt1B4LjoahpEZ3oddJHmDpCz5Wh0miXWg4CC7KOgXssZgWj+r5YoceH3NrPsL5DZqkWy8CiqdzZSBBRAaKTZuCbHQmWKlEEOEGhVbr0sXQyi0zexBlwANmevnQsLlg8k1HrtU/8AbknEFvrUyJgAA4GASH0uy+vka/Fpj2tyetVNhRGYv2xShUhFYKVGQAGElTpzK2jcc1XpswOfX9UtQcWVeNWOYb5xch27OgReielQ36EioCLQQBFQAKGBJkMNRUVARUBFQEVARaBRIqAAQqPMhBqHioCKgIqAioCKQANFQAGEBpoMNRQVARUBFQEVARWBRomAAgiNMhNqHCoCKgIqAioCKgINFAEFEBpoMtRQVARUBFQEVARUBBolAgogNMpMqHGoCKgIqAioCKgINFAEFEBooMlQQ1ERUBFQEVARUBFolAgogNAoM6HGoSKgIqAioCKgItBAEVAAoYEmQw1FRUBFQEVARUBFoFEioABCo8yEGoeKgIqAioCKgIpAA0VAAYQGmgw1FBUBFQEVARUBFYFGiYACCI0yE2ocKgIqAioCKgIqAg0UAQUQGmgy1FBUBFQEVARUBFQEGiUCCiA0ykyocagIqAioCKgIqAg0UAQUQGigyVBDURFQEVARUBFQEWiUCCiA0CgzocahIqAioCKgIqAi0EARUAChgSZDDUVFQEVARUBFQEWgUSKgAEKjzIQah4qAioCKgIqAikADReD/A0FynadxIk31AAAAAElFTkSuQmCC;" vertex="1" parent="7">
                    <mxGeometry x="440" y="60" width="278.63" height="157" as="geometry"/>
                </mxCell>
            </root>
        </mxGraphModel>
    </diagram>
</mxfile>